ISO-10303-21;
HEADER;
/* Generated by software containing ST-Developer
 * from STEP Tools, Inc. (www.steptools.com) 
 */

FILE_DESCRIPTION(
/* description */ (''),
/* implementation_level */ '2;1');

FILE_NAME(
/* name */ 'BasePad.step',
/* time_stamp */ '2026-07-16T00:01:23+09:30',
/* author */ (''),
/* organization */ (''),
/* preprocessor_version */ 'ST-DEVELOPER v20.1',
/* originating_system */ 'Autodesk Translation Framework v15.8.0.0',
/* authorisation */ '');

FILE_SCHEMA (('AUTOMOTIVE_DESIGN { 1 0 10303 214 3 1 1 }'));
ENDSEC;

DATA;
#10=MECHANICAL_DESIGN_GEOMETRIC_PRESENTATION_REPRESENTATION('',(#17,#18,
#19,#20,#21),#1367);
#11=SHAPE_REPRESENTATION_RELATIONSHIP('SRR','None',#1374,#12);
#12=ADVANCED_BREP_SHAPE_REPRESENTATION('',(#22,#23,#24,#25,#26),#1366);
#13=ELLIPSE('',#869,5.00076164021954,5.);
#14=ELLIPSE('',#872,5.00076164021954,5.);
#15=ELLIPSE('',#873,5.00076164021954,5.);
#16=ELLIPSE('',#874,5.00076164021954,5.);
#17=STYLED_ITEM('',(#1383),#22);
#18=STYLED_ITEM('',(#1383),#23);
#19=STYLED_ITEM('',(#1383),#24);
#20=STYLED_ITEM('',(#1383),#25);
#21=STYLED_ITEM('',(#1383),#26);
#22=MANIFOLD_SOLID_BREP('Body1',#789);
#23=MANIFOLD_SOLID_BREP('Body8',#790);
#24=MANIFOLD_SOLID_BREP('Body9',#791);
#25=MANIFOLD_SOLID_BREP('Body10',#792);
#26=MANIFOLD_SOLID_BREP('Body11',#793);
#27=FACE_BOUND('',#241,.T.);
#28=FACE_BOUND('',#247,.T.);
#29=FACE_BOUND('',#251,.T.);
#30=FACE_BOUND('',#259,.T.);
#31=FACE_BOUND('',#278,.T.);
#32=FACE_BOUND('',#279,.T.);
#33=FACE_BOUND('',#283,.T.);
#34=FACE_BOUND('',#284,.T.);
#35=FACE_BOUND('',#285,.T.);
#36=FACE_BOUND('',#286,.T.);
#37=LINE('',#1151,#101);
#38=LINE('',#1156,#102);
#39=LINE('',#1166,#103);
#40=LINE('',#1171,#104);
#41=LINE('',#1184,#105);
#42=LINE('',#1187,#106);
#43=LINE('',#1196,#107);
#44=LINE('',#1201,#108);
#45=LINE('',#1208,#109);
#46=LINE('',#1215,#110);
#47=LINE('',#1222,#111);
#48=LINE('',#1229,#112);
#49=LINE('',#1236,#113);
#50=LINE('',#1243,#114);
#51=LINE('',#1251,#115);
#52=LINE('',#1254,#116);
#53=LINE('',#1257,#117);
#54=LINE('',#1259,#118);
#55=LINE('',#1260,#119);
#56=LINE('',#1263,#120);
#57=LINE('',#1267,#121);
#58=LINE('',#1271,#122);
#59=LINE('',#1277,#123);
#60=LINE('',#1278,#124);
#61=LINE('',#1281,#125);
#62=LINE('',#1282,#126);
#63=LINE('',#1286,#127);
#64=LINE('',#1290,#128);
#65=LINE('',#1293,#129);
#66=LINE('',#1295,#130);
#67=LINE('',#1297,#131);
#68=LINE('',#1299,#132);
#69=LINE('',#1301,#133);
#70=LINE('',#1303,#134);
#71=LINE('',#1305,#135);
#72=LINE('',#1307,#136);
#73=LINE('',#1308,#137);
#74=LINE('',#1309,#138);
#75=LINE('',#1313,#139);
#76=LINE('',#1315,#140);
#77=LINE('',#1317,#141);
#78=LINE('',#1318,#142);
#79=LINE('',#1321,#143);
#80=LINE('',#1323,#144);
#81=LINE('',#1325,#145);
#82=LINE('',#1327,#146);
#83=LINE('',#1329,#147);
#84=LINE('',#1331,#148);
#85=LINE('',#1332,#149);
#86=LINE('',#1335,#150);
#87=LINE('',#1336,#151);
#88=LINE('',#1339,#152);
#89=LINE('',#1340,#153);
#90=LINE('',#1342,#154);
#91=LINE('',#1343,#155);
#92=LINE('',#1346,#156);
#93=LINE('',#1348,#157);
#94=LINE('',#1349,#158);
#95=LINE('',#1351,#159);
#96=LINE('',#1353,#160);
#97=LINE('',#1354,#161);
#98=LINE('',#1356,#162);
#99=LINE('',#1359,#163);
#100=LINE('',#1361,#164);
#101=VECTOR('',#907,1.6);
#102=VECTOR('',#914,2.25);
#103=VECTOR('',#927,1.6);
#104=VECTOR('',#934,2.25);
#105=VECTOR('',#951,2.25);
#106=VECTOR('',#956,1.6);
#107=VECTOR('',#967,1.6);
#108=VECTOR('',#974,2.25);
#109=VECTOR('',#983,3.50000000000001);
#110=VECTOR('',#992,3.50000000000001);
#111=VECTOR('',#1001,1.1);
#112=VECTOR('',#1010,1.09999999999999);
#113=VECTOR('',#1019,1.09999999999999);
#114=VECTOR('',#1028,1.09999999999999);
#115=VECTOR('',#1037,10.);
#116=VECTOR('',#1040,10.);
#117=VECTOR('',#1043,10.);
#118=VECTOR('',#1044,10.);
#119=VECTOR('',#1045,10.);
#120=VECTOR('',#1048,10.);
#121=VECTOR('',#1051,10.);
#122=VECTOR('',#1054,10.);
#123=VECTOR('',#1061,10.);
#124=VECTOR('',#1062,10.);
#125=VECTOR('',#1065,10.);
#126=VECTOR('',#1066,10.);
#127=VECTOR('',#1071,10.);
#128=VECTOR('',#1076,10.);
#129=VECTOR('',#1079,10.);
#130=VECTOR('',#1080,10.);
#131=VECTOR('',#1081,10.);
#132=VECTOR('',#1082,10.);
#133=VECTOR('',#1083,10.);
#134=VECTOR('',#1084,10.);
#135=VECTOR('',#1085,10.);
#136=VECTOR('',#1086,10.);
#137=VECTOR('',#1087,10.);
#138=VECTOR('',#1088,10.);
#139=VECTOR('',#1091,10.);
#140=VECTOR('',#1092,10.);
#141=VECTOR('',#1093,10.);
#142=VECTOR('',#1094,10.);
#143=VECTOR('',#1097,10.);
#144=VECTOR('',#1098,10.);
#145=VECTOR('',#1099,10.);
#146=VECTOR('',#1100,10.);
#147=VECTOR('',#1101,10.);
#148=VECTOR('',#1102,10.);
#149=VECTOR('',#1103,10.);
#150=VECTOR('',#1106,10.);
#151=VECTOR('',#1107,10.);
#152=VECTOR('',#1110,10.);
#153=VECTOR('',#1111,10.);
#154=VECTOR('',#1114,10.);
#155=VECTOR('',#1115,10.);
#156=VECTOR('',#1118,10.);
#157=VECTOR('',#1119,10.);
#158=VECTOR('',#1120,10.);
#159=VECTOR('',#1123,10.);
#160=VECTOR('',#1126,10.);
#161=VECTOR('',#1127,10.);
#162=VECTOR('',#1130,10.);
#163=VECTOR('',#1135,10.);
#164=VECTOR('',#1138,10.);
#165=CYLINDRICAL_SURFACE('',#809,1.6);
#166=CYLINDRICAL_SURFACE('',#812,2.25);
#167=CYLINDRICAL_SURFACE('',#818,1.6);
#168=CYLINDRICAL_SURFACE('',#821,2.25);
#169=CYLINDRICAL_SURFACE('',#830,2.25);
#170=CYLINDRICAL_SURFACE('',#832,1.6);
#171=CYLINDRICAL_SURFACE('',#836,1.6);
#172=CYLINDRICAL_SURFACE('',#839,2.25);
#173=CYLINDRICAL_SURFACE('',#843,3.50000000000001);
#174=CYLINDRICAL_SURFACE('',#847,3.50000000000001);
#175=CYLINDRICAL_SURFACE('',#851,0.8877);
#176=CYLINDRICAL_SURFACE('',#855,0.8877);
#177=CYLINDRICAL_SURFACE('',#859,0.8877);
#178=CYLINDRICAL_SURFACE('',#863,0.8877);
#179=CYLINDRICAL_SURFACE('',#867,5.);
#180=CYLINDRICAL_SURFACE('',#875,5.);
#181=CYLINDRICAL_SURFACE('',#878,5.);
#182=CYLINDRICAL_SURFACE('',#880,5.);
#183=FACE_OUTER_BOUND('',#237,.T.);
#184=FACE_OUTER_BOUND('',#238,.T.);
#185=FACE_OUTER_BOUND('',#239,.T.);
#186=FACE_OUTER_BOUND('',#240,.T.);
#187=FACE_OUTER_BOUND('',#242,.T.);
#188=FACE_OUTER_BOUND('',#243,.T.);
#189=FACE_OUTER_BOUND('',#244,.T.);
#190=FACE_OUTER_BOUND('',#245,.T.);
#191=FACE_OUTER_BOUND('',#246,.T.);
#192=FACE_OUTER_BOUND('',#248,.T.);
#193=FACE_OUTER_BOUND('',#249,.T.);
#194=FACE_OUTER_BOUND('',#250,.T.);
#195=FACE_OUTER_BOUND('',#252,.T.);
#196=FACE_OUTER_BOUND('',#253,.T.);
#197=FACE_OUTER_BOUND('',#254,.T.);
#198=FACE_OUTER_BOUND('',#255,.T.);
#199=FACE_OUTER_BOUND('',#256,.T.);
#200=FACE_OUTER_BOUND('',#257,.T.);
#201=FACE_OUTER_BOUND('',#258,.T.);
#202=FACE_OUTER_BOUND('',#260,.T.);
#203=FACE_OUTER_BOUND('',#261,.T.);
#204=FACE_OUTER_BOUND('',#262,.T.);
#205=FACE_OUTER_BOUND('',#263,.T.);
#206=FACE_OUTER_BOUND('',#264,.T.);
#207=FACE_OUTER_BOUND('',#265,.T.);
#208=FACE_OUTER_BOUND('',#266,.T.);
#209=FACE_OUTER_BOUND('',#267,.T.);
#210=FACE_OUTER_BOUND('',#268,.T.);
#211=FACE_OUTER_BOUND('',#269,.T.);
#212=FACE_OUTER_BOUND('',#270,.T.);
#213=FACE_OUTER_BOUND('',#271,.T.);
#214=FACE_OUTER_BOUND('',#272,.T.);
#215=FACE_OUTER_BOUND('',#273,.T.);
#216=FACE_OUTER_BOUND('',#274,.T.);
#217=FACE_OUTER_BOUND('',#275,.T.);
#218=FACE_OUTER_BOUND('',#276,.T.);
#219=FACE_OUTER_BOUND('',#277,.T.);
#220=FACE_OUTER_BOUND('',#280,.T.);
#221=FACE_OUTER_BOUND('',#281,.T.);
#222=FACE_OUTER_BOUND('',#282,.T.);
#223=FACE_OUTER_BOUND('',#287,.T.);
#224=FACE_OUTER_BOUND('',#288,.T.);
#225=FACE_OUTER_BOUND('',#289,.T.);
#226=FACE_OUTER_BOUND('',#290,.T.);
#227=FACE_OUTER_BOUND('',#291,.T.);
#228=FACE_OUTER_BOUND('',#292,.T.);
#229=FACE_OUTER_BOUND('',#293,.T.);
#230=FACE_OUTER_BOUND('',#294,.T.);
#231=FACE_OUTER_BOUND('',#295,.T.);
#232=FACE_OUTER_BOUND('',#296,.T.);
#233=FACE_OUTER_BOUND('',#297,.T.);
#234=FACE_OUTER_BOUND('',#298,.T.);
#235=FACE_OUTER_BOUND('',#299,.T.);
#236=FACE_OUTER_BOUND('',#300,.T.);
#237=EDGE_LOOP('',(#499));
#238=EDGE_LOOP('',(#500,#501,#502,#503));
#239=EDGE_LOOP('',(#504,#505,#506,#507));
#240=EDGE_LOOP('',(#508));
#241=EDGE_LOOP('',(#509));
#242=EDGE_LOOP('',(#510));
#243=EDGE_LOOP('',(#511));
#244=EDGE_LOOP('',(#512,#513,#514,#515));
#245=EDGE_LOOP('',(#516,#517,#518,#519));
#246=EDGE_LOOP('',(#520));
#247=EDGE_LOOP('',(#521));
#248=EDGE_LOOP('',(#522));
#249=EDGE_LOOP('',(#523));
#250=EDGE_LOOP('',(#524));
#251=EDGE_LOOP('',(#525));
#252=EDGE_LOOP('',(#526,#527,#528,#529));
#253=EDGE_LOOP('',(#530,#531,#532,#533));
#254=EDGE_LOOP('',(#534));
#255=EDGE_LOOP('',(#535));
#256=EDGE_LOOP('',(#536,#537,#538,#539));
#257=EDGE_LOOP('',(#540,#541,#542,#543));
#258=EDGE_LOOP('',(#544));
#259=EDGE_LOOP('',(#545));
#260=EDGE_LOOP('',(#546));
#261=EDGE_LOOP('',(#547,#548,#549,#550));
#262=EDGE_LOOP('',(#551));
#263=EDGE_LOOP('',(#552,#553,#554,#555));
#264=EDGE_LOOP('',(#556));
#265=EDGE_LOOP('',(#557,#558,#559,#560));
#266=EDGE_LOOP('',(#561));
#267=EDGE_LOOP('',(#562,#563,#564,#565));
#268=EDGE_LOOP('',(#566));
#269=EDGE_LOOP('',(#567,#568,#569,#570));
#270=EDGE_LOOP('',(#571));
#271=EDGE_LOOP('',(#572,#573,#574,#575));
#272=EDGE_LOOP('',(#576));
#273=EDGE_LOOP('',(#577,#578,#579,#580));
#274=EDGE_LOOP('',(#581,#582,#583,#584));
#275=EDGE_LOOP('',(#585,#586,#587,#588,#589,#590,#591,#592));
#276=EDGE_LOOP('',(#593,#594,#595,#596));
#277=EDGE_LOOP('',(#597,#598,#599,#600));
#278=EDGE_LOOP('',(#601));
#279=EDGE_LOOP('',(#602));
#280=EDGE_LOOP('',(#603,#604,#605,#606));
#281=EDGE_LOOP('',(#607,#608,#609,#610));
#282=EDGE_LOOP('',(#611,#612,#613,#614,#615,#616,#617,#618,#619,#620,#621,
#622,#623,#624,#625,#626));
#283=EDGE_LOOP('',(#627));
#284=EDGE_LOOP('',(#628));
#285=EDGE_LOOP('',(#629));
#286=EDGE_LOOP('',(#630));
#287=EDGE_LOOP('',(#631,#632,#633,#634));
#288=EDGE_LOOP('',(#635,#636,#637,#638,#639,#640,#641,#642));
#289=EDGE_LOOP('',(#643,#644,#645,#646));
#290=EDGE_LOOP('',(#647,#648,#649,#650));
#291=EDGE_LOOP('',(#651,#652,#653,#654,#655));
#292=EDGE_LOOP('',(#656,#657,#658,#659,#660,#661));
#293=EDGE_LOOP('',(#662,#663,#664,#665));
#294=EDGE_LOOP('',(#666,#667,#668,#669));
#295=EDGE_LOOP('',(#670,#671,#672,#673));
#296=EDGE_LOOP('',(#674,#675,#676,#677));
#297=EDGE_LOOP('',(#678,#679,#680,#681,#682));
#298=EDGE_LOOP('',(#683,#684,#685,#686));
#299=EDGE_LOOP('',(#687,#688,#689,#690));
#300=EDGE_LOOP('',(#691,#692,#693,#694,#695,#696,#697,#698));
#301=CIRCLE('',#808,2.25);
#302=CIRCLE('',#810,1.6);
#303=CIRCLE('',#811,1.6);
#304=CIRCLE('',#813,2.25);
#305=CIRCLE('',#817,2.25);
#306=CIRCLE('',#819,1.6);
#307=CIRCLE('',#820,1.6);
#308=CIRCLE('',#822,2.25);
#309=CIRCLE('',#826,1.6);
#310=CIRCLE('',#828,2.25);
#311=CIRCLE('',#829,1.6);
#312=CIRCLE('',#831,2.25);
#313=CIRCLE('',#835,2.25);
#314=CIRCLE('',#837,1.6);
#315=CIRCLE('',#838,1.6);
#316=CIRCLE('',#840,2.25);
#317=CIRCLE('',#844,3.50000000000001);
#318=CIRCLE('',#845,3.50000000000001);
#319=CIRCLE('',#848,3.50000000000001);
#320=CIRCLE('',#849,3.50000000000001);
#321=CIRCLE('',#852,0.8877);
#322=CIRCLE('',#853,0.8877);
#323=CIRCLE('',#856,0.8877);
#324=CIRCLE('',#857,0.8877);
#325=CIRCLE('',#860,0.8877);
#326=CIRCLE('',#861,0.8877);
#327=CIRCLE('',#864,0.8877);
#328=CIRCLE('',#865,0.8877);
#329=CIRCLE('',#868,5.);
#330=CIRCLE('',#876,5.);
#331=CIRCLE('',#879,5.);
#332=CIRCLE('',#881,5.);
#333=VERTEX_POINT('',#1145);
#334=VERTEX_POINT('',#1148);
#335=VERTEX_POINT('',#1150);
#336=VERTEX_POINT('',#1154);
#337=VERTEX_POINT('',#1160);
#338=VERTEX_POINT('',#1163);
#339=VERTEX_POINT('',#1165);
#340=VERTEX_POINT('',#1169);
#341=VERTEX_POINT('',#1175);
#342=VERTEX_POINT('',#1178);
#343=VERTEX_POINT('',#1180);
#344=VERTEX_POINT('',#1183);
#345=VERTEX_POINT('',#1190);
#346=VERTEX_POINT('',#1193);
#347=VERTEX_POINT('',#1195);
#348=VERTEX_POINT('',#1199);
#349=VERTEX_POINT('',#1205);
#350=VERTEX_POINT('',#1207);
#351=VERTEX_POINT('',#1212);
#352=VERTEX_POINT('',#1214);
#353=VERTEX_POINT('',#1219);
#354=VERTEX_POINT('',#1221);
#355=VERTEX_POINT('',#1226);
#356=VERTEX_POINT('',#1228);
#357=VERTEX_POINT('',#1233);
#358=VERTEX_POINT('',#1235);
#359=VERTEX_POINT('',#1240);
#360=VERTEX_POINT('',#1242);
#361=VERTEX_POINT('',#1247);
#362=VERTEX_POINT('',#1248);
#363=VERTEX_POINT('',#1250);
#364=VERTEX_POINT('',#1252);
#365=VERTEX_POINT('',#1256);
#366=VERTEX_POINT('',#1258);
#367=VERTEX_POINT('',#1262);
#368=VERTEX_POINT('',#1264);
#369=VERTEX_POINT('',#1266);
#370=VERTEX_POINT('',#1268);
#371=VERTEX_POINT('',#1270);
#372=VERTEX_POINT('',#1274);
#373=VERTEX_POINT('',#1275);
#374=VERTEX_POINT('',#1280);
#375=VERTEX_POINT('',#1284);
#376=VERTEX_POINT('',#1288);
#377=VERTEX_POINT('',#1292);
#378=VERTEX_POINT('',#1294);
#379=VERTEX_POINT('',#1296);
#380=VERTEX_POINT('',#1298);
#381=VERTEX_POINT('',#1300);
#382=VERTEX_POINT('',#1302);
#383=VERTEX_POINT('',#1304);
#384=VERTEX_POINT('',#1306);
#385=VERTEX_POINT('',#1311);
#386=VERTEX_POINT('',#1312);
#387=VERTEX_POINT('',#1314);
#388=VERTEX_POINT('',#1316);
#389=VERTEX_POINT('',#1320);
#390=VERTEX_POINT('',#1322);
#391=VERTEX_POINT('',#1324);
#392=VERTEX_POINT('',#1326);
#393=VERTEX_POINT('',#1328);
#394=VERTEX_POINT('',#1330);
#395=VERTEX_POINT('',#1334);
#396=VERTEX_POINT('',#1338);
#397=VERTEX_POINT('',#1345);
#398=VERTEX_POINT('',#1347);
#399=EDGE_CURVE('',#333,#333,#301,.T.);
#400=EDGE_CURVE('',#334,#334,#302,.T.);
#401=EDGE_CURVE('',#334,#335,#37,.T.);
#402=EDGE_CURVE('',#335,#335,#303,.T.);
#403=EDGE_CURVE('',#336,#336,#304,.T.);
#404=EDGE_CURVE('',#336,#333,#38,.T.);
#405=EDGE_CURVE('',#337,#337,#305,.T.);
#406=EDGE_CURVE('',#338,#338,#306,.T.);
#407=EDGE_CURVE('',#338,#339,#39,.T.);
#408=EDGE_CURVE('',#339,#339,#307,.T.);
#409=EDGE_CURVE('',#340,#340,#308,.T.);
#410=EDGE_CURVE('',#340,#337,#40,.T.);
#411=EDGE_CURVE('',#341,#341,#309,.T.);
#412=EDGE_CURVE('',#342,#342,#310,.T.);
#413=EDGE_CURVE('',#343,#343,#311,.T.);
#414=EDGE_CURVE('',#342,#344,#41,.T.);
#415=EDGE_CURVE('',#344,#344,#312,.T.);
#416=EDGE_CURVE('',#343,#341,#42,.T.);
#417=EDGE_CURVE('',#345,#345,#313,.T.);
#418=EDGE_CURVE('',#346,#346,#314,.T.);
#419=EDGE_CURVE('',#346,#347,#43,.T.);
#420=EDGE_CURVE('',#347,#347,#315,.T.);
#421=EDGE_CURVE('',#348,#348,#316,.T.);
#422=EDGE_CURVE('',#348,#345,#44,.T.);
#423=EDGE_CURVE('',#349,#349,#317,.T.);
#424=EDGE_CURVE('',#349,#350,#45,.T.);
#425=EDGE_CURVE('',#350,#350,#318,.T.);
#426=EDGE_CURVE('',#351,#351,#319,.T.);
#427=EDGE_CURVE('',#351,#352,#46,.T.);
#428=EDGE_CURVE('',#352,#352,#320,.T.);
#429=EDGE_CURVE('',#353,#353,#321,.T.);
#430=EDGE_CURVE('',#353,#354,#47,.T.);
#431=EDGE_CURVE('',#354,#354,#322,.T.);
#432=EDGE_CURVE('',#355,#355,#323,.T.);
#433=EDGE_CURVE('',#355,#356,#48,.T.);
#434=EDGE_CURVE('',#356,#356,#324,.T.);
#435=EDGE_CURVE('',#357,#357,#325,.T.);
#436=EDGE_CURVE('',#357,#358,#49,.T.);
#437=EDGE_CURVE('',#358,#358,#326,.T.);
#438=EDGE_CURVE('',#359,#359,#327,.T.);
#439=EDGE_CURVE('',#359,#360,#50,.T.);
#440=EDGE_CURVE('',#360,#360,#328,.T.);
#441=EDGE_CURVE('',#361,#362,#329,.T.);
#442=EDGE_CURVE('',#362,#363,#51,.T.);
#443=EDGE_CURVE('',#363,#364,#13,.T.);
#444=EDGE_CURVE('',#364,#361,#52,.T.);
#445=EDGE_CURVE('',#364,#365,#53,.T.);
#446=EDGE_CURVE('',#366,#365,#54,.T.);
#447=EDGE_CURVE('',#361,#366,#55,.T.);
#448=EDGE_CURVE('',#367,#363,#56,.T.);
#449=EDGE_CURVE('',#368,#367,#14,.T.);
#450=EDGE_CURVE('',#369,#368,#57,.T.);
#451=EDGE_CURVE('',#370,#369,#15,.T.);
#452=EDGE_CURVE('',#371,#370,#58,.T.);
#453=EDGE_CURVE('',#365,#371,#16,.T.);
#454=EDGE_CURVE('',#372,#373,#330,.T.);
#455=EDGE_CURVE('',#373,#368,#59,.T.);
#456=EDGE_CURVE('',#367,#372,#60,.T.);
#457=EDGE_CURVE('',#374,#373,#61,.T.);
#458=EDGE_CURVE('',#369,#374,#62,.T.);
#459=EDGE_CURVE('',#374,#375,#331,.T.);
#460=EDGE_CURVE('',#375,#370,#63,.T.);
#461=EDGE_CURVE('',#376,#366,#332,.T.);
#462=EDGE_CURVE('',#371,#376,#64,.T.);
#463=EDGE_CURVE('',#376,#377,#65,.T.);
#464=EDGE_CURVE('',#377,#378,#66,.T.);
#465=EDGE_CURVE('',#378,#379,#67,.T.);
#466=EDGE_CURVE('',#379,#380,#68,.T.);
#467=EDGE_CURVE('',#380,#381,#69,.T.);
#468=EDGE_CURVE('',#381,#382,#70,.T.);
#469=EDGE_CURVE('',#382,#383,#71,.T.);
#470=EDGE_CURVE('',#383,#384,#72,.T.);
#471=EDGE_CURVE('',#384,#375,#73,.T.);
#472=EDGE_CURVE('',#372,#362,#74,.T.);
#473=EDGE_CURVE('',#385,#386,#75,.T.);
#474=EDGE_CURVE('',#385,#387,#76,.T.);
#475=EDGE_CURVE('',#387,#388,#77,.T.);
#476=EDGE_CURVE('',#388,#386,#78,.T.);
#477=EDGE_CURVE('',#389,#385,#79,.T.);
#478=EDGE_CURVE('',#386,#390,#80,.T.);
#479=EDGE_CURVE('',#391,#390,#81,.T.);
#480=EDGE_CURVE('',#392,#391,#82,.T.);
#481=EDGE_CURVE('',#393,#392,#83,.T.);
#482=EDGE_CURVE('',#394,#393,#84,.T.);
#483=EDGE_CURVE('',#389,#394,#85,.T.);
#484=EDGE_CURVE('',#390,#395,#86,.T.);
#485=EDGE_CURVE('',#395,#388,#87,.T.);
#486=EDGE_CURVE('',#396,#389,#88,.T.);
#487=EDGE_CURVE('',#396,#387,#89,.T.);
#488=EDGE_CURVE('',#394,#379,#90,.T.);
#489=EDGE_CURVE('',#396,#378,#91,.T.);
#490=EDGE_CURVE('',#397,#396,#92,.T.);
#491=EDGE_CURVE('',#397,#398,#93,.T.);
#492=EDGE_CURVE('',#395,#398,#94,.T.);
#493=EDGE_CURVE('',#397,#377,#95,.T.);
#494=EDGE_CURVE('',#398,#384,#96,.T.);
#495=EDGE_CURVE('',#395,#383,#97,.T.);
#496=EDGE_CURVE('',#393,#380,#98,.T.);
#497=EDGE_CURVE('',#391,#382,#99,.T.);
#498=EDGE_CURVE('',#392,#381,#100,.T.);
#499=ORIENTED_EDGE('',*,*,#399,.T.);
#500=ORIENTED_EDGE('',*,*,#400,.F.);
#501=ORIENTED_EDGE('',*,*,#401,.T.);
#502=ORIENTED_EDGE('',*,*,#402,.F.);
#503=ORIENTED_EDGE('',*,*,#401,.F.);
#504=ORIENTED_EDGE('',*,*,#403,.F.);
#505=ORIENTED_EDGE('',*,*,#404,.T.);
#506=ORIENTED_EDGE('',*,*,#399,.F.);
#507=ORIENTED_EDGE('',*,*,#404,.F.);
#508=ORIENTED_EDGE('',*,*,#403,.T.);
#509=ORIENTED_EDGE('',*,*,#400,.T.);
#510=ORIENTED_EDGE('',*,*,#402,.T.);
#511=ORIENTED_EDGE('',*,*,#405,.T.);
#512=ORIENTED_EDGE('',*,*,#406,.F.);
#513=ORIENTED_EDGE('',*,*,#407,.T.);
#514=ORIENTED_EDGE('',*,*,#408,.F.);
#515=ORIENTED_EDGE('',*,*,#407,.F.);
#516=ORIENTED_EDGE('',*,*,#409,.F.);
#517=ORIENTED_EDGE('',*,*,#410,.T.);
#518=ORIENTED_EDGE('',*,*,#405,.F.);
#519=ORIENTED_EDGE('',*,*,#410,.F.);
#520=ORIENTED_EDGE('',*,*,#409,.T.);
#521=ORIENTED_EDGE('',*,*,#406,.T.);
#522=ORIENTED_EDGE('',*,*,#408,.T.);
#523=ORIENTED_EDGE('',*,*,#411,.T.);
#524=ORIENTED_EDGE('',*,*,#412,.T.);
#525=ORIENTED_EDGE('',*,*,#413,.T.);
#526=ORIENTED_EDGE('',*,*,#412,.F.);
#527=ORIENTED_EDGE('',*,*,#414,.T.);
#528=ORIENTED_EDGE('',*,*,#415,.F.);
#529=ORIENTED_EDGE('',*,*,#414,.F.);
#530=ORIENTED_EDGE('',*,*,#413,.F.);
#531=ORIENTED_EDGE('',*,*,#416,.T.);
#532=ORIENTED_EDGE('',*,*,#411,.F.);
#533=ORIENTED_EDGE('',*,*,#416,.F.);
#534=ORIENTED_EDGE('',*,*,#415,.T.);
#535=ORIENTED_EDGE('',*,*,#417,.T.);
#536=ORIENTED_EDGE('',*,*,#418,.F.);
#537=ORIENTED_EDGE('',*,*,#419,.T.);
#538=ORIENTED_EDGE('',*,*,#420,.F.);
#539=ORIENTED_EDGE('',*,*,#419,.F.);
#540=ORIENTED_EDGE('',*,*,#421,.F.);
#541=ORIENTED_EDGE('',*,*,#422,.T.);
#542=ORIENTED_EDGE('',*,*,#417,.F.);
#543=ORIENTED_EDGE('',*,*,#422,.F.);
#544=ORIENTED_EDGE('',*,*,#421,.T.);
#545=ORIENTED_EDGE('',*,*,#418,.T.);
#546=ORIENTED_EDGE('',*,*,#420,.T.);
#547=ORIENTED_EDGE('',*,*,#423,.F.);
#548=ORIENTED_EDGE('',*,*,#424,.T.);
#549=ORIENTED_EDGE('',*,*,#425,.T.);
#550=ORIENTED_EDGE('',*,*,#424,.F.);
#551=ORIENTED_EDGE('',*,*,#425,.F.);
#552=ORIENTED_EDGE('',*,*,#426,.F.);
#553=ORIENTED_EDGE('',*,*,#427,.T.);
#554=ORIENTED_EDGE('',*,*,#428,.T.);
#555=ORIENTED_EDGE('',*,*,#427,.F.);
#556=ORIENTED_EDGE('',*,*,#428,.F.);
#557=ORIENTED_EDGE('',*,*,#429,.F.);
#558=ORIENTED_EDGE('',*,*,#430,.T.);
#559=ORIENTED_EDGE('',*,*,#431,.T.);
#560=ORIENTED_EDGE('',*,*,#430,.F.);
#561=ORIENTED_EDGE('',*,*,#431,.F.);
#562=ORIENTED_EDGE('',*,*,#432,.F.);
#563=ORIENTED_EDGE('',*,*,#433,.T.);
#564=ORIENTED_EDGE('',*,*,#434,.T.);
#565=ORIENTED_EDGE('',*,*,#433,.F.);
#566=ORIENTED_EDGE('',*,*,#434,.F.);
#567=ORIENTED_EDGE('',*,*,#435,.F.);
#568=ORIENTED_EDGE('',*,*,#436,.T.);
#569=ORIENTED_EDGE('',*,*,#437,.T.);
#570=ORIENTED_EDGE('',*,*,#436,.F.);
#571=ORIENTED_EDGE('',*,*,#437,.F.);
#572=ORIENTED_EDGE('',*,*,#438,.F.);
#573=ORIENTED_EDGE('',*,*,#439,.T.);
#574=ORIENTED_EDGE('',*,*,#440,.T.);
#575=ORIENTED_EDGE('',*,*,#439,.F.);
#576=ORIENTED_EDGE('',*,*,#440,.F.);
#577=ORIENTED_EDGE('',*,*,#441,.T.);
#578=ORIENTED_EDGE('',*,*,#442,.T.);
#579=ORIENTED_EDGE('',*,*,#443,.T.);
#580=ORIENTED_EDGE('',*,*,#444,.T.);
#581=ORIENTED_EDGE('',*,*,#444,.F.);
#582=ORIENTED_EDGE('',*,*,#445,.T.);
#583=ORIENTED_EDGE('',*,*,#446,.F.);
#584=ORIENTED_EDGE('',*,*,#447,.F.);
#585=ORIENTED_EDGE('',*,*,#443,.F.);
#586=ORIENTED_EDGE('',*,*,#448,.F.);
#587=ORIENTED_EDGE('',*,*,#449,.F.);
#588=ORIENTED_EDGE('',*,*,#450,.F.);
#589=ORIENTED_EDGE('',*,*,#451,.F.);
#590=ORIENTED_EDGE('',*,*,#452,.F.);
#591=ORIENTED_EDGE('',*,*,#453,.F.);
#592=ORIENTED_EDGE('',*,*,#445,.F.);
#593=ORIENTED_EDGE('',*,*,#454,.T.);
#594=ORIENTED_EDGE('',*,*,#455,.T.);
#595=ORIENTED_EDGE('',*,*,#449,.T.);
#596=ORIENTED_EDGE('',*,*,#456,.T.);
#597=ORIENTED_EDGE('',*,*,#455,.F.);
#598=ORIENTED_EDGE('',*,*,#457,.F.);
#599=ORIENTED_EDGE('',*,*,#458,.F.);
#600=ORIENTED_EDGE('',*,*,#450,.T.);
#601=ORIENTED_EDGE('',*,*,#423,.T.);
#602=ORIENTED_EDGE('',*,*,#426,.T.);
#603=ORIENTED_EDGE('',*,*,#459,.T.);
#604=ORIENTED_EDGE('',*,*,#460,.T.);
#605=ORIENTED_EDGE('',*,*,#451,.T.);
#606=ORIENTED_EDGE('',*,*,#458,.T.);
#607=ORIENTED_EDGE('',*,*,#461,.T.);
#608=ORIENTED_EDGE('',*,*,#446,.T.);
#609=ORIENTED_EDGE('',*,*,#453,.T.);
#610=ORIENTED_EDGE('',*,*,#462,.T.);
#611=ORIENTED_EDGE('',*,*,#441,.F.);
#612=ORIENTED_EDGE('',*,*,#447,.T.);
#613=ORIENTED_EDGE('',*,*,#461,.F.);
#614=ORIENTED_EDGE('',*,*,#463,.T.);
#615=ORIENTED_EDGE('',*,*,#464,.T.);
#616=ORIENTED_EDGE('',*,*,#465,.T.);
#617=ORIENTED_EDGE('',*,*,#466,.T.);
#618=ORIENTED_EDGE('',*,*,#467,.T.);
#619=ORIENTED_EDGE('',*,*,#468,.T.);
#620=ORIENTED_EDGE('',*,*,#469,.T.);
#621=ORIENTED_EDGE('',*,*,#470,.T.);
#622=ORIENTED_EDGE('',*,*,#471,.T.);
#623=ORIENTED_EDGE('',*,*,#459,.F.);
#624=ORIENTED_EDGE('',*,*,#457,.T.);
#625=ORIENTED_EDGE('',*,*,#454,.F.);
#626=ORIENTED_EDGE('',*,*,#472,.T.);
#627=ORIENTED_EDGE('',*,*,#429,.T.);
#628=ORIENTED_EDGE('',*,*,#432,.T.);
#629=ORIENTED_EDGE('',*,*,#435,.T.);
#630=ORIENTED_EDGE('',*,*,#438,.T.);
#631=ORIENTED_EDGE('',*,*,#473,.F.);
#632=ORIENTED_EDGE('',*,*,#474,.T.);
#633=ORIENTED_EDGE('',*,*,#475,.T.);
#634=ORIENTED_EDGE('',*,*,#476,.T.);
#635=ORIENTED_EDGE('',*,*,#477,.T.);
#636=ORIENTED_EDGE('',*,*,#473,.T.);
#637=ORIENTED_EDGE('',*,*,#478,.T.);
#638=ORIENTED_EDGE('',*,*,#479,.F.);
#639=ORIENTED_EDGE('',*,*,#480,.F.);
#640=ORIENTED_EDGE('',*,*,#481,.F.);
#641=ORIENTED_EDGE('',*,*,#482,.F.);
#642=ORIENTED_EDGE('',*,*,#483,.F.);
#643=ORIENTED_EDGE('',*,*,#484,.F.);
#644=ORIENTED_EDGE('',*,*,#478,.F.);
#645=ORIENTED_EDGE('',*,*,#476,.F.);
#646=ORIENTED_EDGE('',*,*,#485,.F.);
#647=ORIENTED_EDGE('',*,*,#486,.F.);
#648=ORIENTED_EDGE('',*,*,#487,.T.);
#649=ORIENTED_EDGE('',*,*,#474,.F.);
#650=ORIENTED_EDGE('',*,*,#477,.F.);
#651=ORIENTED_EDGE('',*,*,#486,.T.);
#652=ORIENTED_EDGE('',*,*,#483,.T.);
#653=ORIENTED_EDGE('',*,*,#488,.T.);
#654=ORIENTED_EDGE('',*,*,#465,.F.);
#655=ORIENTED_EDGE('',*,*,#489,.F.);
#656=ORIENTED_EDGE('',*,*,#490,.F.);
#657=ORIENTED_EDGE('',*,*,#491,.T.);
#658=ORIENTED_EDGE('',*,*,#492,.F.);
#659=ORIENTED_EDGE('',*,*,#485,.T.);
#660=ORIENTED_EDGE('',*,*,#475,.F.);
#661=ORIENTED_EDGE('',*,*,#487,.F.);
#662=ORIENTED_EDGE('',*,*,#490,.T.);
#663=ORIENTED_EDGE('',*,*,#489,.T.);
#664=ORIENTED_EDGE('',*,*,#464,.F.);
#665=ORIENTED_EDGE('',*,*,#493,.F.);
#666=ORIENTED_EDGE('',*,*,#492,.T.);
#667=ORIENTED_EDGE('',*,*,#494,.T.);
#668=ORIENTED_EDGE('',*,*,#470,.F.);
#669=ORIENTED_EDGE('',*,*,#495,.F.);
#670=ORIENTED_EDGE('',*,*,#482,.T.);
#671=ORIENTED_EDGE('',*,*,#496,.T.);
#672=ORIENTED_EDGE('',*,*,#466,.F.);
#673=ORIENTED_EDGE('',*,*,#488,.F.);
#674=ORIENTED_EDGE('',*,*,#442,.F.);
#675=ORIENTED_EDGE('',*,*,#472,.F.);
#676=ORIENTED_EDGE('',*,*,#456,.F.);
#677=ORIENTED_EDGE('',*,*,#448,.T.);
#678=ORIENTED_EDGE('',*,*,#484,.T.);
#679=ORIENTED_EDGE('',*,*,#495,.T.);
#680=ORIENTED_EDGE('',*,*,#469,.F.);
#681=ORIENTED_EDGE('',*,*,#497,.F.);
#682=ORIENTED_EDGE('',*,*,#479,.T.);
#683=ORIENTED_EDGE('',*,*,#480,.T.);
#684=ORIENTED_EDGE('',*,*,#497,.T.);
#685=ORIENTED_EDGE('',*,*,#468,.F.);
#686=ORIENTED_EDGE('',*,*,#498,.F.);
#687=ORIENTED_EDGE('',*,*,#481,.T.);
#688=ORIENTED_EDGE('',*,*,#498,.T.);
#689=ORIENTED_EDGE('',*,*,#467,.F.);
#690=ORIENTED_EDGE('',*,*,#496,.F.);
#691=ORIENTED_EDGE('',*,*,#460,.F.);
#692=ORIENTED_EDGE('',*,*,#471,.F.);
#693=ORIENTED_EDGE('',*,*,#494,.F.);
#694=ORIENTED_EDGE('',*,*,#491,.F.);
#695=ORIENTED_EDGE('',*,*,#493,.T.);
#696=ORIENTED_EDGE('',*,*,#463,.F.);
#697=ORIENTED_EDGE('',*,*,#462,.F.);
#698=ORIENTED_EDGE('',*,*,#452,.T.);
#699=PLANE('',#807);
#700=PLANE('',#814);
#701=PLANE('',#815);
#702=PLANE('',#816);
#703=PLANE('',#823);
#704=PLANE('',#824);
#705=PLANE('',#825);
#706=PLANE('',#827);
#707=PLANE('',#833);
#708=PLANE('',#834);
#709=PLANE('',#841);
#710=PLANE('',#842);
#711=PLANE('',#846);
#712=PLANE('',#850);
#713=PLANE('',#854);
#714=PLANE('',#858);
#715=PLANE('',#862);
#716=PLANE('',#866);
#717=PLANE('',#870);
#718=PLANE('',#871);
#719=PLANE('',#877);
#720=PLANE('',#882);
#721=PLANE('',#883);
#722=PLANE('',#884);
#723=PLANE('',#885);
#724=PLANE('',#886);
#725=PLANE('',#887);
#726=PLANE('',#888);
#727=PLANE('',#889);
#728=PLANE('',#890);
#729=PLANE('',#891);
#730=PLANE('',#892);
#731=PLANE('',#893);
#732=PLANE('',#894);
#733=PLANE('',#895);
#734=PLANE('',#896);
#735=ADVANCED_FACE('',(#183),#699,.F.);
#736=ADVANCED_FACE('',(#184),#165,.F.);
#737=ADVANCED_FACE('',(#185),#166,.T.);
#738=ADVANCED_FACE('',(#186,#27),#700,.T.);
#739=ADVANCED_FACE('',(#187),#701,.T.);
#740=ADVANCED_FACE('',(#188),#702,.F.);
#741=ADVANCED_FACE('',(#189),#167,.F.);
#742=ADVANCED_FACE('',(#190),#168,.T.);
#743=ADVANCED_FACE('',(#191,#28),#703,.T.);
#744=ADVANCED_FACE('',(#192),#704,.T.);
#745=ADVANCED_FACE('',(#193),#705,.T.);
#746=ADVANCED_FACE('',(#194,#29),#706,.T.);
#747=ADVANCED_FACE('',(#195),#169,.T.);
#748=ADVANCED_FACE('',(#196),#170,.F.);
#749=ADVANCED_FACE('',(#197),#707,.F.);
#750=ADVANCED_FACE('',(#198),#708,.F.);
#751=ADVANCED_FACE('',(#199),#171,.F.);
#752=ADVANCED_FACE('',(#200),#172,.T.);
#753=ADVANCED_FACE('',(#201,#30),#709,.T.);
#754=ADVANCED_FACE('',(#202),#710,.T.);
#755=ADVANCED_FACE('',(#203),#173,.F.);
#756=ADVANCED_FACE('',(#204),#711,.F.);
#757=ADVANCED_FACE('',(#205),#174,.F.);
#758=ADVANCED_FACE('',(#206),#712,.F.);
#759=ADVANCED_FACE('',(#207),#175,.F.);
#760=ADVANCED_FACE('',(#208),#713,.T.);
#761=ADVANCED_FACE('',(#209),#176,.F.);
#762=ADVANCED_FACE('',(#210),#714,.T.);
#763=ADVANCED_FACE('',(#211),#177,.F.);
#764=ADVANCED_FACE('',(#212),#715,.T.);
#765=ADVANCED_FACE('',(#213),#178,.F.);
#766=ADVANCED_FACE('',(#214),#716,.T.);
#767=ADVANCED_FACE('',(#215),#179,.T.);
#768=ADVANCED_FACE('',(#216),#717,.T.);
#769=ADVANCED_FACE('',(#217),#718,.F.);
#770=ADVANCED_FACE('',(#218),#180,.T.);
#771=ADVANCED_FACE('',(#219,#31,#32),#719,.T.);
#772=ADVANCED_FACE('',(#220),#181,.T.);
#773=ADVANCED_FACE('',(#221),#182,.T.);
#774=ADVANCED_FACE('',(#222,#33,#34,#35,#36),#720,.T.);
#775=ADVANCED_FACE('',(#223),#721,.T.);
#776=ADVANCED_FACE('',(#224),#722,.T.);
#777=ADVANCED_FACE('',(#225),#723,.T.);
#778=ADVANCED_FACE('',(#226),#724,.T.);
#779=ADVANCED_FACE('',(#227),#725,.T.);
#780=ADVANCED_FACE('',(#228),#726,.T.);
#781=ADVANCED_FACE('',(#229),#727,.T.);
#782=ADVANCED_FACE('',(#230),#728,.T.);
#783=ADVANCED_FACE('',(#231),#729,.T.);
#784=ADVANCED_FACE('',(#232),#730,.T.);
#785=ADVANCED_FACE('',(#233),#731,.T.);
#786=ADVANCED_FACE('',(#234),#732,.T.);
#787=ADVANCED_FACE('',(#235),#733,.T.);
#788=ADVANCED_FACE('',(#236),#734,.T.);
#789=CLOSED_SHELL('',(#735,#736,#737,#738,#739));
#790=CLOSED_SHELL('',(#740,#741,#742,#743,#744));
#791=CLOSED_SHELL('',(#745,#746,#747,#748,#749));
#792=CLOSED_SHELL('',(#750,#751,#752,#753,#754));
#793=CLOSED_SHELL('',(#755,#756,#757,#758,#759,#760,#761,#762,#763,#764,
#765,#766,#767,#768,#769,#770,#771,#772,#773,#774,#775,#776,#777,#778,#779,
#780,#781,#782,#783,#784,#785,#786,#787,#788));
#794=DERIVED_UNIT_ELEMENT(#796,1.);
#795=DERIVED_UNIT_ELEMENT(#1369,-3.);
#796=(
MASS_UNIT()
NAMED_UNIT(*)
SI_UNIT(.KILO.,.GRAM.)
);
#797=DERIVED_UNIT((#794,#795));
#798=MEASURE_REPRESENTATION_ITEM('density measure',
POSITIVE_RATIO_MEASURE(7850.),#797);
#799=PROPERTY_DEFINITION_REPRESENTATION(#804,#801);
#800=PROPERTY_DEFINITION_REPRESENTATION(#805,#802);
#801=REPRESENTATION('material name',(#803),#1366);
#802=REPRESENTATION('density',(#798),#1366);
#803=DESCRIPTIVE_REPRESENTATION_ITEM('Steel','Steel');
#804=PROPERTY_DEFINITION('material property','material name',#1376);
#805=PROPERTY_DEFINITION('material property','density of part',#1376);
#806=AXIS2_PLACEMENT_3D('',#1143,#897,#898);
#807=AXIS2_PLACEMENT_3D('',#1144,#899,#900);
#808=AXIS2_PLACEMENT_3D('',#1146,#901,#902);
#809=AXIS2_PLACEMENT_3D('',#1147,#903,#904);
#810=AXIS2_PLACEMENT_3D('',#1149,#905,#906);
#811=AXIS2_PLACEMENT_3D('',#1152,#908,#909);
#812=AXIS2_PLACEMENT_3D('',#1153,#910,#911);
#813=AXIS2_PLACEMENT_3D('',#1155,#912,#913);
#814=AXIS2_PLACEMENT_3D('',#1157,#915,#916);
#815=AXIS2_PLACEMENT_3D('',#1158,#917,#918);
#816=AXIS2_PLACEMENT_3D('',#1159,#919,#920);
#817=AXIS2_PLACEMENT_3D('',#1161,#921,#922);
#818=AXIS2_PLACEMENT_3D('',#1162,#923,#924);
#819=AXIS2_PLACEMENT_3D('',#1164,#925,#926);
#820=AXIS2_PLACEMENT_3D('',#1167,#928,#929);
#821=AXIS2_PLACEMENT_3D('',#1168,#930,#931);
#822=AXIS2_PLACEMENT_3D('',#1170,#932,#933);
#823=AXIS2_PLACEMENT_3D('',#1172,#935,#936);
#824=AXIS2_PLACEMENT_3D('',#1173,#937,#938);
#825=AXIS2_PLACEMENT_3D('',#1174,#939,#940);
#826=AXIS2_PLACEMENT_3D('',#1176,#941,#942);
#827=AXIS2_PLACEMENT_3D('',#1177,#943,#944);
#828=AXIS2_PLACEMENT_3D('',#1179,#945,#946);
#829=AXIS2_PLACEMENT_3D('',#1181,#947,#948);
#830=AXIS2_PLACEMENT_3D('',#1182,#949,#950);
#831=AXIS2_PLACEMENT_3D('',#1185,#952,#953);
#832=AXIS2_PLACEMENT_3D('',#1186,#954,#955);
#833=AXIS2_PLACEMENT_3D('',#1188,#957,#958);
#834=AXIS2_PLACEMENT_3D('',#1189,#959,#960);
#835=AXIS2_PLACEMENT_3D('',#1191,#961,#962);
#836=AXIS2_PLACEMENT_3D('',#1192,#963,#964);
#837=AXIS2_PLACEMENT_3D('',#1194,#965,#966);
#838=AXIS2_PLACEMENT_3D('',#1197,#968,#969);
#839=AXIS2_PLACEMENT_3D('',#1198,#970,#971);
#840=AXIS2_PLACEMENT_3D('',#1200,#972,#973);
#841=AXIS2_PLACEMENT_3D('',#1202,#975,#976);
#842=AXIS2_PLACEMENT_3D('',#1203,#977,#978);
#843=AXIS2_PLACEMENT_3D('',#1204,#979,#980);
#844=AXIS2_PLACEMENT_3D('',#1206,#981,#982);
#845=AXIS2_PLACEMENT_3D('',#1209,#984,#985);
#846=AXIS2_PLACEMENT_3D('',#1210,#986,#987);
#847=AXIS2_PLACEMENT_3D('',#1211,#988,#989);
#848=AXIS2_PLACEMENT_3D('',#1213,#990,#991);
#849=AXIS2_PLACEMENT_3D('',#1216,#993,#994);
#850=AXIS2_PLACEMENT_3D('',#1217,#995,#996);
#851=AXIS2_PLACEMENT_3D('',#1218,#997,#998);
#852=AXIS2_PLACEMENT_3D('',#1220,#999,#1000);
#853=AXIS2_PLACEMENT_3D('',#1223,#1002,#1003);
#854=AXIS2_PLACEMENT_3D('',#1224,#1004,#1005);
#855=AXIS2_PLACEMENT_3D('',#1225,#1006,#1007);
#856=AXIS2_PLACEMENT_3D('',#1227,#1008,#1009);
#857=AXIS2_PLACEMENT_3D('',#1230,#1011,#1012);
#858=AXIS2_PLACEMENT_3D('',#1231,#1013,#1014);
#859=AXIS2_PLACEMENT_3D('',#1232,#1015,#1016);
#860=AXIS2_PLACEMENT_3D('',#1234,#1017,#1018);
#861=AXIS2_PLACEMENT_3D('',#1237,#1020,#1021);
#862=AXIS2_PLACEMENT_3D('',#1238,#1022,#1023);
#863=AXIS2_PLACEMENT_3D('',#1239,#1024,#1025);
#864=AXIS2_PLACEMENT_3D('',#1241,#1026,#1027);
#865=AXIS2_PLACEMENT_3D('',#1244,#1029,#1030);
#866=AXIS2_PLACEMENT_3D('',#1245,#1031,#1032);
#867=AXIS2_PLACEMENT_3D('',#1246,#1033,#1034);
#868=AXIS2_PLACEMENT_3D('',#1249,#1035,#1036);
#869=AXIS2_PLACEMENT_3D('',#1253,#1038,#1039);
#870=AXIS2_PLACEMENT_3D('',#1255,#1041,#1042);
#871=AXIS2_PLACEMENT_3D('',#1261,#1046,#1047);
#872=AXIS2_PLACEMENT_3D('',#1265,#1049,#1050);
#873=AXIS2_PLACEMENT_3D('',#1269,#1052,#1053);
#874=AXIS2_PLACEMENT_3D('',#1272,#1055,#1056);
#875=AXIS2_PLACEMENT_3D('',#1273,#1057,#1058);
#876=AXIS2_PLACEMENT_3D('',#1276,#1059,#1060);
#877=AXIS2_PLACEMENT_3D('',#1279,#1063,#1064);
#878=AXIS2_PLACEMENT_3D('',#1283,#1067,#1068);
#879=AXIS2_PLACEMENT_3D('',#1285,#1069,#1070);
#880=AXIS2_PLACEMENT_3D('',#1287,#1072,#1073);
#881=AXIS2_PLACEMENT_3D('',#1289,#1074,#1075);
#882=AXIS2_PLACEMENT_3D('',#1291,#1077,#1078);
#883=AXIS2_PLACEMENT_3D('',#1310,#1089,#1090);
#884=AXIS2_PLACEMENT_3D('',#1319,#1095,#1096);
#885=AXIS2_PLACEMENT_3D('',#1333,#1104,#1105);
#886=AXIS2_PLACEMENT_3D('',#1337,#1108,#1109);
#887=AXIS2_PLACEMENT_3D('',#1341,#1112,#1113);
#888=AXIS2_PLACEMENT_3D('',#1344,#1116,#1117);
#889=AXIS2_PLACEMENT_3D('',#1350,#1121,#1122);
#890=AXIS2_PLACEMENT_3D('',#1352,#1124,#1125);
#891=AXIS2_PLACEMENT_3D('',#1355,#1128,#1129);
#892=AXIS2_PLACEMENT_3D('',#1357,#1131,#1132);
#893=AXIS2_PLACEMENT_3D('',#1358,#1133,#1134);
#894=AXIS2_PLACEMENT_3D('',#1360,#1136,#1137);
#895=AXIS2_PLACEMENT_3D('',#1362,#1139,#1140);
#896=AXIS2_PLACEMENT_3D('',#1363,#1141,#1142);
#897=DIRECTION('axis',(0.,0.,1.));
#898=DIRECTION('refdir',(1.,0.,0.));
#899=DIRECTION('center_axis',(0.,0.,1.));
#900=DIRECTION('ref_axis',(1.,0.,0.));
#901=DIRECTION('center_axis',(0.,0.,-1.));
#902=DIRECTION('ref_axis',(-1.,0.,0.));
#903=DIRECTION('center_axis',(0.,0.,1.));
#904=DIRECTION('ref_axis',(-1.,0.,0.));
#905=DIRECTION('center_axis',(0.,0.,-1.));
#906=DIRECTION('ref_axis',(-1.,0.,0.));
#907=DIRECTION('',(0.,0.,-1.));
#908=DIRECTION('center_axis',(0.,0.,1.));
#909=DIRECTION('ref_axis',(-1.,0.,0.));
#910=DIRECTION('center_axis',(0.,0.,1.));
#911=DIRECTION('ref_axis',(-1.,0.,0.));
#912=DIRECTION('center_axis',(0.,0.,1.));
#913=DIRECTION('ref_axis',(-1.,0.,0.));
#914=DIRECTION('',(0.,0.,-1.));
#915=DIRECTION('center_axis',(0.,0.,1.));
#916=DIRECTION('ref_axis',(-1.,0.,0.));
#917=DIRECTION('center_axis',(0.,0.,1.));
#918=DIRECTION('ref_axis',(1.,0.,0.));
#919=DIRECTION('center_axis',(0.,0.,1.));
#920=DIRECTION('ref_axis',(1.,0.,0.));
#921=DIRECTION('center_axis',(0.,0.,-1.));
#922=DIRECTION('ref_axis',(-1.,0.,0.));
#923=DIRECTION('center_axis',(0.,0.,1.));
#924=DIRECTION('ref_axis',(-1.,0.,0.));
#925=DIRECTION('center_axis',(0.,0.,-1.));
#926=DIRECTION('ref_axis',(-1.,0.,0.));
#927=DIRECTION('',(0.,0.,-1.));
#928=DIRECTION('center_axis',(0.,0.,1.));
#929=DIRECTION('ref_axis',(-1.,0.,0.));
#930=DIRECTION('center_axis',(0.,0.,1.));
#931=DIRECTION('ref_axis',(-1.,0.,0.));
#932=DIRECTION('center_axis',(0.,0.,1.));
#933=DIRECTION('ref_axis',(-1.,0.,0.));
#934=DIRECTION('',(0.,0.,-1.));
#935=DIRECTION('center_axis',(0.,0.,1.));
#936=DIRECTION('ref_axis',(-1.,0.,0.));
#937=DIRECTION('center_axis',(0.,0.,1.));
#938=DIRECTION('ref_axis',(1.,0.,0.));
#939=DIRECTION('center_axis',(0.,0.,1.));
#940=DIRECTION('ref_axis',(1.,0.,0.));
#941=DIRECTION('center_axis',(0.,0.,1.));
#942=DIRECTION('ref_axis',(-1.,0.,0.));
#943=DIRECTION('center_axis',(0.,0.,1.));
#944=DIRECTION('ref_axis',(-1.,0.,0.));
#945=DIRECTION('center_axis',(0.,0.,1.));
#946=DIRECTION('ref_axis',(-1.,0.,0.));
#947=DIRECTION('center_axis',(0.,0.,-1.));
#948=DIRECTION('ref_axis',(-1.,0.,0.));
#949=DIRECTION('center_axis',(0.,0.,1.));
#950=DIRECTION('ref_axis',(-1.,0.,0.));
#951=DIRECTION('',(0.,0.,-1.));
#952=DIRECTION('center_axis',(0.,0.,-1.));
#953=DIRECTION('ref_axis',(-1.,0.,0.));
#954=DIRECTION('center_axis',(0.,0.,1.));
#955=DIRECTION('ref_axis',(-1.,0.,0.));
#956=DIRECTION('',(0.,0.,-1.));
#957=DIRECTION('center_axis',(0.,0.,1.));
#958=DIRECTION('ref_axis',(1.,0.,0.));
#959=DIRECTION('center_axis',(0.,0.,1.));
#960=DIRECTION('ref_axis',(1.,0.,0.));
#961=DIRECTION('center_axis',(0.,0.,-1.));
#962=DIRECTION('ref_axis',(-1.,0.,0.));
#963=DIRECTION('center_axis',(0.,0.,1.));
#964=DIRECTION('ref_axis',(-1.,0.,0.));
#965=DIRECTION('center_axis',(0.,0.,-1.));
#966=DIRECTION('ref_axis',(-1.,0.,0.));
#967=DIRECTION('',(0.,0.,-1.));
#968=DIRECTION('center_axis',(0.,0.,1.));
#969=DIRECTION('ref_axis',(-1.,0.,0.));
#970=DIRECTION('center_axis',(0.,0.,1.));
#971=DIRECTION('ref_axis',(-1.,0.,0.));
#972=DIRECTION('center_axis',(0.,0.,1.));
#973=DIRECTION('ref_axis',(-1.,0.,0.));
#974=DIRECTION('',(0.,0.,-1.));
#975=DIRECTION('center_axis',(0.,0.,1.));
#976=DIRECTION('ref_axis',(-1.,0.,0.));
#977=DIRECTION('center_axis',(0.,0.,1.));
#978=DIRECTION('ref_axis',(1.,0.,0.));
#979=DIRECTION('center_axis',(1.,0.,0.));
#980=DIRECTION('ref_axis',(0.,1.,0.));
#981=DIRECTION('center_axis',(1.,0.,0.));
#982=DIRECTION('ref_axis',(0.,1.,0.));
#983=DIRECTION('',(1.,0.,0.));
#984=DIRECTION('center_axis',(1.,0.,0.));
#985=DIRECTION('ref_axis',(0.,1.,0.));
#986=DIRECTION('center_axis',(1.,0.,0.));
#987=DIRECTION('ref_axis',(0.,1.,0.));
#988=DIRECTION('center_axis',(1.,0.,0.));
#989=DIRECTION('ref_axis',(0.,1.,0.));
#990=DIRECTION('center_axis',(1.,0.,0.));
#991=DIRECTION('ref_axis',(0.,1.,0.));
#992=DIRECTION('',(1.,0.,0.));
#993=DIRECTION('center_axis',(1.,0.,0.));
#994=DIRECTION('ref_axis',(0.,1.,0.));
#995=DIRECTION('center_axis',(1.,0.,0.));
#996=DIRECTION('ref_axis',(0.,1.,0.));
#997=DIRECTION('center_axis',(0.,0.,-1.));
#998=DIRECTION('ref_axis',(-1.,0.,0.));
#999=DIRECTION('center_axis',(0.,0.,-1.));
#1000=DIRECTION('ref_axis',(-1.,0.,0.));
#1001=DIRECTION('',(0.,0.,-1.));
#1002=DIRECTION('center_axis',(0.,0.,-1.));
#1003=DIRECTION('ref_axis',(-1.,0.,0.));
#1004=DIRECTION('center_axis',(0.,0.,1.));
#1005=DIRECTION('ref_axis',(-1.,0.,0.));
#1006=DIRECTION('center_axis',(0.,0.,-1.));
#1007=DIRECTION('ref_axis',(-1.,0.,0.));
#1008=DIRECTION('center_axis',(0.,0.,-1.));
#1009=DIRECTION('ref_axis',(-1.,0.,0.));
#1010=DIRECTION('',(0.,0.,-1.));
#1011=DIRECTION('center_axis',(0.,0.,-1.));
#1012=DIRECTION('ref_axis',(-1.,0.,0.));
#1013=DIRECTION('center_axis',(0.,0.,1.));
#1014=DIRECTION('ref_axis',(-1.,0.,0.));
#1015=DIRECTION('center_axis',(0.,0.,-1.));
#1016=DIRECTION('ref_axis',(-1.,0.,0.));
#1017=DIRECTION('center_axis',(0.,0.,-1.));
#1018=DIRECTION('ref_axis',(-1.,0.,0.));
#1019=DIRECTION('',(0.,0.,-1.));
#1020=DIRECTION('center_axis',(0.,0.,-1.));
#1021=DIRECTION('ref_axis',(-1.,0.,0.));
#1022=DIRECTION('center_axis',(0.,0.,1.));
#1023=DIRECTION('ref_axis',(-1.,0.,0.));
#1024=DIRECTION('center_axis',(0.,0.,-1.));
#1025=DIRECTION('ref_axis',(-1.,0.,0.));
#1026=DIRECTION('center_axis',(0.,0.,-1.));
#1027=DIRECTION('ref_axis',(-1.,0.,0.));
#1028=DIRECTION('',(0.,0.,-1.));
#1029=DIRECTION('center_axis',(0.,0.,-1.));
#1030=DIRECTION('ref_axis',(-1.,0.,0.));
#1031=DIRECTION('center_axis',(0.,0.,1.));
#1032=DIRECTION('ref_axis',(-1.,0.,0.));
#1033=DIRECTION('center_axis',(0.,0.,1.));
#1034=DIRECTION('ref_axis',(0.707106781186547,-0.707106781186547,0.));
#1035=DIRECTION('center_axis',(0.,0.,-1.));
#1036=DIRECTION('ref_axis',(0.707106781186547,-0.707106781186547,0.));
#1037=DIRECTION('',(0.,0.,-1.));
#1038=DIRECTION('center_axis',(0.,0.0174524064372835,0.999847695156391));
#1039=DIRECTION('ref_axis',(0.,-0.999847695156391,0.0174524064372835));
#1040=DIRECTION('',(0.,0.,1.));
#1041=DIRECTION('center_axis',(1.,0.,0.));
#1042=DIRECTION('ref_axis',(0.,1.,0.));
#1043=DIRECTION('',(0.,0.999847695156391,-0.0174524064372835));
#1044=DIRECTION('',(0.,0.,-1.));
#1045=DIRECTION('',(0.,1.,0.));
#1046=DIRECTION('center_axis',(0.,0.0174524064372835,0.999847695156391));
#1047=DIRECTION('ref_axis',(1.,0.,0.));
#1048=DIRECTION('',(1.,0.,0.));
#1049=DIRECTION('center_axis',(0.,0.0174524064372835,0.999847695156391));
#1050=DIRECTION('ref_axis',(0.,-0.999847695156391,0.0174524064372835));
#1051=DIRECTION('',(0.,-0.999847695156391,0.0174524064372835));
#1052=DIRECTION('center_axis',(0.,0.0174524064372835,0.999847695156391));
#1053=DIRECTION('ref_axis',(0.,0.999847695156391,-0.0174524064372835));
#1054=DIRECTION('',(-1.,0.,0.));
#1055=DIRECTION('center_axis',(0.,0.0174524064372835,0.999847695156391));
#1056=DIRECTION('ref_axis',(0.,0.999847695156391,-0.0174524064372835));
#1057=DIRECTION('center_axis',(0.,0.,1.));
#1058=DIRECTION('ref_axis',(-0.707106781186547,-0.707106781186547,0.));
#1059=DIRECTION('center_axis',(0.,0.,-1.));
#1060=DIRECTION('ref_axis',(-0.707106781186547,-0.707106781186547,0.));
#1061=DIRECTION('',(0.,0.,-1.));
#1062=DIRECTION('',(0.,0.,1.));
#1063=DIRECTION('center_axis',(-1.,0.,0.));
#1064=DIRECTION('ref_axis',(0.,-1.,0.));
#1065=DIRECTION('',(0.,-1.,0.));
#1066=DIRECTION('',(0.,0.,1.));
#1067=DIRECTION('center_axis',(0.,0.,1.));
#1068=DIRECTION('ref_axis',(-0.707106781186547,0.707106781186547,0.));
#1069=DIRECTION('center_axis',(0.,0.,-1.));
#1070=DIRECTION('ref_axis',(-0.707106781186547,0.707106781186547,0.));
#1071=DIRECTION('',(0.,0.,-1.));
#1072=DIRECTION('center_axis',(0.,0.,1.));
#1073=DIRECTION('ref_axis',(0.707106781186547,0.707106781186547,0.));
#1074=DIRECTION('center_axis',(0.,0.,-1.));
#1075=DIRECTION('ref_axis',(0.707106781186547,0.707106781186547,0.));
#1076=DIRECTION('',(0.,0.,1.));
#1077=DIRECTION('center_axis',(0.,0.,1.));
#1078=DIRECTION('ref_axis',(1.,0.,0.));
#1079=DIRECTION('',(-1.,0.,0.));
#1080=DIRECTION('',(0.,-1.,0.));
#1081=DIRECTION('',(1.,0.,0.));
#1082=DIRECTION('',(0.,-1.,0.));
#1083=DIRECTION('',(-1.,0.,0.));
#1084=DIRECTION('',(0.,1.,0.));
#1085=DIRECTION('',(1.,0.,0.));
#1086=DIRECTION('',(0.,1.,0.));
#1087=DIRECTION('',(-1.,0.,0.));
#1088=DIRECTION('',(1.,0.,0.));
#1089=DIRECTION('center_axis',(0.,-1.,0.));
#1090=DIRECTION('ref_axis',(0.,0.,-1.));
#1091=DIRECTION('',(-1.,0.,0.));
#1092=DIRECTION('',(0.,0.,1.));
#1093=DIRECTION('',(-1.,0.,0.));
#1094=DIRECTION('',(0.,0.,-1.));
#1095=DIRECTION('center_axis',(0.,0.,1.));
#1096=DIRECTION('ref_axis',(1.,0.,0.));
#1097=DIRECTION('',(0.,-1.,0.));
#1098=DIRECTION('',(0.,1.,0.));
#1099=DIRECTION('',(1.,0.,0.));
#1100=DIRECTION('',(0.,1.,0.));
#1101=DIRECTION('',(-1.,0.,0.));
#1102=DIRECTION('',(0.,-1.,0.));
#1103=DIRECTION('',(1.,0.,0.));
#1104=DIRECTION('center_axis',(-1.,0.,0.));
#1105=DIRECTION('ref_axis',(0.,0.,-1.));
#1106=DIRECTION('',(0.,0.,1.));
#1107=DIRECTION('',(0.,-1.,0.));
#1108=DIRECTION('center_axis',(1.,0.,0.));
#1109=DIRECTION('ref_axis',(0.,0.,1.));
#1110=DIRECTION('',(0.,0.,-1.));
#1111=DIRECTION('',(0.,-1.,0.));
#1112=DIRECTION('center_axis',(0.,-1.,0.));
#1113=DIRECTION('ref_axis',(1.,0.,0.));
#1114=DIRECTION('',(0.,0.,1.));
#1115=DIRECTION('',(0.,0.,1.));
#1116=DIRECTION('center_axis',(0.,0.,1.));
#1117=DIRECTION('ref_axis',(1.,0.,0.));
#1118=DIRECTION('',(0.,-1.,0.));
#1119=DIRECTION('',(-1.,0.,0.));
#1120=DIRECTION('',(0.,1.,0.));
#1121=DIRECTION('center_axis',(-1.,0.,0.));
#1122=DIRECTION('ref_axis',(0.,-1.,0.));
#1123=DIRECTION('',(0.,0.,1.));
#1124=DIRECTION('center_axis',(1.,0.,0.));
#1125=DIRECTION('ref_axis',(0.,1.,0.));
#1126=DIRECTION('',(0.,0.,1.));
#1127=DIRECTION('',(0.,0.,1.));
#1128=DIRECTION('center_axis',(-1.,0.,0.));
#1129=DIRECTION('ref_axis',(0.,-1.,0.));
#1130=DIRECTION('',(0.,0.,1.));
#1131=DIRECTION('center_axis',(0.,-1.,0.));
#1132=DIRECTION('ref_axis',(1.,0.,0.));
#1133=DIRECTION('center_axis',(0.,-1.,0.));
#1134=DIRECTION('ref_axis',(1.,0.,0.));
#1135=DIRECTION('',(0.,0.,1.));
#1136=DIRECTION('center_axis',(1.,0.,0.));
#1137=DIRECTION('ref_axis',(0.,1.,0.));
#1138=DIRECTION('',(0.,0.,1.));
#1139=DIRECTION('center_axis',(0.,1.,0.));
#1140=DIRECTION('ref_axis',(-1.,0.,0.));
#1141=DIRECTION('center_axis',(0.,1.,0.));
#1142=DIRECTION('ref_axis',(-1.,0.,0.));
#1143=CARTESIAN_POINT('',(0.,0.,0.));
#1144=CARTESIAN_POINT('Origin',(55.,70.0000010430813,0.));
#1145=CARTESIAN_POINT('',(15.731,12.525,0.));
#1146=CARTESIAN_POINT('Origin',(13.481,12.525,0.));
#1147=CARTESIAN_POINT('Origin',(13.481,12.525,3.));
#1148=CARTESIAN_POINT('',(15.081,12.525,7.));
#1149=CARTESIAN_POINT('Origin',(13.481,12.525,7.));
#1150=CARTESIAN_POINT('',(15.081,12.525,3.));
#1151=CARTESIAN_POINT('',(15.081,12.525,3.));
#1152=CARTESIAN_POINT('Origin',(13.481,12.525,3.));
#1153=CARTESIAN_POINT('Origin',(13.481,12.525,3.));
#1154=CARTESIAN_POINT('',(15.731,12.525,7.));
#1155=CARTESIAN_POINT('Origin',(13.481,12.525,7.));
#1156=CARTESIAN_POINT('',(15.731,12.525,3.));
#1157=CARTESIAN_POINT('Origin',(13.481,12.525,7.));
#1158=CARTESIAN_POINT('Origin',(55.,70.,3.));
#1159=CARTESIAN_POINT('Origin',(55.,70.0000010430813,0.));
#1160=CARTESIAN_POINT('',(99.075,13.319,0.));
#1161=CARTESIAN_POINT('Origin',(96.825,13.319,0.));
#1162=CARTESIAN_POINT('Origin',(96.825,13.319,3.));
#1163=CARTESIAN_POINT('',(98.425,13.319,7.));
#1164=CARTESIAN_POINT('Origin',(96.825,13.319,7.));
#1165=CARTESIAN_POINT('',(98.425,13.319,3.));
#1166=CARTESIAN_POINT('',(98.425,13.319,3.));
#1167=CARTESIAN_POINT('Origin',(96.825,13.319,3.));
#1168=CARTESIAN_POINT('Origin',(96.825,13.319,3.));
#1169=CARTESIAN_POINT('',(99.075,13.319,7.));
#1170=CARTESIAN_POINT('Origin',(96.825,13.319,7.));
#1171=CARTESIAN_POINT('',(99.075,13.319,3.));
#1172=CARTESIAN_POINT('Origin',(96.825,13.319,7.));
#1173=CARTESIAN_POINT('Origin',(55.,70.,3.));
#1174=CARTESIAN_POINT('Origin',(55.,70.,3.));
#1175=CARTESIAN_POINT('',(14.288,126.825002011657,3.));
#1176=CARTESIAN_POINT('Origin',(12.688,126.825002011657,3.));
#1177=CARTESIAN_POINT('Origin',(12.688,126.825002011657,7.));
#1178=CARTESIAN_POINT('',(14.938,126.825002011657,7.));
#1179=CARTESIAN_POINT('Origin',(12.688,126.825002011657,7.));
#1180=CARTESIAN_POINT('',(14.288,126.825002011657,7.));
#1181=CARTESIAN_POINT('Origin',(12.688,126.825002011657,7.));
#1182=CARTESIAN_POINT('Origin',(12.688,126.825002011657,3.));
#1183=CARTESIAN_POINT('',(14.938,126.825002011657,0.));
#1184=CARTESIAN_POINT('',(14.938,126.825002011657,3.));
#1185=CARTESIAN_POINT('Origin',(12.688,126.825002011657,0.));
#1186=CARTESIAN_POINT('Origin',(12.688,126.825002011657,3.));
#1187=CARTESIAN_POINT('',(14.288,126.825002011657,3.));
#1188=CARTESIAN_POINT('Origin',(55.,70.0000010430813,0.));
#1189=CARTESIAN_POINT('Origin',(55.,70.0000010430813,0.));
#1190=CARTESIAN_POINT('',(99.075,126.825,0.));
#1191=CARTESIAN_POINT('Origin',(96.825,126.825,0.));
#1192=CARTESIAN_POINT('Origin',(96.825,126.825,3.));
#1193=CARTESIAN_POINT('',(98.425,126.825,7.));
#1194=CARTESIAN_POINT('Origin',(96.825,126.825,7.));
#1195=CARTESIAN_POINT('',(98.425,126.825,3.));
#1196=CARTESIAN_POINT('',(98.425,126.825,3.));
#1197=CARTESIAN_POINT('Origin',(96.825,126.825,3.));
#1198=CARTESIAN_POINT('Origin',(96.825,126.825,3.));
#1199=CARTESIAN_POINT('',(99.075,126.825,7.));
#1200=CARTESIAN_POINT('Origin',(96.825,126.825,7.));
#1201=CARTESIAN_POINT('',(99.075,126.825,3.));
#1202=CARTESIAN_POINT('Origin',(96.825,126.825,7.));
#1203=CARTESIAN_POINT('Origin',(55.,70.,3.));
#1204=CARTESIAN_POINT('Origin',(0.,53.33,5.00000007450581));
#1205=CARTESIAN_POINT('',(0.,49.83,5.00000007450581));
#1206=CARTESIAN_POINT('Origin',(0.,53.33,5.00000007450581));
#1207=CARTESIAN_POINT('',(3.,49.83,5.00000007450581));
#1208=CARTESIAN_POINT('',(0.,49.83,5.00000007450581));
#1209=CARTESIAN_POINT('Origin',(3.,53.33,5.00000007450581));
#1210=CARTESIAN_POINT('Origin',(3.,53.33,5.00000007450581));
#1211=CARTESIAN_POINT('Origin',(0.,101.5,5.00000007450581));
#1212=CARTESIAN_POINT('',(0.,98.,5.00000007450581));
#1213=CARTESIAN_POINT('Origin',(0.,101.5,5.00000007450581));
#1214=CARTESIAN_POINT('',(3.,98.,5.00000007450581));
#1215=CARTESIAN_POINT('',(0.,98.,5.00000007450581));
#1216=CARTESIAN_POINT('Origin',(3.,101.5,5.00000007450581));
#1217=CARTESIAN_POINT('Origin',(3.,101.5,5.00000007450581));
#1218=CARTESIAN_POINT('Origin',(3.00000004470348,3.00000004470348,10.));
#1219=CARTESIAN_POINT('',(3.88770004470348,3.00000004470348,10.));
#1220=CARTESIAN_POINT('Origin',(3.00000004470348,3.00000004470348,10.));
#1221=CARTESIAN_POINT('',(3.88770004470348,3.00000004470348,6.));
#1222=CARTESIAN_POINT('',(3.88770004470348,3.00000004470348,10.));
#1223=CARTESIAN_POINT('Origin',(3.00000004470348,3.00000004470348,6.));
#1224=CARTESIAN_POINT('Origin',(3.00000004470348,3.00000004470348,6.));
#1225=CARTESIAN_POINT('Origin',(3.00000004470348,137.000002041459,10.));
#1226=CARTESIAN_POINT('',(3.88770004470348,137.000002041459,10.));
#1227=CARTESIAN_POINT('Origin',(3.00000004470348,137.000002041459,10.));
#1228=CARTESIAN_POINT('',(3.88770004470348,137.000002041459,6.));
#1229=CARTESIAN_POINT('',(3.88770004470348,137.000002041459,10.));
#1230=CARTESIAN_POINT('Origin',(3.00000004470348,137.000002041459,6.));
#1231=CARTESIAN_POINT('Origin',(3.00000004470348,137.000002041459,6.));
#1232=CARTESIAN_POINT('Origin',(107.000001594424,3.00000004470348,10.));
#1233=CARTESIAN_POINT('',(107.887701594424,3.00000004470348,10.));
#1234=CARTESIAN_POINT('Origin',(107.000001594424,3.00000004470348,10.));
#1235=CARTESIAN_POINT('',(107.887701594424,3.00000004470348,6.));
#1236=CARTESIAN_POINT('',(107.887701594424,3.00000004470348,10.));
#1237=CARTESIAN_POINT('Origin',(107.000001594424,3.00000004470348,6.));
#1238=CARTESIAN_POINT('Origin',(107.000001594424,3.00000004470348,6.));
#1239=CARTESIAN_POINT('Origin',(107.000001594424,137.000002041459,10.));
#1240=CARTESIAN_POINT('',(107.887701594424,137.000002041459,10.));
#1241=CARTESIAN_POINT('Origin',(107.000001594424,137.000002041459,10.));
#1242=CARTESIAN_POINT('',(107.887701594424,137.000002041459,6.));
#1243=CARTESIAN_POINT('',(107.887701594424,137.000002041459,10.));
#1244=CARTESIAN_POINT('Origin',(107.000001594424,137.000002041459,6.));
#1245=CARTESIAN_POINT('Origin',(107.000001594424,137.000002041459,6.));
#1246=CARTESIAN_POINT('Origin',(105.,5.,0.));
#1247=CARTESIAN_POINT('',(110.,5.,10.));
#1248=CARTESIAN_POINT('',(105.,0.,10.));
#1249=CARTESIAN_POINT('Origin',(105.,5.,10.));
#1250=CARTESIAN_POINT('',(105.,0.,0.));
#1251=CARTESIAN_POINT('',(105.,0.,0.));
#1252=CARTESIAN_POINT('',(110.,5.,-0.087275324641088));
#1253=CARTESIAN_POINT('Origin',(105.,5.,-0.087275324641088));
#1254=CARTESIAN_POINT('',(110.,5.,0.));
#1255=CARTESIAN_POINT('Origin',(110.,0.,0.));
#1256=CARTESIAN_POINT('',(110.,135.,-2.35643376530937));
#1257=CARTESIAN_POINT('',(110.,34.9946698519349,-0.610834234407062));
#1258=CARTESIAN_POINT('',(110.,135.,10.));
#1259=CARTESIAN_POINT('',(110.,135.,0.));
#1260=CARTESIAN_POINT('',(110.,0.,10.));
#1261=CARTESIAN_POINT('Origin',(55.,69.9893397038698,-1.22166846881412));
#1262=CARTESIAN_POINT('',(5.,0.,0.));
#1263=CARTESIAN_POINT('',(0.,0.,0.));
#1264=CARTESIAN_POINT('',(0.,5.,-0.087275324641088));
#1265=CARTESIAN_POINT('Origin',(5.,5.,-0.087275324641088));
#1266=CARTESIAN_POINT('',(0.,135.,-2.35643376530937));
#1267=CARTESIAN_POINT('',(-4.44089209850063E-15,104.973348797603,-1.8323166189946));
#1268=CARTESIAN_POINT('',(5.,140.,-2.44370908995046));
#1269=CARTESIAN_POINT('Origin',(5.,135.,-2.35643376530937));
#1270=CARTESIAN_POINT('',(105.,140.,-2.44370908995046));
#1271=CARTESIAN_POINT('',(65.178,140.,-2.44370908995046));
#1272=CARTESIAN_POINT('Origin',(105.,135.,-2.35643376530937));
#1273=CARTESIAN_POINT('Origin',(5.,5.,0.));
#1274=CARTESIAN_POINT('',(5.,0.,10.));
#1275=CARTESIAN_POINT('',(0.,5.,10.));
#1276=CARTESIAN_POINT('Origin',(5.,5.,10.));
#1277=CARTESIAN_POINT('',(0.,5.,0.));
#1278=CARTESIAN_POINT('',(5.,0.,0.));
#1279=CARTESIAN_POINT('Origin',(0.,140.,0.));
#1280=CARTESIAN_POINT('',(0.,135.,10.));
#1281=CARTESIAN_POINT('',(0.,140.,10.));
#1282=CARTESIAN_POINT('',(0.,135.,0.));
#1283=CARTESIAN_POINT('Origin',(5.,135.,0.));
#1284=CARTESIAN_POINT('',(5.,140.,10.));
#1285=CARTESIAN_POINT('Origin',(5.,135.,10.));
#1286=CARTESIAN_POINT('',(5.,140.,0.));
#1287=CARTESIAN_POINT('Origin',(105.,135.,0.));
#1288=CARTESIAN_POINT('',(105.,140.,10.));
#1289=CARTESIAN_POINT('Origin',(105.,135.,10.));
#1290=CARTESIAN_POINT('',(105.,140.,0.));
#1291=CARTESIAN_POINT('Origin',(55.,70.0000010430813,10.));
#1292=CARTESIAN_POINT('',(92.856,140.000002086163,10.));
#1293=CARTESIAN_POINT('',(110.,140.,10.));
#1294=CARTESIAN_POINT('',(92.856,135.,10.));
#1295=CARTESIAN_POINT('',(92.856,140.000002086163,10.));
#1296=CARTESIAN_POINT('',(105.,135.,10.));
#1297=CARTESIAN_POINT('',(105.,135.,10.));
#1298=CARTESIAN_POINT('',(105.,5.,10.));
#1299=CARTESIAN_POINT('',(105.,5.,10.));
#1300=CARTESIAN_POINT('',(5.,5.,10.));
#1301=CARTESIAN_POINT('',(5.,5.,10.));
#1302=CARTESIAN_POINT('',(5.,135.,10.));
#1303=CARTESIAN_POINT('',(5.,135.,10.));
#1304=CARTESIAN_POINT('',(75.356,135.,10.));
#1305=CARTESIAN_POINT('',(75.356,135.,10.));
#1306=CARTESIAN_POINT('',(75.356,140.000002086163,10.));
#1307=CARTESIAN_POINT('',(75.356,113.,10.));
#1308=CARTESIAN_POINT('',(110.,140.,10.));
#1309=CARTESIAN_POINT('',(0.,0.,10.));
#1310=CARTESIAN_POINT('Origin',(84.106,130.,5.755));
#1311=CARTESIAN_POINT('',(92.856,130.,3.));
#1312=CARTESIAN_POINT('',(75.356,130.,3.));
#1313=CARTESIAN_POINT('',(69.553,130.,3.));
#1314=CARTESIAN_POINT('',(92.856,130.,8.51));
#1315=CARTESIAN_POINT('',(92.856,130.,8.51));
#1316=CARTESIAN_POINT('',(75.356,130.,8.51));
#1317=CARTESIAN_POINT('',(75.356,130.,8.51));
#1318=CARTESIAN_POINT('',(75.356,130.,3.));
#1319=CARTESIAN_POINT('Origin',(55.,70.,3.));
#1320=CARTESIAN_POINT('',(92.856,135.,3.));
#1321=CARTESIAN_POINT('',(92.856,102.5,3.));
#1322=CARTESIAN_POINT('',(75.356,135.,3.));
#1323=CARTESIAN_POINT('',(75.356,102.5,3.));
#1324=CARTESIAN_POINT('',(5.,135.,3.));
#1325=CARTESIAN_POINT('',(73.928,135.,3.));
#1326=CARTESIAN_POINT('',(5.,5.,3.));
#1327=CARTESIAN_POINT('',(5.,37.5,3.));
#1328=CARTESIAN_POINT('',(105.,5.,3.));
#1329=CARTESIAN_POINT('',(80.,5.,3.));
#1330=CARTESIAN_POINT('',(105.,135.,3.));
#1331=CARTESIAN_POINT('',(105.,102.5,3.));
#1332=CARTESIAN_POINT('',(73.928,135.,3.));
#1333=CARTESIAN_POINT('Origin',(75.356,135.,8.51));
#1334=CARTESIAN_POINT('',(75.356,135.,8.51));
#1335=CARTESIAN_POINT('',(75.356,135.,4.255));
#1336=CARTESIAN_POINT('',(75.356,135.,8.51));
#1337=CARTESIAN_POINT('Origin',(92.856,135.,3.));
#1338=CARTESIAN_POINT('',(92.856,135.,8.51));
#1339=CARTESIAN_POINT('',(92.856,135.,1.5));
#1340=CARTESIAN_POINT('',(92.856,135.,8.51));
#1341=CARTESIAN_POINT('Origin',(5.,135.,0.));
#1342=CARTESIAN_POINT('',(105.,135.,0.));
#1343=CARTESIAN_POINT('',(92.856,135.,0.));
#1344=CARTESIAN_POINT('Origin',(84.106,137.500001043081,8.51));
#1345=CARTESIAN_POINT('',(92.856,140.000002086163,8.51));
#1346=CARTESIAN_POINT('',(92.856,138.750001564622,8.51));
#1347=CARTESIAN_POINT('',(75.356,140.000002086163,8.51));
#1348=CARTESIAN_POINT('',(75.356,140.000002086163,8.51));
#1349=CARTESIAN_POINT('',(75.356,136.250000521541,8.51));
#1350=CARTESIAN_POINT('Origin',(92.856,140.000002086163,0.));
#1351=CARTESIAN_POINT('',(92.856,140.000002086163,0.));
#1352=CARTESIAN_POINT('Origin',(75.356,135.,0.));
#1353=CARTESIAN_POINT('',(75.356,140.000002086163,0.));
#1354=CARTESIAN_POINT('',(75.356,135.,0.));
#1355=CARTESIAN_POINT('Origin',(105.,135.,0.));
#1356=CARTESIAN_POINT('',(105.,5.,0.));
#1357=CARTESIAN_POINT('Origin',(0.,0.,0.));
#1358=CARTESIAN_POINT('Origin',(5.,135.,0.));
#1359=CARTESIAN_POINT('',(5.,135.,0.));
#1360=CARTESIAN_POINT('Origin',(5.,5.,0.));
#1361=CARTESIAN_POINT('',(5.,5.,0.));
#1362=CARTESIAN_POINT('Origin',(105.,5.,0.));
#1363=CARTESIAN_POINT('Origin',(75.356,140.,0.));
#1364=UNCERTAINTY_MEASURE_WITH_UNIT(LENGTH_MEASURE(0.01),#1368,
'DISTANCE_ACCURACY_VALUE',
'Maximum model space distance between geometric entities at asserted c
onnectivities');
#1365=UNCERTAINTY_MEASURE_WITH_UNIT(LENGTH_MEASURE(0.01),#1368,
'DISTANCE_ACCURACY_VALUE',
'Maximum model space distance between geometric entities at asserted c
onnectivities');
#1366=(
GEOMETRIC_REPRESENTATION_CONTEXT(3)
GLOBAL_UNCERTAINTY_ASSIGNED_CONTEXT((#1364))
GLOBAL_UNIT_ASSIGNED_CONTEXT((#1368,#1370,#1371))
REPRESENTATION_CONTEXT('','3D')
);
#1367=(
GEOMETRIC_REPRESENTATION_CONTEXT(3)
GLOBAL_UNCERTAINTY_ASSIGNED_CONTEXT((#1365))
GLOBAL_UNIT_ASSIGNED_CONTEXT((#1368,#1370,#1371))
REPRESENTATION_CONTEXT('','3D')
);
#1368=(
LENGTH_UNIT()
NAMED_UNIT(*)
SI_UNIT(.MILLI.,.METRE.)
);
#1369=(
LENGTH_UNIT()
NAMED_UNIT(*)
SI_UNIT($,.METRE.)
);
#1370=(
NAMED_UNIT(*)
PLANE_ANGLE_UNIT()
SI_UNIT($,.RADIAN.)
);
#1371=(
NAMED_UNIT(*)
SI_UNIT($,.STERADIAN.)
SOLID_ANGLE_UNIT()
);
#1372=SHAPE_DEFINITION_REPRESENTATION(#1373,#1374);
#1373=PRODUCT_DEFINITION_SHAPE('',$,#1376);
#1374=SHAPE_REPRESENTATION('',(#806),#1366);
#1375=PRODUCT_DEFINITION_CONTEXT('part definition',#1380,'design');
#1376=PRODUCT_DEFINITION('Base','Base v12',#1377,#1375);
#1377=PRODUCT_DEFINITION_FORMATION('',$,#1382);
#1378=PRODUCT_RELATED_PRODUCT_CATEGORY('Base v12','Base v12',(#1382));
#1379=APPLICATION_PROTOCOL_DEFINITION('international standard',
'automotive_design',2009,#1380);
#1380=APPLICATION_CONTEXT(
'Core Data for Automotive Mechanical Design Process');
#1381=PRODUCT_CONTEXT('part definition',#1380,'mechanical');
#1382=PRODUCT('Base','Base v12',$,(#1381));
#1383=PRESENTATION_STYLE_ASSIGNMENT((#1384));
#1384=SURFACE_STYLE_USAGE(.BOTH.,#1385);
#1385=SURFACE_SIDE_STYLE('',(#1386));
#1386=SURFACE_STYLE_FILL_AREA(#1387);
#1387=FILL_AREA_STYLE(
'PA 11 - Nylon- HP 11-30 (with EOS P 396 3D Printer)',(#1388));
#1388=FILL_AREA_STYLE_COLOUR(
'PA 11 - Nylon- HP 11-30 (with EOS P 396 3D Printer)',#1389);
#1389=COLOUR_RGB('PA 11 - Nylon- HP 11-30 (with EOS P 396 3D Printer)',
0.247058823529412,0.247058823529412,0.247058823529412);
ENDSEC;
END-ISO-10303-21;
