ISO-10303-21;
HEADER;
/* Generated by software containing ST-Developer
 * from STEP Tools, Inc. (www.steptools.com) 
 */

FILE_DESCRIPTION(
/* description */ (''),
/* implementation_level */ '2;1');

FILE_NAME(
/* name */ 'TopMain.step',
/* time_stamp */ '2026-07-16T00:00:05+09:30',
/* author */ (''),
/* organization */ (''),
/* preprocessor_version */ 'ST-DEVELOPER v20.1',
/* originating_system */ 'Autodesk Translation Framework v15.8.0.0',
/* authorisation */ '');

FILE_SCHEMA (('AUTOMOTIVE_DESIGN { 1 0 10303 214 3 1 1 }'));
ENDSEC;

DATA;
#10=MECHANICAL_DESIGN_GEOMETRIC_PRESENTATION_REPRESENTATION('',(#13),#2007);
#11=SHAPE_REPRESENTATION_RELATIONSHIP('SRR','None',#2014,#12);
#12=ADVANCED_BREP_SHAPE_REPRESENTATION('',(#14),#2006);
#13=STYLED_ITEM('',(#2023),#14);
#14=MANIFOLD_SOLID_BREP('Body11',#1227);
#15=FACE_BOUND('',#148,.T.);
#16=FACE_BOUND('',#149,.T.);
#17=FACE_BOUND('',#150,.T.);
#18=FACE_BOUND('',#151,.T.);
#19=FACE_BOUND('',#152,.T.);
#20=FACE_BOUND('',#153,.T.);
#21=FACE_BOUND('',#154,.T.);
#22=FACE_BOUND('',#155,.T.);
#23=FACE_BOUND('',#156,.T.);
#24=FACE_BOUND('',#220,.T.);
#25=PLANE('',#1244);
#26=PLANE('',#1245);
#27=PLANE('',#1259);
#28=PLANE('',#1264);
#29=PLANE('',#1267);
#30=PLANE('',#1270);
#31=PLANE('',#1273);
#32=PLANE('',#1276);
#33=PLANE('',#1279);
#34=PLANE('',#1282);
#35=PLANE('',#1285);
#36=PLANE('',#1288);
#37=PLANE('',#1289);
#38=PLANE('',#1290);
#39=PLANE('',#1291);
#40=PLANE('',#1292);
#41=PLANE('',#1293);
#42=PLANE('',#1294);
#43=PLANE('',#1295);
#44=PLANE('',#1296);
#45=PLANE('',#1297);
#46=PLANE('',#1298);
#47=PLANE('',#1299);
#48=PLANE('',#1300);
#49=PLANE('',#1301);
#50=PLANE('',#1302);
#51=PLANE('',#1303);
#52=PLANE('',#1304);
#53=PLANE('',#1305);
#54=PLANE('',#1306);
#55=PLANE('',#1307);
#56=PLANE('',#1308);
#57=PLANE('',#1309);
#58=PLANE('',#1310);
#59=PLANE('',#1311);
#60=PLANE('',#1312);
#61=PLANE('',#1313);
#62=PLANE('',#1314);
#63=PLANE('',#1315);
#64=PLANE('',#1316);
#65=PLANE('',#1317);
#66=PLANE('',#1318);
#67=PLANE('',#1319);
#68=PLANE('',#1320);
#69=PLANE('',#1321);
#70=PLANE('',#1322);
#71=PLANE('',#1323);
#72=PLANE('',#1324);
#73=PLANE('',#1325);
#74=PLANE('',#1326);
#75=PLANE('',#1327);
#76=PLANE('',#1328);
#77=PLANE('',#1329);
#78=PLANE('',#1330);
#79=FACE_OUTER_BOUND('',#145,.T.);
#80=FACE_OUTER_BOUND('',#146,.T.);
#81=FACE_OUTER_BOUND('',#147,.T.);
#82=FACE_OUTER_BOUND('',#157,.T.);
#83=FACE_OUTER_BOUND('',#158,.T.);
#84=FACE_OUTER_BOUND('',#159,.T.);
#85=FACE_OUTER_BOUND('',#160,.T.);
#86=FACE_OUTER_BOUND('',#161,.T.);
#87=FACE_OUTER_BOUND('',#162,.T.);
#88=FACE_OUTER_BOUND('',#163,.T.);
#89=FACE_OUTER_BOUND('',#164,.T.);
#90=FACE_OUTER_BOUND('',#165,.T.);
#91=FACE_OUTER_BOUND('',#166,.T.);
#92=FACE_OUTER_BOUND('',#167,.T.);
#93=FACE_OUTER_BOUND('',#168,.T.);
#94=FACE_OUTER_BOUND('',#169,.T.);
#95=FACE_OUTER_BOUND('',#170,.T.);
#96=FACE_OUTER_BOUND('',#171,.T.);
#97=FACE_OUTER_BOUND('',#172,.T.);
#98=FACE_OUTER_BOUND('',#173,.T.);
#99=FACE_OUTER_BOUND('',#174,.T.);
#100=FACE_OUTER_BOUND('',#175,.T.);
#101=FACE_OUTER_BOUND('',#176,.T.);
#102=FACE_OUTER_BOUND('',#177,.T.);
#103=FACE_OUTER_BOUND('',#178,.T.);
#104=FACE_OUTER_BOUND('',#179,.T.);
#105=FACE_OUTER_BOUND('',#180,.T.);
#106=FACE_OUTER_BOUND('',#181,.T.);
#107=FACE_OUTER_BOUND('',#182,.T.);
#108=FACE_OUTER_BOUND('',#183,.T.);
#109=FACE_OUTER_BOUND('',#184,.T.);
#110=FACE_OUTER_BOUND('',#185,.T.);
#111=FACE_OUTER_BOUND('',#186,.T.);
#112=FACE_OUTER_BOUND('',#187,.T.);
#113=FACE_OUTER_BOUND('',#188,.T.);
#114=FACE_OUTER_BOUND('',#189,.T.);
#115=FACE_OUTER_BOUND('',#190,.T.);
#116=FACE_OUTER_BOUND('',#191,.T.);
#117=FACE_OUTER_BOUND('',#192,.T.);
#118=FACE_OUTER_BOUND('',#193,.T.);
#119=FACE_OUTER_BOUND('',#194,.T.);
#120=FACE_OUTER_BOUND('',#195,.T.);
#121=FACE_OUTER_BOUND('',#196,.T.);
#122=FACE_OUTER_BOUND('',#197,.T.);
#123=FACE_OUTER_BOUND('',#198,.T.);
#124=FACE_OUTER_BOUND('',#199,.T.);
#125=FACE_OUTER_BOUND('',#200,.T.);
#126=FACE_OUTER_BOUND('',#201,.T.);
#127=FACE_OUTER_BOUND('',#202,.T.);
#128=FACE_OUTER_BOUND('',#203,.T.);
#129=FACE_OUTER_BOUND('',#204,.T.);
#130=FACE_OUTER_BOUND('',#205,.T.);
#131=FACE_OUTER_BOUND('',#206,.T.);
#132=FACE_OUTER_BOUND('',#207,.T.);
#133=FACE_OUTER_BOUND('',#208,.T.);
#134=FACE_OUTER_BOUND('',#209,.T.);
#135=FACE_OUTER_BOUND('',#210,.T.);
#136=FACE_OUTER_BOUND('',#211,.T.);
#137=FACE_OUTER_BOUND('',#212,.T.);
#138=FACE_OUTER_BOUND('',#213,.T.);
#139=FACE_OUTER_BOUND('',#214,.T.);
#140=FACE_OUTER_BOUND('',#215,.T.);
#141=FACE_OUTER_BOUND('',#216,.T.);
#142=FACE_OUTER_BOUND('',#217,.T.);
#143=FACE_OUTER_BOUND('',#218,.T.);
#144=FACE_OUTER_BOUND('',#219,.T.);
#145=EDGE_LOOP('',(#813,#814,#815,#816));
#146=EDGE_LOOP('',(#817,#818,#819,#820));
#147=EDGE_LOOP('',(#821,#822,#823,#824,#825,#826,#827,#828,#829,#830,#831,
#832));
#148=EDGE_LOOP('',(#833,#834,#835,#836,#837,#838,#839,#840,#841,#842,#843,
#844,#845,#846,#847,#848,#849,#850,#851,#852,#853,#854,#855,#856,#857,#858,
#859,#860,#861,#862,#863,#864,#865,#866,#867,#868));
#149=EDGE_LOOP('',(#869));
#150=EDGE_LOOP('',(#870));
#151=EDGE_LOOP('',(#871));
#152=EDGE_LOOP('',(#872));
#153=EDGE_LOOP('',(#873));
#154=EDGE_LOOP('',(#874));
#155=EDGE_LOOP('',(#875));
#156=EDGE_LOOP('',(#876));
#157=EDGE_LOOP('',(#877,#878,#879,#880));
#158=EDGE_LOOP('',(#881,#882,#883,#884));
#159=EDGE_LOOP('',(#885,#886,#887,#888));
#160=EDGE_LOOP('',(#889,#890,#891,#892));
#161=EDGE_LOOP('',(#893,#894,#895,#896));
#162=EDGE_LOOP('',(#897,#898,#899,#900));
#163=EDGE_LOOP('',(#901));
#164=EDGE_LOOP('',(#902,#903,#904,#905));
#165=EDGE_LOOP('',(#906));
#166=EDGE_LOOP('',(#907,#908,#909,#910));
#167=EDGE_LOOP('',(#911));
#168=EDGE_LOOP('',(#912,#913,#914,#915));
#169=EDGE_LOOP('',(#916));
#170=EDGE_LOOP('',(#917,#918,#919,#920));
#171=EDGE_LOOP('',(#921));
#172=EDGE_LOOP('',(#922,#923,#924,#925));
#173=EDGE_LOOP('',(#926));
#174=EDGE_LOOP('',(#927,#928,#929,#930));
#175=EDGE_LOOP('',(#931));
#176=EDGE_LOOP('',(#932,#933,#934,#935));
#177=EDGE_LOOP('',(#936));
#178=EDGE_LOOP('',(#937,#938,#939,#940));
#179=EDGE_LOOP('',(#941,#942,#943,#944));
#180=EDGE_LOOP('',(#945,#946,#947,#948));
#181=EDGE_LOOP('',(#949,#950,#951,#952));
#182=EDGE_LOOP('',(#953,#954,#955,#956));
#183=EDGE_LOOP('',(#957,#958,#959,#960));
#184=EDGE_LOOP('',(#961,#962,#963,#964));
#185=EDGE_LOOP('',(#965,#966,#967,#968,#969,#970,#971,#972));
#186=EDGE_LOOP('',(#973,#974,#975,#976));
#187=EDGE_LOOP('',(#977,#978,#979,#980));
#188=EDGE_LOOP('',(#981,#982,#983,#984));
#189=EDGE_LOOP('',(#985,#986,#987,#988));
#190=EDGE_LOOP('',(#989,#990,#991,#992));
#191=EDGE_LOOP('',(#993,#994,#995,#996));
#192=EDGE_LOOP('',(#997,#998,#999,#1000));
#193=EDGE_LOOP('',(#1001,#1002,#1003,#1004,#1005,#1006,#1007,#1008));
#194=EDGE_LOOP('',(#1009,#1010,#1011,#1012));
#195=EDGE_LOOP('',(#1013,#1014,#1015,#1016));
#196=EDGE_LOOP('',(#1017,#1018,#1019,#1020));
#197=EDGE_LOOP('',(#1021,#1022,#1023,#1024));
#198=EDGE_LOOP('',(#1025,#1026,#1027,#1028));
#199=EDGE_LOOP('',(#1029,#1030,#1031,#1032));
#200=EDGE_LOOP('',(#1033,#1034,#1035,#1036));
#201=EDGE_LOOP('',(#1037,#1038,#1039,#1040,#1041,#1042,#1043,#1044));
#202=EDGE_LOOP('',(#1045,#1046,#1047,#1048));
#203=EDGE_LOOP('',(#1049,#1050,#1051,#1052));
#204=EDGE_LOOP('',(#1053,#1054,#1055,#1056));
#205=EDGE_LOOP('',(#1057,#1058,#1059,#1060));
#206=EDGE_LOOP('',(#1061,#1062,#1063,#1064));
#207=EDGE_LOOP('',(#1065,#1066,#1067,#1068));
#208=EDGE_LOOP('',(#1069,#1070,#1071,#1072));
#209=EDGE_LOOP('',(#1073,#1074,#1075,#1076,#1077,#1078,#1079,#1080));
#210=EDGE_LOOP('',(#1081,#1082,#1083,#1084,#1085,#1086,#1087,#1088,#1089,
#1090,#1091,#1092));
#211=EDGE_LOOP('',(#1093,#1094,#1095,#1096,#1097,#1098,#1099,#1100,#1101,
#1102,#1103,#1104));
#212=EDGE_LOOP('',(#1105,#1106,#1107,#1108));
#213=EDGE_LOOP('',(#1109,#1110,#1111,#1112));
#214=EDGE_LOOP('',(#1113,#1114,#1115,#1116));
#215=EDGE_LOOP('',(#1117,#1118,#1119,#1120));
#216=EDGE_LOOP('',(#1121,#1122,#1123,#1124));
#217=EDGE_LOOP('',(#1125,#1126,#1127,#1128));
#218=EDGE_LOOP('',(#1129,#1130,#1131,#1132));
#219=EDGE_LOOP('',(#1133,#1134,#1135,#1136,#1137,#1138,#1139,#1140,#1141,
#1142,#1143,#1144));
#220=EDGE_LOOP('',(#1145,#1146,#1147,#1148));
#221=LINE('',#1663,#365);
#222=LINE('',#1666,#366);
#223=LINE('',#1669,#367);
#224=LINE('',#1671,#368);
#225=LINE('',#1672,#369);
#226=LINE('',#1675,#370);
#227=LINE('',#1679,#371);
#228=LINE('',#1683,#372);
#229=LINE('',#1687,#373);
#230=LINE('',#1689,#374);
#231=LINE('',#1691,#375);
#232=LINE('',#1692,#376);
#233=LINE('',#1695,#377);
#234=LINE('',#1697,#378);
#235=LINE('',#1699,#379);
#236=LINE('',#1701,#380);
#237=LINE('',#1703,#381);
#238=LINE('',#1705,#382);
#239=LINE('',#1707,#383);
#240=LINE('',#1709,#384);
#241=LINE('',#1711,#385);
#242=LINE('',#1713,#386);
#243=LINE('',#1715,#387);
#244=LINE('',#1717,#388);
#245=LINE('',#1719,#389);
#246=LINE('',#1721,#390);
#247=LINE('',#1723,#391);
#248=LINE('',#1725,#392);
#249=LINE('',#1727,#393);
#250=LINE('',#1729,#394);
#251=LINE('',#1731,#395);
#252=LINE('',#1733,#396);
#253=LINE('',#1735,#397);
#254=LINE('',#1737,#398);
#255=LINE('',#1739,#399);
#256=LINE('',#1741,#400);
#257=LINE('',#1743,#401);
#258=LINE('',#1745,#402);
#259=LINE('',#1747,#403);
#260=LINE('',#1749,#404);
#261=LINE('',#1751,#405);
#262=LINE('',#1753,#406);
#263=LINE('',#1755,#407);
#264=LINE('',#1757,#408);
#265=LINE('',#1759,#409);
#266=LINE('',#1761,#410);
#267=LINE('',#1763,#411);
#268=LINE('',#1764,#412);
#269=LINE('',#1785,#413);
#270=LINE('',#1786,#414);
#271=LINE('',#1789,#415);
#272=LINE('',#1790,#416);
#273=LINE('',#1794,#417);
#274=LINE('',#1799,#418);
#275=LINE('',#1800,#419);
#276=LINE('',#1803,#420);
#277=LINE('',#1804,#421);
#278=LINE('',#1807,#422);
#279=LINE('',#1812,#423);
#280=LINE('',#1817,#424);
#281=LINE('',#1822,#425);
#282=LINE('',#1827,#426);
#283=LINE('',#1832,#427);
#284=LINE('',#1837,#428);
#285=LINE('',#1842,#429);
#286=LINE('',#1847,#430);
#287=LINE('',#1849,#431);
#288=LINE('',#1850,#432);
#289=LINE('',#1853,#433);
#290=LINE('',#1854,#434);
#291=LINE('',#1857,#435);
#292=LINE('',#1858,#436);
#293=LINE('',#1861,#437);
#294=LINE('',#1862,#438);
#295=LINE('',#1865,#439);
#296=LINE('',#1866,#440);
#297=LINE('',#1869,#441);
#298=LINE('',#1870,#442);
#299=LINE('',#1873,#443);
#300=LINE('',#1874,#444);
#301=LINE('',#1876,#445);
#302=LINE('',#1879,#446);
#303=LINE('',#1881,#447);
#304=LINE('',#1882,#448);
#305=LINE('',#1885,#449);
#306=LINE('',#1886,#450);
#307=LINE('',#1889,#451);
#308=LINE('',#1890,#452);
#309=LINE('',#1893,#453);
#310=LINE('',#1894,#454);
#311=LINE('',#1897,#455);
#312=LINE('',#1898,#456);
#313=LINE('',#1901,#457);
#314=LINE('',#1902,#458);
#315=LINE('',#1905,#459);
#316=LINE('',#1906,#460);
#317=LINE('',#1908,#461);
#318=LINE('',#1911,#462);
#319=LINE('',#1913,#463);
#320=LINE('',#1914,#464);
#321=LINE('',#1917,#465);
#322=LINE('',#1918,#466);
#323=LINE('',#1921,#467);
#324=LINE('',#1922,#468);
#325=LINE('',#1925,#469);
#326=LINE('',#1926,#470);
#327=LINE('',#1929,#471);
#328=LINE('',#1930,#472);
#329=LINE('',#1933,#473);
#330=LINE('',#1934,#474);
#331=LINE('',#1937,#475);
#332=LINE('',#1938,#476);
#333=LINE('',#1940,#477);
#334=LINE('',#1943,#478);
#335=LINE('',#1945,#479);
#336=LINE('',#1946,#480);
#337=LINE('',#1949,#481);
#338=LINE('',#1950,#482);
#339=LINE('',#1953,#483);
#340=LINE('',#1954,#484);
#341=LINE('',#1957,#485);
#342=LINE('',#1958,#486);
#343=LINE('',#1961,#487);
#344=LINE('',#1962,#488);
#345=LINE('',#1965,#489);
#346=LINE('',#1966,#490);
#347=LINE('',#1969,#491);
#348=LINE('',#1970,#492);
#349=LINE('',#1972,#493);
#350=LINE('',#1975,#494);
#351=LINE('',#1977,#495);
#352=LINE('',#1978,#496);
#353=LINE('',#1981,#497);
#354=LINE('',#1983,#498);
#355=LINE('',#1984,#499);
#356=LINE('',#1986,#500);
#357=LINE('',#1988,#501);
#358=LINE('',#1991,#502);
#359=LINE('',#1992,#503);
#360=LINE('',#1995,#504);
#361=LINE('',#1996,#505);
#362=LINE('',#1998,#506);
#363=LINE('',#2000,#507);
#364=LINE('',#2002,#508);
#365=VECTOR('',#1337,10.);
#366=VECTOR('',#1340,10.);
#367=VECTOR('',#1343,10.);
#368=VECTOR('',#1344,10.);
#369=VECTOR('',#1345,10.);
#370=VECTOR('',#1348,10.);
#371=VECTOR('',#1351,10.);
#372=VECTOR('',#1354,10.);
#373=VECTOR('',#1357,10.);
#374=VECTOR('',#1358,10.);
#375=VECTOR('',#1359,10.);
#376=VECTOR('',#1360,10.);
#377=VECTOR('',#1361,10.);
#378=VECTOR('',#1362,10.);
#379=VECTOR('',#1363,10.);
#380=VECTOR('',#1364,10.);
#381=VECTOR('',#1365,10.);
#382=VECTOR('',#1366,10.);
#383=VECTOR('',#1367,10.);
#384=VECTOR('',#1368,10.);
#385=VECTOR('',#1369,10.);
#386=VECTOR('',#1370,10.);
#387=VECTOR('',#1371,10.);
#388=VECTOR('',#1372,10.);
#389=VECTOR('',#1373,10.);
#390=VECTOR('',#1374,10.);
#391=VECTOR('',#1375,10.);
#392=VECTOR('',#1376,10.);
#393=VECTOR('',#1377,10.);
#394=VECTOR('',#1378,10.);
#395=VECTOR('',#1379,10.);
#396=VECTOR('',#1380,10.);
#397=VECTOR('',#1381,10.);
#398=VECTOR('',#1382,10.);
#399=VECTOR('',#1383,10.);
#400=VECTOR('',#1384,10.);
#401=VECTOR('',#1385,10.);
#402=VECTOR('',#1386,10.);
#403=VECTOR('',#1387,10.);
#404=VECTOR('',#1388,10.);
#405=VECTOR('',#1389,10.);
#406=VECTOR('',#1390,10.);
#407=VECTOR('',#1391,10.);
#408=VECTOR('',#1392,10.);
#409=VECTOR('',#1393,10.);
#410=VECTOR('',#1394,10.);
#411=VECTOR('',#1395,10.);
#412=VECTOR('',#1396,10.);
#413=VECTOR('',#1417,10.);
#414=VECTOR('',#1418,10.);
#415=VECTOR('',#1421,10.);
#416=VECTOR('',#1422,10.);
#417=VECTOR('',#1427,10.);
#418=VECTOR('',#1432,10.);
#419=VECTOR('',#1433,10.);
#420=VECTOR('',#1436,10.);
#421=VECTOR('',#1437,10.);
#422=VECTOR('',#1440,1.1);
#423=VECTOR('',#1447,1.09999999999999);
#424=VECTOR('',#1454,1.09999999999999);
#425=VECTOR('',#1461,1.09999999999999);
#426=VECTOR('',#1468,1.09999999999999);
#427=VECTOR('',#1475,1.1);
#428=VECTOR('',#1482,1.10000000000001);
#429=VECTOR('',#1489,1.09999999999999);
#430=VECTOR('',#1496,10.);
#431=VECTOR('',#1497,10.);
#432=VECTOR('',#1498,10.);
#433=VECTOR('',#1501,10.);
#434=VECTOR('',#1502,10.);
#435=VECTOR('',#1505,10.);
#436=VECTOR('',#1506,10.);
#437=VECTOR('',#1509,10.);
#438=VECTOR('',#1510,10.);
#439=VECTOR('',#1513,10.);
#440=VECTOR('',#1514,10.);
#441=VECTOR('',#1517,10.);
#442=VECTOR('',#1518,10.);
#443=VECTOR('',#1521,10.);
#444=VECTOR('',#1522,10.);
#445=VECTOR('',#1525,10.);
#446=VECTOR('',#1528,10.);
#447=VECTOR('',#1529,10.);
#448=VECTOR('',#1530,10.);
#449=VECTOR('',#1533,10.);
#450=VECTOR('',#1534,10.);
#451=VECTOR('',#1537,10.);
#452=VECTOR('',#1538,10.);
#453=VECTOR('',#1541,10.);
#454=VECTOR('',#1542,10.);
#455=VECTOR('',#1545,10.);
#456=VECTOR('',#1546,10.);
#457=VECTOR('',#1549,10.);
#458=VECTOR('',#1550,10.);
#459=VECTOR('',#1553,10.);
#460=VECTOR('',#1554,10.);
#461=VECTOR('',#1557,10.);
#462=VECTOR('',#1560,10.);
#463=VECTOR('',#1561,10.);
#464=VECTOR('',#1562,10.);
#465=VECTOR('',#1565,10.);
#466=VECTOR('',#1566,10.);
#467=VECTOR('',#1569,10.);
#468=VECTOR('',#1570,10.);
#469=VECTOR('',#1573,10.);
#470=VECTOR('',#1574,10.);
#471=VECTOR('',#1577,10.);
#472=VECTOR('',#1578,10.);
#473=VECTOR('',#1581,10.);
#474=VECTOR('',#1582,10.);
#475=VECTOR('',#1585,10.);
#476=VECTOR('',#1586,10.);
#477=VECTOR('',#1589,10.);
#478=VECTOR('',#1592,10.);
#479=VECTOR('',#1593,10.);
#480=VECTOR('',#1594,10.);
#481=VECTOR('',#1597,10.);
#482=VECTOR('',#1598,10.);
#483=VECTOR('',#1601,10.);
#484=VECTOR('',#1602,10.);
#485=VECTOR('',#1605,10.);
#486=VECTOR('',#1606,10.);
#487=VECTOR('',#1609,10.);
#488=VECTOR('',#1610,10.);
#489=VECTOR('',#1613,10.);
#490=VECTOR('',#1614,10.);
#491=VECTOR('',#1617,10.);
#492=VECTOR('',#1618,10.);
#493=VECTOR('',#1621,10.);
#494=VECTOR('',#1624,10.);
#495=VECTOR('',#1625,10.);
#496=VECTOR('',#1626,10.);
#497=VECTOR('',#1629,10.);
#498=VECTOR('',#1630,10.);
#499=VECTOR('',#1631,10.);
#500=VECTOR('',#1634,10.);
#501=VECTOR('',#1637,10.);
#502=VECTOR('',#1640,10.);
#503=VECTOR('',#1641,10.);
#504=VECTOR('',#1644,10.);
#505=VECTOR('',#1645,10.);
#506=VECTOR('',#1648,10.);
#507=VECTOR('',#1651,10.);
#508=VECTOR('',#1654,10.);
#509=CIRCLE('',#1242,5.);
#510=CIRCLE('',#1243,5.);
#511=CIRCLE('',#1246,5.);
#512=CIRCLE('',#1247,5.);
#513=CIRCLE('',#1248,5.);
#514=CIRCLE('',#1249,0.8877);
#515=CIRCLE('',#1250,0.8877);
#516=CIRCLE('',#1251,0.8877);
#517=CIRCLE('',#1252,0.8877);
#518=CIRCLE('',#1253,0.8877);
#519=CIRCLE('',#1254,0.8877);
#520=CIRCLE('',#1255,0.8877);
#521=CIRCLE('',#1256,0.8877);
#522=CIRCLE('',#1258,5.);
#523=CIRCLE('',#1261,5.);
#524=CIRCLE('',#1263,5.);
#525=CIRCLE('',#1266,0.8877);
#526=CIRCLE('',#1269,0.8877);
#527=CIRCLE('',#1272,0.8877);
#528=CIRCLE('',#1275,0.8877);
#529=CIRCLE('',#1278,0.8877);
#530=CIRCLE('',#1281,0.8877);
#531=CIRCLE('',#1284,0.8877);
#532=CIRCLE('',#1287,0.8877);
#533=VERTEX_POINT('',#1659);
#534=VERTEX_POINT('',#1660);
#535=VERTEX_POINT('',#1662);
#536=VERTEX_POINT('',#1664);
#537=VERTEX_POINT('',#1668);
#538=VERTEX_POINT('',#1670);
#539=VERTEX_POINT('',#1674);
#540=VERTEX_POINT('',#1676);
#541=VERTEX_POINT('',#1678);
#542=VERTEX_POINT('',#1680);
#543=VERTEX_POINT('',#1682);
#544=VERTEX_POINT('',#1684);
#545=VERTEX_POINT('',#1686);
#546=VERTEX_POINT('',#1688);
#547=VERTEX_POINT('',#1690);
#548=VERTEX_POINT('',#1693);
#549=VERTEX_POINT('',#1694);
#550=VERTEX_POINT('',#1696);
#551=VERTEX_POINT('',#1698);
#552=VERTEX_POINT('',#1700);
#553=VERTEX_POINT('',#1702);
#554=VERTEX_POINT('',#1704);
#555=VERTEX_POINT('',#1706);
#556=VERTEX_POINT('',#1708);
#557=VERTEX_POINT('',#1710);
#558=VERTEX_POINT('',#1712);
#559=VERTEX_POINT('',#1714);
#560=VERTEX_POINT('',#1716);
#561=VERTEX_POINT('',#1718);
#562=VERTEX_POINT('',#1720);
#563=VERTEX_POINT('',#1722);
#564=VERTEX_POINT('',#1724);
#565=VERTEX_POINT('',#1726);
#566=VERTEX_POINT('',#1728);
#567=VERTEX_POINT('',#1730);
#568=VERTEX_POINT('',#1732);
#569=VERTEX_POINT('',#1734);
#570=VERTEX_POINT('',#1736);
#571=VERTEX_POINT('',#1738);
#572=VERTEX_POINT('',#1740);
#573=VERTEX_POINT('',#1742);
#574=VERTEX_POINT('',#1744);
#575=VERTEX_POINT('',#1746);
#576=VERTEX_POINT('',#1748);
#577=VERTEX_POINT('',#1750);
#578=VERTEX_POINT('',#1752);
#579=VERTEX_POINT('',#1754);
#580=VERTEX_POINT('',#1756);
#581=VERTEX_POINT('',#1758);
#582=VERTEX_POINT('',#1760);
#583=VERTEX_POINT('',#1762);
#584=VERTEX_POINT('',#1765);
#585=VERTEX_POINT('',#1767);
#586=VERTEX_POINT('',#1769);
#587=VERTEX_POINT('',#1771);
#588=VERTEX_POINT('',#1773);
#589=VERTEX_POINT('',#1775);
#590=VERTEX_POINT('',#1777);
#591=VERTEX_POINT('',#1779);
#592=VERTEX_POINT('',#1782);
#593=VERTEX_POINT('',#1783);
#594=VERTEX_POINT('',#1788);
#595=VERTEX_POINT('',#1792);
#596=VERTEX_POINT('',#1796);
#597=VERTEX_POINT('',#1797);
#598=VERTEX_POINT('',#1802);
#599=VERTEX_POINT('',#1806);
#600=VERTEX_POINT('',#1811);
#601=VERTEX_POINT('',#1816);
#602=VERTEX_POINT('',#1821);
#603=VERTEX_POINT('',#1826);
#604=VERTEX_POINT('',#1831);
#605=VERTEX_POINT('',#1836);
#606=VERTEX_POINT('',#1841);
#607=VERTEX_POINT('',#1846);
#608=VERTEX_POINT('',#1848);
#609=VERTEX_POINT('',#1852);
#610=VERTEX_POINT('',#1856);
#611=VERTEX_POINT('',#1860);
#612=VERTEX_POINT('',#1864);
#613=VERTEX_POINT('',#1868);
#614=VERTEX_POINT('',#1872);
#615=VERTEX_POINT('',#1878);
#616=VERTEX_POINT('',#1880);
#617=VERTEX_POINT('',#1884);
#618=VERTEX_POINT('',#1888);
#619=VERTEX_POINT('',#1892);
#620=VERTEX_POINT('',#1896);
#621=VERTEX_POINT('',#1900);
#622=VERTEX_POINT('',#1904);
#623=VERTEX_POINT('',#1910);
#624=VERTEX_POINT('',#1912);
#625=VERTEX_POINT('',#1916);
#626=VERTEX_POINT('',#1920);
#627=VERTEX_POINT('',#1924);
#628=VERTEX_POINT('',#1928);
#629=VERTEX_POINT('',#1932);
#630=VERTEX_POINT('',#1936);
#631=VERTEX_POINT('',#1942);
#632=VERTEX_POINT('',#1944);
#633=VERTEX_POINT('',#1948);
#634=VERTEX_POINT('',#1952);
#635=VERTEX_POINT('',#1956);
#636=VERTEX_POINT('',#1960);
#637=VERTEX_POINT('',#1964);
#638=VERTEX_POINT('',#1968);
#639=VERTEX_POINT('',#1974);
#640=VERTEX_POINT('',#1976);
#641=VERTEX_POINT('',#1980);
#642=VERTEX_POINT('',#1982);
#643=VERTEX_POINT('',#1990);
#644=VERTEX_POINT('',#1994);
#645=EDGE_CURVE('',#533,#534,#509,.T.);
#646=EDGE_CURVE('',#534,#535,#221,.T.);
#647=EDGE_CURVE('',#535,#536,#510,.T.);
#648=EDGE_CURVE('',#536,#533,#222,.T.);
#649=EDGE_CURVE('',#536,#537,#223,.T.);
#650=EDGE_CURVE('',#537,#538,#224,.T.);
#651=EDGE_CURVE('',#533,#538,#225,.T.);
#652=EDGE_CURVE('',#539,#535,#226,.T.);
#653=EDGE_CURVE('',#540,#539,#511,.T.);
#654=EDGE_CURVE('',#541,#540,#227,.T.);
#655=EDGE_CURVE('',#542,#541,#512,.T.);
#656=EDGE_CURVE('',#543,#542,#228,.T.);
#657=EDGE_CURVE('',#544,#543,#513,.T.);
#658=EDGE_CURVE('',#545,#544,#229,.T.);
#659=EDGE_CURVE('',#545,#546,#230,.T.);
#660=EDGE_CURVE('',#546,#547,#231,.T.);
#661=EDGE_CURVE('',#547,#537,#232,.T.);
#662=EDGE_CURVE('',#548,#549,#233,.T.);
#663=EDGE_CURVE('',#550,#549,#234,.T.);
#664=EDGE_CURVE('',#551,#550,#235,.T.);
#665=EDGE_CURVE('',#552,#551,#236,.T.);
#666=EDGE_CURVE('',#552,#553,#237,.T.);
#667=EDGE_CURVE('',#553,#554,#238,.T.);
#668=EDGE_CURVE('',#554,#555,#239,.T.);
#669=EDGE_CURVE('',#555,#556,#240,.T.);
#670=EDGE_CURVE('',#556,#557,#241,.T.);
#671=EDGE_CURVE('',#557,#558,#242,.T.);
#672=EDGE_CURVE('',#558,#559,#243,.T.);
#673=EDGE_CURVE('',#560,#559,#244,.T.);
#674=EDGE_CURVE('',#560,#561,#245,.T.);
#675=EDGE_CURVE('',#561,#562,#246,.T.);
#676=EDGE_CURVE('',#562,#563,#247,.T.);
#677=EDGE_CURVE('',#563,#564,#248,.T.);
#678=EDGE_CURVE('',#564,#565,#249,.T.);
#679=EDGE_CURVE('',#565,#566,#250,.T.);
#680=EDGE_CURVE('',#566,#567,#251,.T.);
#681=EDGE_CURVE('',#568,#567,#252,.T.);
#682=EDGE_CURVE('',#569,#568,#253,.T.);
#683=EDGE_CURVE('',#570,#569,#254,.T.);
#684=EDGE_CURVE('',#570,#571,#255,.T.);
#685=EDGE_CURVE('',#571,#572,#256,.T.);
#686=EDGE_CURVE('',#572,#573,#257,.T.);
#687=EDGE_CURVE('',#573,#574,#258,.T.);
#688=EDGE_CURVE('',#574,#575,#259,.T.);
#689=EDGE_CURVE('',#575,#576,#260,.T.);
#690=EDGE_CURVE('',#576,#577,#261,.T.);
#691=EDGE_CURVE('',#578,#577,#262,.T.);
#692=EDGE_CURVE('',#578,#579,#263,.T.);
#693=EDGE_CURVE('',#579,#580,#264,.T.);
#694=EDGE_CURVE('',#580,#581,#265,.T.);
#695=EDGE_CURVE('',#581,#582,#266,.T.);
#696=EDGE_CURVE('',#582,#583,#267,.T.);
#697=EDGE_CURVE('',#583,#548,#268,.T.);
#698=EDGE_CURVE('',#584,#584,#514,.F.);
#699=EDGE_CURVE('',#585,#585,#515,.F.);
#700=EDGE_CURVE('',#586,#586,#516,.F.);
#701=EDGE_CURVE('',#587,#587,#517,.F.);
#702=EDGE_CURVE('',#588,#588,#518,.F.);
#703=EDGE_CURVE('',#589,#589,#519,.F.);
#704=EDGE_CURVE('',#590,#590,#520,.F.);
#705=EDGE_CURVE('',#591,#591,#521,.F.);
#706=EDGE_CURVE('',#592,#593,#522,.T.);
#707=EDGE_CURVE('',#593,#540,#269,.T.);
#708=EDGE_CURVE('',#539,#592,#270,.T.);
#709=EDGE_CURVE('',#594,#593,#271,.T.);
#710=EDGE_CURVE('',#541,#594,#272,.T.);
#711=EDGE_CURVE('',#594,#595,#523,.T.);
#712=EDGE_CURVE('',#595,#542,#273,.T.);
#713=EDGE_CURVE('',#596,#597,#524,.T.);
#714=EDGE_CURVE('',#597,#544,#274,.T.);
#715=EDGE_CURVE('',#543,#596,#275,.T.);
#716=EDGE_CURVE('',#598,#597,#276,.T.);
#717=EDGE_CURVE('',#545,#598,#277,.T.);
#718=EDGE_CURVE('',#591,#599,#278,.T.);
#719=EDGE_CURVE('',#599,#599,#525,.F.);
#720=EDGE_CURVE('',#590,#600,#279,.T.);
#721=EDGE_CURVE('',#600,#600,#526,.F.);
#722=EDGE_CURVE('',#589,#601,#280,.T.);
#723=EDGE_CURVE('',#601,#601,#527,.F.);
#724=EDGE_CURVE('',#588,#602,#281,.T.);
#725=EDGE_CURVE('',#602,#602,#528,.F.);
#726=EDGE_CURVE('',#587,#603,#282,.T.);
#727=EDGE_CURVE('',#603,#603,#529,.F.);
#728=EDGE_CURVE('',#586,#604,#283,.T.);
#729=EDGE_CURVE('',#604,#604,#530,.F.);
#730=EDGE_CURVE('',#585,#605,#284,.T.);
#731=EDGE_CURVE('',#605,#605,#531,.F.);
#732=EDGE_CURVE('',#584,#606,#285,.T.);
#733=EDGE_CURVE('',#606,#606,#532,.F.);
#734=EDGE_CURVE('',#548,#607,#286,.T.);
#735=EDGE_CURVE('',#607,#608,#287,.T.);
#736=EDGE_CURVE('',#549,#608,#288,.T.);
#737=EDGE_CURVE('',#583,#609,#289,.T.);
#738=EDGE_CURVE('',#609,#607,#290,.T.);
#739=EDGE_CURVE('',#582,#610,#291,.T.);
#740=EDGE_CURVE('',#610,#609,#292,.T.);
#741=EDGE_CURVE('',#581,#611,#293,.T.);
#742=EDGE_CURVE('',#611,#610,#294,.T.);
#743=EDGE_CURVE('',#580,#612,#295,.T.);
#744=EDGE_CURVE('',#612,#611,#296,.T.);
#745=EDGE_CURVE('',#579,#613,#297,.T.);
#746=EDGE_CURVE('',#613,#612,#298,.T.);
#747=EDGE_CURVE('',#614,#578,#299,.T.);
#748=EDGE_CURVE('',#614,#613,#300,.T.);
#749=EDGE_CURVE('',#608,#614,#301,.T.);
#750=EDGE_CURVE('',#565,#615,#302,.T.);
#751=EDGE_CURVE('',#615,#616,#303,.T.);
#752=EDGE_CURVE('',#566,#616,#304,.T.);
#753=EDGE_CURVE('',#564,#617,#305,.T.);
#754=EDGE_CURVE('',#617,#615,#306,.T.);
#755=EDGE_CURVE('',#563,#618,#307,.T.);
#756=EDGE_CURVE('',#618,#617,#308,.T.);
#757=EDGE_CURVE('',#562,#619,#309,.T.);
#758=EDGE_CURVE('',#619,#618,#310,.T.);
#759=EDGE_CURVE('',#561,#620,#311,.T.);
#760=EDGE_CURVE('',#620,#619,#312,.T.);
#761=EDGE_CURVE('',#621,#560,#313,.T.);
#762=EDGE_CURVE('',#621,#620,#314,.T.);
#763=EDGE_CURVE('',#616,#622,#315,.T.);
#764=EDGE_CURVE('',#567,#622,#316,.T.);
#765=EDGE_CURVE('',#622,#621,#317,.T.);
#766=EDGE_CURVE('',#575,#623,#318,.T.);
#767=EDGE_CURVE('',#623,#624,#319,.T.);
#768=EDGE_CURVE('',#576,#624,#320,.T.);
#769=EDGE_CURVE('',#574,#625,#321,.T.);
#770=EDGE_CURVE('',#625,#623,#322,.T.);
#771=EDGE_CURVE('',#573,#626,#323,.T.);
#772=EDGE_CURVE('',#626,#625,#324,.T.);
#773=EDGE_CURVE('',#572,#627,#325,.T.);
#774=EDGE_CURVE('',#627,#626,#326,.T.);
#775=EDGE_CURVE('',#571,#628,#327,.T.);
#776=EDGE_CURVE('',#628,#627,#328,.T.);
#777=EDGE_CURVE('',#629,#570,#329,.T.);
#778=EDGE_CURVE('',#629,#628,#330,.T.);
#779=EDGE_CURVE('',#624,#630,#331,.T.);
#780=EDGE_CURVE('',#577,#630,#332,.T.);
#781=EDGE_CURVE('',#630,#629,#333,.T.);
#782=EDGE_CURVE('',#557,#631,#334,.T.);
#783=EDGE_CURVE('',#631,#632,#335,.T.);
#784=EDGE_CURVE('',#558,#632,#336,.T.);
#785=EDGE_CURVE('',#556,#633,#337,.T.);
#786=EDGE_CURVE('',#633,#631,#338,.T.);
#787=EDGE_CURVE('',#555,#634,#339,.T.);
#788=EDGE_CURVE('',#634,#633,#340,.T.);
#789=EDGE_CURVE('',#554,#635,#341,.T.);
#790=EDGE_CURVE('',#635,#634,#342,.T.);
#791=EDGE_CURVE('',#553,#636,#343,.T.);
#792=EDGE_CURVE('',#636,#635,#344,.T.);
#793=EDGE_CURVE('',#637,#552,#345,.T.);
#794=EDGE_CURVE('',#637,#636,#346,.T.);
#795=EDGE_CURVE('',#632,#638,#347,.T.);
#796=EDGE_CURVE('',#559,#638,#348,.T.);
#797=EDGE_CURVE('',#638,#637,#349,.T.);
#798=EDGE_CURVE('',#569,#639,#350,.T.);
#799=EDGE_CURVE('',#640,#639,#351,.T.);
#800=EDGE_CURVE('',#550,#640,#352,.T.);
#801=EDGE_CURVE('',#551,#641,#353,.T.);
#802=EDGE_CURVE('',#642,#641,#354,.T.);
#803=EDGE_CURVE('',#568,#642,#355,.T.);
#804=EDGE_CURVE('',#639,#642,#356,.T.);
#805=EDGE_CURVE('',#641,#640,#357,.T.);
#806=EDGE_CURVE('',#643,#598,#358,.T.);
#807=EDGE_CURVE('',#546,#643,#359,.T.);
#808=EDGE_CURVE('',#644,#643,#360,.T.);
#809=EDGE_CURVE('',#547,#644,#361,.T.);
#810=EDGE_CURVE('',#538,#644,#362,.T.);
#811=EDGE_CURVE('',#592,#534,#363,.T.);
#812=EDGE_CURVE('',#596,#595,#364,.T.);
#813=ORIENTED_EDGE('',*,*,#645,.T.);
#814=ORIENTED_EDGE('',*,*,#646,.T.);
#815=ORIENTED_EDGE('',*,*,#647,.T.);
#816=ORIENTED_EDGE('',*,*,#648,.T.);
#817=ORIENTED_EDGE('',*,*,#648,.F.);
#818=ORIENTED_EDGE('',*,*,#649,.T.);
#819=ORIENTED_EDGE('',*,*,#650,.T.);
#820=ORIENTED_EDGE('',*,*,#651,.F.);
#821=ORIENTED_EDGE('',*,*,#647,.F.);
#822=ORIENTED_EDGE('',*,*,#652,.F.);
#823=ORIENTED_EDGE('',*,*,#653,.F.);
#824=ORIENTED_EDGE('',*,*,#654,.F.);
#825=ORIENTED_EDGE('',*,*,#655,.F.);
#826=ORIENTED_EDGE('',*,*,#656,.F.);
#827=ORIENTED_EDGE('',*,*,#657,.F.);
#828=ORIENTED_EDGE('',*,*,#658,.F.);
#829=ORIENTED_EDGE('',*,*,#659,.T.);
#830=ORIENTED_EDGE('',*,*,#660,.T.);
#831=ORIENTED_EDGE('',*,*,#661,.T.);
#832=ORIENTED_EDGE('',*,*,#649,.F.);
#833=ORIENTED_EDGE('',*,*,#662,.T.);
#834=ORIENTED_EDGE('',*,*,#663,.F.);
#835=ORIENTED_EDGE('',*,*,#664,.F.);
#836=ORIENTED_EDGE('',*,*,#665,.F.);
#837=ORIENTED_EDGE('',*,*,#666,.T.);
#838=ORIENTED_EDGE('',*,*,#667,.T.);
#839=ORIENTED_EDGE('',*,*,#668,.T.);
#840=ORIENTED_EDGE('',*,*,#669,.T.);
#841=ORIENTED_EDGE('',*,*,#670,.T.);
#842=ORIENTED_EDGE('',*,*,#671,.T.);
#843=ORIENTED_EDGE('',*,*,#672,.T.);
#844=ORIENTED_EDGE('',*,*,#673,.F.);
#845=ORIENTED_EDGE('',*,*,#674,.T.);
#846=ORIENTED_EDGE('',*,*,#675,.T.);
#847=ORIENTED_EDGE('',*,*,#676,.T.);
#848=ORIENTED_EDGE('',*,*,#677,.T.);
#849=ORIENTED_EDGE('',*,*,#678,.T.);
#850=ORIENTED_EDGE('',*,*,#679,.T.);
#851=ORIENTED_EDGE('',*,*,#680,.T.);
#852=ORIENTED_EDGE('',*,*,#681,.F.);
#853=ORIENTED_EDGE('',*,*,#682,.F.);
#854=ORIENTED_EDGE('',*,*,#683,.F.);
#855=ORIENTED_EDGE('',*,*,#684,.T.);
#856=ORIENTED_EDGE('',*,*,#685,.T.);
#857=ORIENTED_EDGE('',*,*,#686,.T.);
#858=ORIENTED_EDGE('',*,*,#687,.T.);
#859=ORIENTED_EDGE('',*,*,#688,.T.);
#860=ORIENTED_EDGE('',*,*,#689,.T.);
#861=ORIENTED_EDGE('',*,*,#690,.T.);
#862=ORIENTED_EDGE('',*,*,#691,.F.);
#863=ORIENTED_EDGE('',*,*,#692,.T.);
#864=ORIENTED_EDGE('',*,*,#693,.T.);
#865=ORIENTED_EDGE('',*,*,#694,.T.);
#866=ORIENTED_EDGE('',*,*,#695,.T.);
#867=ORIENTED_EDGE('',*,*,#696,.T.);
#868=ORIENTED_EDGE('',*,*,#697,.T.);
#869=ORIENTED_EDGE('',*,*,#698,.T.);
#870=ORIENTED_EDGE('',*,*,#699,.T.);
#871=ORIENTED_EDGE('',*,*,#700,.T.);
#872=ORIENTED_EDGE('',*,*,#701,.T.);
#873=ORIENTED_EDGE('',*,*,#702,.T.);
#874=ORIENTED_EDGE('',*,*,#703,.T.);
#875=ORIENTED_EDGE('',*,*,#704,.T.);
#876=ORIENTED_EDGE('',*,*,#705,.T.);
#877=ORIENTED_EDGE('',*,*,#706,.T.);
#878=ORIENTED_EDGE('',*,*,#707,.T.);
#879=ORIENTED_EDGE('',*,*,#653,.T.);
#880=ORIENTED_EDGE('',*,*,#708,.T.);
#881=ORIENTED_EDGE('',*,*,#707,.F.);
#882=ORIENTED_EDGE('',*,*,#709,.F.);
#883=ORIENTED_EDGE('',*,*,#710,.F.);
#884=ORIENTED_EDGE('',*,*,#654,.T.);
#885=ORIENTED_EDGE('',*,*,#711,.T.);
#886=ORIENTED_EDGE('',*,*,#712,.T.);
#887=ORIENTED_EDGE('',*,*,#655,.T.);
#888=ORIENTED_EDGE('',*,*,#710,.T.);
#889=ORIENTED_EDGE('',*,*,#713,.T.);
#890=ORIENTED_EDGE('',*,*,#714,.T.);
#891=ORIENTED_EDGE('',*,*,#657,.T.);
#892=ORIENTED_EDGE('',*,*,#715,.T.);
#893=ORIENTED_EDGE('',*,*,#714,.F.);
#894=ORIENTED_EDGE('',*,*,#716,.F.);
#895=ORIENTED_EDGE('',*,*,#717,.F.);
#896=ORIENTED_EDGE('',*,*,#658,.T.);
#897=ORIENTED_EDGE('',*,*,#705,.F.);
#898=ORIENTED_EDGE('',*,*,#718,.T.);
#899=ORIENTED_EDGE('',*,*,#719,.T.);
#900=ORIENTED_EDGE('',*,*,#718,.F.);
#901=ORIENTED_EDGE('',*,*,#719,.F.);
#902=ORIENTED_EDGE('',*,*,#704,.F.);
#903=ORIENTED_EDGE('',*,*,#720,.T.);
#904=ORIENTED_EDGE('',*,*,#721,.T.);
#905=ORIENTED_EDGE('',*,*,#720,.F.);
#906=ORIENTED_EDGE('',*,*,#721,.F.);
#907=ORIENTED_EDGE('',*,*,#703,.F.);
#908=ORIENTED_EDGE('',*,*,#722,.T.);
#909=ORIENTED_EDGE('',*,*,#723,.T.);
#910=ORIENTED_EDGE('',*,*,#722,.F.);
#911=ORIENTED_EDGE('',*,*,#723,.F.);
#912=ORIENTED_EDGE('',*,*,#702,.F.);
#913=ORIENTED_EDGE('',*,*,#724,.T.);
#914=ORIENTED_EDGE('',*,*,#725,.T.);
#915=ORIENTED_EDGE('',*,*,#724,.F.);
#916=ORIENTED_EDGE('',*,*,#725,.F.);
#917=ORIENTED_EDGE('',*,*,#701,.F.);
#918=ORIENTED_EDGE('',*,*,#726,.T.);
#919=ORIENTED_EDGE('',*,*,#727,.T.);
#920=ORIENTED_EDGE('',*,*,#726,.F.);
#921=ORIENTED_EDGE('',*,*,#727,.F.);
#922=ORIENTED_EDGE('',*,*,#700,.F.);
#923=ORIENTED_EDGE('',*,*,#728,.T.);
#924=ORIENTED_EDGE('',*,*,#729,.T.);
#925=ORIENTED_EDGE('',*,*,#728,.F.);
#926=ORIENTED_EDGE('',*,*,#729,.F.);
#927=ORIENTED_EDGE('',*,*,#699,.F.);
#928=ORIENTED_EDGE('',*,*,#730,.T.);
#929=ORIENTED_EDGE('',*,*,#731,.T.);
#930=ORIENTED_EDGE('',*,*,#730,.F.);
#931=ORIENTED_EDGE('',*,*,#731,.F.);
#932=ORIENTED_EDGE('',*,*,#698,.F.);
#933=ORIENTED_EDGE('',*,*,#732,.T.);
#934=ORIENTED_EDGE('',*,*,#733,.T.);
#935=ORIENTED_EDGE('',*,*,#732,.F.);
#936=ORIENTED_EDGE('',*,*,#733,.F.);
#937=ORIENTED_EDGE('',*,*,#662,.F.);
#938=ORIENTED_EDGE('',*,*,#734,.T.);
#939=ORIENTED_EDGE('',*,*,#735,.T.);
#940=ORIENTED_EDGE('',*,*,#736,.F.);
#941=ORIENTED_EDGE('',*,*,#697,.F.);
#942=ORIENTED_EDGE('',*,*,#737,.T.);
#943=ORIENTED_EDGE('',*,*,#738,.T.);
#944=ORIENTED_EDGE('',*,*,#734,.F.);
#945=ORIENTED_EDGE('',*,*,#696,.F.);
#946=ORIENTED_EDGE('',*,*,#739,.T.);
#947=ORIENTED_EDGE('',*,*,#740,.T.);
#948=ORIENTED_EDGE('',*,*,#737,.F.);
#949=ORIENTED_EDGE('',*,*,#695,.F.);
#950=ORIENTED_EDGE('',*,*,#741,.T.);
#951=ORIENTED_EDGE('',*,*,#742,.T.);
#952=ORIENTED_EDGE('',*,*,#739,.F.);
#953=ORIENTED_EDGE('',*,*,#694,.F.);
#954=ORIENTED_EDGE('',*,*,#743,.T.);
#955=ORIENTED_EDGE('',*,*,#744,.T.);
#956=ORIENTED_EDGE('',*,*,#741,.F.);
#957=ORIENTED_EDGE('',*,*,#693,.F.);
#958=ORIENTED_EDGE('',*,*,#745,.T.);
#959=ORIENTED_EDGE('',*,*,#746,.T.);
#960=ORIENTED_EDGE('',*,*,#743,.F.);
#961=ORIENTED_EDGE('',*,*,#692,.F.);
#962=ORIENTED_EDGE('',*,*,#747,.F.);
#963=ORIENTED_EDGE('',*,*,#748,.T.);
#964=ORIENTED_EDGE('',*,*,#745,.F.);
#965=ORIENTED_EDGE('',*,*,#749,.F.);
#966=ORIENTED_EDGE('',*,*,#735,.F.);
#967=ORIENTED_EDGE('',*,*,#738,.F.);
#968=ORIENTED_EDGE('',*,*,#740,.F.);
#969=ORIENTED_EDGE('',*,*,#742,.F.);
#970=ORIENTED_EDGE('',*,*,#744,.F.);
#971=ORIENTED_EDGE('',*,*,#746,.F.);
#972=ORIENTED_EDGE('',*,*,#748,.F.);
#973=ORIENTED_EDGE('',*,*,#679,.F.);
#974=ORIENTED_EDGE('',*,*,#750,.T.);
#975=ORIENTED_EDGE('',*,*,#751,.T.);
#976=ORIENTED_EDGE('',*,*,#752,.F.);
#977=ORIENTED_EDGE('',*,*,#678,.F.);
#978=ORIENTED_EDGE('',*,*,#753,.T.);
#979=ORIENTED_EDGE('',*,*,#754,.T.);
#980=ORIENTED_EDGE('',*,*,#750,.F.);
#981=ORIENTED_EDGE('',*,*,#677,.F.);
#982=ORIENTED_EDGE('',*,*,#755,.T.);
#983=ORIENTED_EDGE('',*,*,#756,.T.);
#984=ORIENTED_EDGE('',*,*,#753,.F.);
#985=ORIENTED_EDGE('',*,*,#676,.F.);
#986=ORIENTED_EDGE('',*,*,#757,.T.);
#987=ORIENTED_EDGE('',*,*,#758,.T.);
#988=ORIENTED_EDGE('',*,*,#755,.F.);
#989=ORIENTED_EDGE('',*,*,#675,.F.);
#990=ORIENTED_EDGE('',*,*,#759,.T.);
#991=ORIENTED_EDGE('',*,*,#760,.T.);
#992=ORIENTED_EDGE('',*,*,#757,.F.);
#993=ORIENTED_EDGE('',*,*,#674,.F.);
#994=ORIENTED_EDGE('',*,*,#761,.F.);
#995=ORIENTED_EDGE('',*,*,#762,.T.);
#996=ORIENTED_EDGE('',*,*,#759,.F.);
#997=ORIENTED_EDGE('',*,*,#680,.F.);
#998=ORIENTED_EDGE('',*,*,#752,.T.);
#999=ORIENTED_EDGE('',*,*,#763,.T.);
#1000=ORIENTED_EDGE('',*,*,#764,.F.);
#1001=ORIENTED_EDGE('',*,*,#763,.F.);
#1002=ORIENTED_EDGE('',*,*,#751,.F.);
#1003=ORIENTED_EDGE('',*,*,#754,.F.);
#1004=ORIENTED_EDGE('',*,*,#756,.F.);
#1005=ORIENTED_EDGE('',*,*,#758,.F.);
#1006=ORIENTED_EDGE('',*,*,#760,.F.);
#1007=ORIENTED_EDGE('',*,*,#762,.F.);
#1008=ORIENTED_EDGE('',*,*,#765,.F.);
#1009=ORIENTED_EDGE('',*,*,#689,.F.);
#1010=ORIENTED_EDGE('',*,*,#766,.T.);
#1011=ORIENTED_EDGE('',*,*,#767,.T.);
#1012=ORIENTED_EDGE('',*,*,#768,.F.);
#1013=ORIENTED_EDGE('',*,*,#688,.F.);
#1014=ORIENTED_EDGE('',*,*,#769,.T.);
#1015=ORIENTED_EDGE('',*,*,#770,.T.);
#1016=ORIENTED_EDGE('',*,*,#766,.F.);
#1017=ORIENTED_EDGE('',*,*,#687,.F.);
#1018=ORIENTED_EDGE('',*,*,#771,.T.);
#1019=ORIENTED_EDGE('',*,*,#772,.T.);
#1020=ORIENTED_EDGE('',*,*,#769,.F.);
#1021=ORIENTED_EDGE('',*,*,#686,.F.);
#1022=ORIENTED_EDGE('',*,*,#773,.T.);
#1023=ORIENTED_EDGE('',*,*,#774,.T.);
#1024=ORIENTED_EDGE('',*,*,#771,.F.);
#1025=ORIENTED_EDGE('',*,*,#685,.F.);
#1026=ORIENTED_EDGE('',*,*,#775,.T.);
#1027=ORIENTED_EDGE('',*,*,#776,.T.);
#1028=ORIENTED_EDGE('',*,*,#773,.F.);
#1029=ORIENTED_EDGE('',*,*,#684,.F.);
#1030=ORIENTED_EDGE('',*,*,#777,.F.);
#1031=ORIENTED_EDGE('',*,*,#778,.T.);
#1032=ORIENTED_EDGE('',*,*,#775,.F.);
#1033=ORIENTED_EDGE('',*,*,#690,.F.);
#1034=ORIENTED_EDGE('',*,*,#768,.T.);
#1035=ORIENTED_EDGE('',*,*,#779,.T.);
#1036=ORIENTED_EDGE('',*,*,#780,.F.);
#1037=ORIENTED_EDGE('',*,*,#779,.F.);
#1038=ORIENTED_EDGE('',*,*,#767,.F.);
#1039=ORIENTED_EDGE('',*,*,#770,.F.);
#1040=ORIENTED_EDGE('',*,*,#772,.F.);
#1041=ORIENTED_EDGE('',*,*,#774,.F.);
#1042=ORIENTED_EDGE('',*,*,#776,.F.);
#1043=ORIENTED_EDGE('',*,*,#778,.F.);
#1044=ORIENTED_EDGE('',*,*,#781,.F.);
#1045=ORIENTED_EDGE('',*,*,#671,.F.);
#1046=ORIENTED_EDGE('',*,*,#782,.T.);
#1047=ORIENTED_EDGE('',*,*,#783,.T.);
#1048=ORIENTED_EDGE('',*,*,#784,.F.);
#1049=ORIENTED_EDGE('',*,*,#670,.F.);
#1050=ORIENTED_EDGE('',*,*,#785,.T.);
#1051=ORIENTED_EDGE('',*,*,#786,.T.);
#1052=ORIENTED_EDGE('',*,*,#782,.F.);
#1053=ORIENTED_EDGE('',*,*,#669,.F.);
#1054=ORIENTED_EDGE('',*,*,#787,.T.);
#1055=ORIENTED_EDGE('',*,*,#788,.T.);
#1056=ORIENTED_EDGE('',*,*,#785,.F.);
#1057=ORIENTED_EDGE('',*,*,#668,.F.);
#1058=ORIENTED_EDGE('',*,*,#789,.T.);
#1059=ORIENTED_EDGE('',*,*,#790,.T.);
#1060=ORIENTED_EDGE('',*,*,#787,.F.);
#1061=ORIENTED_EDGE('',*,*,#667,.F.);
#1062=ORIENTED_EDGE('',*,*,#791,.T.);
#1063=ORIENTED_EDGE('',*,*,#792,.T.);
#1064=ORIENTED_EDGE('',*,*,#789,.F.);
#1065=ORIENTED_EDGE('',*,*,#666,.F.);
#1066=ORIENTED_EDGE('',*,*,#793,.F.);
#1067=ORIENTED_EDGE('',*,*,#794,.T.);
#1068=ORIENTED_EDGE('',*,*,#791,.F.);
#1069=ORIENTED_EDGE('',*,*,#672,.F.);
#1070=ORIENTED_EDGE('',*,*,#784,.T.);
#1071=ORIENTED_EDGE('',*,*,#795,.T.);
#1072=ORIENTED_EDGE('',*,*,#796,.F.);
#1073=ORIENTED_EDGE('',*,*,#795,.F.);
#1074=ORIENTED_EDGE('',*,*,#783,.F.);
#1075=ORIENTED_EDGE('',*,*,#786,.F.);
#1076=ORIENTED_EDGE('',*,*,#788,.F.);
#1077=ORIENTED_EDGE('',*,*,#790,.F.);
#1078=ORIENTED_EDGE('',*,*,#792,.F.);
#1079=ORIENTED_EDGE('',*,*,#794,.F.);
#1080=ORIENTED_EDGE('',*,*,#797,.F.);
#1081=ORIENTED_EDGE('',*,*,#736,.T.);
#1082=ORIENTED_EDGE('',*,*,#749,.T.);
#1083=ORIENTED_EDGE('',*,*,#747,.T.);
#1084=ORIENTED_EDGE('',*,*,#691,.T.);
#1085=ORIENTED_EDGE('',*,*,#780,.T.);
#1086=ORIENTED_EDGE('',*,*,#781,.T.);
#1087=ORIENTED_EDGE('',*,*,#777,.T.);
#1088=ORIENTED_EDGE('',*,*,#683,.T.);
#1089=ORIENTED_EDGE('',*,*,#798,.T.);
#1090=ORIENTED_EDGE('',*,*,#799,.F.);
#1091=ORIENTED_EDGE('',*,*,#800,.F.);
#1092=ORIENTED_EDGE('',*,*,#663,.T.);
#1093=ORIENTED_EDGE('',*,*,#764,.T.);
#1094=ORIENTED_EDGE('',*,*,#765,.T.);
#1095=ORIENTED_EDGE('',*,*,#761,.T.);
#1096=ORIENTED_EDGE('',*,*,#673,.T.);
#1097=ORIENTED_EDGE('',*,*,#796,.T.);
#1098=ORIENTED_EDGE('',*,*,#797,.T.);
#1099=ORIENTED_EDGE('',*,*,#793,.T.);
#1100=ORIENTED_EDGE('',*,*,#665,.T.);
#1101=ORIENTED_EDGE('',*,*,#801,.T.);
#1102=ORIENTED_EDGE('',*,*,#802,.F.);
#1103=ORIENTED_EDGE('',*,*,#803,.F.);
#1104=ORIENTED_EDGE('',*,*,#681,.T.);
#1105=ORIENTED_EDGE('',*,*,#682,.T.);
#1106=ORIENTED_EDGE('',*,*,#803,.T.);
#1107=ORIENTED_EDGE('',*,*,#804,.F.);
#1108=ORIENTED_EDGE('',*,*,#798,.F.);
#1109=ORIENTED_EDGE('',*,*,#664,.T.);
#1110=ORIENTED_EDGE('',*,*,#800,.T.);
#1111=ORIENTED_EDGE('',*,*,#805,.F.);
#1112=ORIENTED_EDGE('',*,*,#801,.F.);
#1113=ORIENTED_EDGE('',*,*,#659,.F.);
#1114=ORIENTED_EDGE('',*,*,#717,.T.);
#1115=ORIENTED_EDGE('',*,*,#806,.F.);
#1116=ORIENTED_EDGE('',*,*,#807,.F.);
#1117=ORIENTED_EDGE('',*,*,#660,.F.);
#1118=ORIENTED_EDGE('',*,*,#807,.T.);
#1119=ORIENTED_EDGE('',*,*,#808,.F.);
#1120=ORIENTED_EDGE('',*,*,#809,.F.);
#1121=ORIENTED_EDGE('',*,*,#661,.F.);
#1122=ORIENTED_EDGE('',*,*,#809,.T.);
#1123=ORIENTED_EDGE('',*,*,#810,.F.);
#1124=ORIENTED_EDGE('',*,*,#650,.F.);
#1125=ORIENTED_EDGE('',*,*,#646,.F.);
#1126=ORIENTED_EDGE('',*,*,#811,.F.);
#1127=ORIENTED_EDGE('',*,*,#708,.F.);
#1128=ORIENTED_EDGE('',*,*,#652,.T.);
#1129=ORIENTED_EDGE('',*,*,#712,.F.);
#1130=ORIENTED_EDGE('',*,*,#812,.F.);
#1131=ORIENTED_EDGE('',*,*,#715,.F.);
#1132=ORIENTED_EDGE('',*,*,#656,.T.);
#1133=ORIENTED_EDGE('',*,*,#645,.F.);
#1134=ORIENTED_EDGE('',*,*,#651,.T.);
#1135=ORIENTED_EDGE('',*,*,#810,.T.);
#1136=ORIENTED_EDGE('',*,*,#808,.T.);
#1137=ORIENTED_EDGE('',*,*,#806,.T.);
#1138=ORIENTED_EDGE('',*,*,#716,.T.);
#1139=ORIENTED_EDGE('',*,*,#713,.F.);
#1140=ORIENTED_EDGE('',*,*,#812,.T.);
#1141=ORIENTED_EDGE('',*,*,#711,.F.);
#1142=ORIENTED_EDGE('',*,*,#709,.T.);
#1143=ORIENTED_EDGE('',*,*,#706,.F.);
#1144=ORIENTED_EDGE('',*,*,#811,.T.);
#1145=ORIENTED_EDGE('',*,*,#802,.T.);
#1146=ORIENTED_EDGE('',*,*,#805,.T.);
#1147=ORIENTED_EDGE('',*,*,#799,.T.);
#1148=ORIENTED_EDGE('',*,*,#804,.T.);
#1149=CYLINDRICAL_SURFACE('',#1241,5.);
#1150=CYLINDRICAL_SURFACE('',#1257,5.);
#1151=CYLINDRICAL_SURFACE('',#1260,5.);
#1152=CYLINDRICAL_SURFACE('',#1262,5.);
#1153=CYLINDRICAL_SURFACE('',#1265,0.8877);
#1154=CYLINDRICAL_SURFACE('',#1268,0.8877);
#1155=CYLINDRICAL_SURFACE('',#1271,0.8877);
#1156=CYLINDRICAL_SURFACE('',#1274,0.8877);
#1157=CYLINDRICAL_SURFACE('',#1277,0.8877);
#1158=CYLINDRICAL_SURFACE('',#1280,0.8877);
#1159=CYLINDRICAL_SURFACE('',#1283,0.8877);
#1160=CYLINDRICAL_SURFACE('',#1286,0.8877);
#1161=ADVANCED_FACE('',(#79),#1149,.T.);
#1162=ADVANCED_FACE('',(#80),#25,.T.);
#1163=ADVANCED_FACE('',(#81,#15,#16,#17,#18,#19,#20,#21,#22,#23),#26,.F.);
#1164=ADVANCED_FACE('',(#82),#1150,.T.);
#1165=ADVANCED_FACE('',(#83),#27,.T.);
#1166=ADVANCED_FACE('',(#84),#1151,.T.);
#1167=ADVANCED_FACE('',(#85),#1152,.T.);
#1168=ADVANCED_FACE('',(#86),#28,.T.);
#1169=ADVANCED_FACE('',(#87),#1153,.F.);
#1170=ADVANCED_FACE('',(#88),#29,.F.);
#1171=ADVANCED_FACE('',(#89),#1154,.F.);
#1172=ADVANCED_FACE('',(#90),#30,.F.);
#1173=ADVANCED_FACE('',(#91),#1155,.F.);
#1174=ADVANCED_FACE('',(#92),#31,.F.);
#1175=ADVANCED_FACE('',(#93),#1156,.F.);
#1176=ADVANCED_FACE('',(#94),#32,.F.);
#1177=ADVANCED_FACE('',(#95),#1157,.F.);
#1178=ADVANCED_FACE('',(#96),#33,.F.);
#1179=ADVANCED_FACE('',(#97),#1158,.F.);
#1180=ADVANCED_FACE('',(#98),#34,.F.);
#1181=ADVANCED_FACE('',(#99),#1159,.F.);
#1182=ADVANCED_FACE('',(#100),#35,.F.);
#1183=ADVANCED_FACE('',(#101),#1160,.F.);
#1184=ADVANCED_FACE('',(#102),#36,.F.);
#1185=ADVANCED_FACE('',(#103),#37,.F.);
#1186=ADVANCED_FACE('',(#104),#38,.F.);
#1187=ADVANCED_FACE('',(#105),#39,.F.);
#1188=ADVANCED_FACE('',(#106),#40,.F.);
#1189=ADVANCED_FACE('',(#107),#41,.F.);
#1190=ADVANCED_FACE('',(#108),#42,.F.);
#1191=ADVANCED_FACE('',(#109),#43,.F.);
#1192=ADVANCED_FACE('',(#110),#44,.F.);
#1193=ADVANCED_FACE('',(#111),#45,.F.);
#1194=ADVANCED_FACE('',(#112),#46,.F.);
#1195=ADVANCED_FACE('',(#113),#47,.F.);
#1196=ADVANCED_FACE('',(#114),#48,.F.);
#1197=ADVANCED_FACE('',(#115),#49,.F.);
#1198=ADVANCED_FACE('',(#116),#50,.F.);
#1199=ADVANCED_FACE('',(#117),#51,.F.);
#1200=ADVANCED_FACE('',(#118),#52,.F.);
#1201=ADVANCED_FACE('',(#119),#53,.F.);
#1202=ADVANCED_FACE('',(#120),#54,.F.);
#1203=ADVANCED_FACE('',(#121),#55,.F.);
#1204=ADVANCED_FACE('',(#122),#56,.F.);
#1205=ADVANCED_FACE('',(#123),#57,.F.);
#1206=ADVANCED_FACE('',(#124),#58,.F.);
#1207=ADVANCED_FACE('',(#125),#59,.F.);
#1208=ADVANCED_FACE('',(#126),#60,.F.);
#1209=ADVANCED_FACE('',(#127),#61,.F.);
#1210=ADVANCED_FACE('',(#128),#62,.F.);
#1211=ADVANCED_FACE('',(#129),#63,.F.);
#1212=ADVANCED_FACE('',(#130),#64,.F.);
#1213=ADVANCED_FACE('',(#131),#65,.F.);
#1214=ADVANCED_FACE('',(#132),#66,.F.);
#1215=ADVANCED_FACE('',(#133),#67,.F.);
#1216=ADVANCED_FACE('',(#134),#68,.F.);
#1217=ADVANCED_FACE('',(#135),#69,.T.);
#1218=ADVANCED_FACE('',(#136),#70,.T.);
#1219=ADVANCED_FACE('',(#137),#71,.T.);
#1220=ADVANCED_FACE('',(#138),#72,.T.);
#1221=ADVANCED_FACE('',(#139),#73,.T.);
#1222=ADVANCED_FACE('',(#140),#74,.T.);
#1223=ADVANCED_FACE('',(#141),#75,.T.);
#1224=ADVANCED_FACE('',(#142),#76,.T.);
#1225=ADVANCED_FACE('',(#143),#77,.T.);
#1226=ADVANCED_FACE('',(#144,#24),#78,.T.);
#1227=CLOSED_SHELL('',(#1161,#1162,#1163,#1164,#1165,#1166,#1167,#1168,
#1169,#1170,#1171,#1172,#1173,#1174,#1175,#1176,#1177,#1178,#1179,#1180,
#1181,#1182,#1183,#1184,#1185,#1186,#1187,#1188,#1189,#1190,#1191,#1192,
#1193,#1194,#1195,#1196,#1197,#1198,#1199,#1200,#1201,#1202,#1203,#1204,
#1205,#1206,#1207,#1208,#1209,#1210,#1211,#1212,#1213,#1214,#1215,#1216,
#1217,#1218,#1219,#1220,#1221,#1222,#1223,#1224,#1225,#1226));
#1228=DERIVED_UNIT_ELEMENT(#1230,1.);
#1229=DERIVED_UNIT_ELEMENT(#2009,-3.);
#1230=(
MASS_UNIT()
NAMED_UNIT(*)
SI_UNIT(.KILO.,.GRAM.)
);
#1231=DERIVED_UNIT((#1228,#1229));
#1232=MEASURE_REPRESENTATION_ITEM('density measure',
POSITIVE_RATIO_MEASURE(7850.),#1231);
#1233=PROPERTY_DEFINITION_REPRESENTATION(#1238,#1235);
#1234=PROPERTY_DEFINITION_REPRESENTATION(#1239,#1236);
#1235=REPRESENTATION('material name',(#1237),#2006);
#1236=REPRESENTATION('density',(#1232),#2006);
#1237=DESCRIPTIVE_REPRESENTATION_ITEM('Steel','Steel');
#1238=PROPERTY_DEFINITION('material property','material name',#2016);
#1239=PROPERTY_DEFINITION('material property','density of part',#2016);
#1240=AXIS2_PLACEMENT_3D('',#1657,#1331,#1332);
#1241=AXIS2_PLACEMENT_3D('',#1658,#1333,#1334);
#1242=AXIS2_PLACEMENT_3D('',#1661,#1335,#1336);
#1243=AXIS2_PLACEMENT_3D('',#1665,#1338,#1339);
#1244=AXIS2_PLACEMENT_3D('',#1667,#1341,#1342);
#1245=AXIS2_PLACEMENT_3D('',#1673,#1346,#1347);
#1246=AXIS2_PLACEMENT_3D('',#1677,#1349,#1350);
#1247=AXIS2_PLACEMENT_3D('',#1681,#1352,#1353);
#1248=AXIS2_PLACEMENT_3D('',#1685,#1355,#1356);
#1249=AXIS2_PLACEMENT_3D('',#1766,#1397,#1398);
#1250=AXIS2_PLACEMENT_3D('',#1768,#1399,#1400);
#1251=AXIS2_PLACEMENT_3D('',#1770,#1401,#1402);
#1252=AXIS2_PLACEMENT_3D('',#1772,#1403,#1404);
#1253=AXIS2_PLACEMENT_3D('',#1774,#1405,#1406);
#1254=AXIS2_PLACEMENT_3D('',#1776,#1407,#1408);
#1255=AXIS2_PLACEMENT_3D('',#1778,#1409,#1410);
#1256=AXIS2_PLACEMENT_3D('',#1780,#1411,#1412);
#1257=AXIS2_PLACEMENT_3D('',#1781,#1413,#1414);
#1258=AXIS2_PLACEMENT_3D('',#1784,#1415,#1416);
#1259=AXIS2_PLACEMENT_3D('',#1787,#1419,#1420);
#1260=AXIS2_PLACEMENT_3D('',#1791,#1423,#1424);
#1261=AXIS2_PLACEMENT_3D('',#1793,#1425,#1426);
#1262=AXIS2_PLACEMENT_3D('',#1795,#1428,#1429);
#1263=AXIS2_PLACEMENT_3D('',#1798,#1430,#1431);
#1264=AXIS2_PLACEMENT_3D('',#1801,#1434,#1435);
#1265=AXIS2_PLACEMENT_3D('',#1805,#1438,#1439);
#1266=AXIS2_PLACEMENT_3D('',#1808,#1441,#1442);
#1267=AXIS2_PLACEMENT_3D('',#1809,#1443,#1444);
#1268=AXIS2_PLACEMENT_3D('',#1810,#1445,#1446);
#1269=AXIS2_PLACEMENT_3D('',#1813,#1448,#1449);
#1270=AXIS2_PLACEMENT_3D('',#1814,#1450,#1451);
#1271=AXIS2_PLACEMENT_3D('',#1815,#1452,#1453);
#1272=AXIS2_PLACEMENT_3D('',#1818,#1455,#1456);
#1273=AXIS2_PLACEMENT_3D('',#1819,#1457,#1458);
#1274=AXIS2_PLACEMENT_3D('',#1820,#1459,#1460);
#1275=AXIS2_PLACEMENT_3D('',#1823,#1462,#1463);
#1276=AXIS2_PLACEMENT_3D('',#1824,#1464,#1465);
#1277=AXIS2_PLACEMENT_3D('',#1825,#1466,#1467);
#1278=AXIS2_PLACEMENT_3D('',#1828,#1469,#1470);
#1279=AXIS2_PLACEMENT_3D('',#1829,#1471,#1472);
#1280=AXIS2_PLACEMENT_3D('',#1830,#1473,#1474);
#1281=AXIS2_PLACEMENT_3D('',#1833,#1476,#1477);
#1282=AXIS2_PLACEMENT_3D('',#1834,#1478,#1479);
#1283=AXIS2_PLACEMENT_3D('',#1835,#1480,#1481);
#1284=AXIS2_PLACEMENT_3D('',#1838,#1483,#1484);
#1285=AXIS2_PLACEMENT_3D('',#1839,#1485,#1486);
#1286=AXIS2_PLACEMENT_3D('',#1840,#1487,#1488);
#1287=AXIS2_PLACEMENT_3D('',#1843,#1490,#1491);
#1288=AXIS2_PLACEMENT_3D('',#1844,#1492,#1493);
#1289=AXIS2_PLACEMENT_3D('',#1845,#1494,#1495);
#1290=AXIS2_PLACEMENT_3D('',#1851,#1499,#1500);
#1291=AXIS2_PLACEMENT_3D('',#1855,#1503,#1504);
#1292=AXIS2_PLACEMENT_3D('',#1859,#1507,#1508);
#1293=AXIS2_PLACEMENT_3D('',#1863,#1511,#1512);
#1294=AXIS2_PLACEMENT_3D('',#1867,#1515,#1516);
#1295=AXIS2_PLACEMENT_3D('',#1871,#1519,#1520);
#1296=AXIS2_PLACEMENT_3D('',#1875,#1523,#1524);
#1297=AXIS2_PLACEMENT_3D('',#1877,#1526,#1527);
#1298=AXIS2_PLACEMENT_3D('',#1883,#1531,#1532);
#1299=AXIS2_PLACEMENT_3D('',#1887,#1535,#1536);
#1300=AXIS2_PLACEMENT_3D('',#1891,#1539,#1540);
#1301=AXIS2_PLACEMENT_3D('',#1895,#1543,#1544);
#1302=AXIS2_PLACEMENT_3D('',#1899,#1547,#1548);
#1303=AXIS2_PLACEMENT_3D('',#1903,#1551,#1552);
#1304=AXIS2_PLACEMENT_3D('',#1907,#1555,#1556);
#1305=AXIS2_PLACEMENT_3D('',#1909,#1558,#1559);
#1306=AXIS2_PLACEMENT_3D('',#1915,#1563,#1564);
#1307=AXIS2_PLACEMENT_3D('',#1919,#1567,#1568);
#1308=AXIS2_PLACEMENT_3D('',#1923,#1571,#1572);
#1309=AXIS2_PLACEMENT_3D('',#1927,#1575,#1576);
#1310=AXIS2_PLACEMENT_3D('',#1931,#1579,#1580);
#1311=AXIS2_PLACEMENT_3D('',#1935,#1583,#1584);
#1312=AXIS2_PLACEMENT_3D('',#1939,#1587,#1588);
#1313=AXIS2_PLACEMENT_3D('',#1941,#1590,#1591);
#1314=AXIS2_PLACEMENT_3D('',#1947,#1595,#1596);
#1315=AXIS2_PLACEMENT_3D('',#1951,#1599,#1600);
#1316=AXIS2_PLACEMENT_3D('',#1955,#1603,#1604);
#1317=AXIS2_PLACEMENT_3D('',#1959,#1607,#1608);
#1318=AXIS2_PLACEMENT_3D('',#1963,#1611,#1612);
#1319=AXIS2_PLACEMENT_3D('',#1967,#1615,#1616);
#1320=AXIS2_PLACEMENT_3D('',#1971,#1619,#1620);
#1321=AXIS2_PLACEMENT_3D('',#1973,#1622,#1623);
#1322=AXIS2_PLACEMENT_3D('',#1979,#1627,#1628);
#1323=AXIS2_PLACEMENT_3D('',#1985,#1632,#1633);
#1324=AXIS2_PLACEMENT_3D('',#1987,#1635,#1636);
#1325=AXIS2_PLACEMENT_3D('',#1989,#1638,#1639);
#1326=AXIS2_PLACEMENT_3D('',#1993,#1642,#1643);
#1327=AXIS2_PLACEMENT_3D('',#1997,#1646,#1647);
#1328=AXIS2_PLACEMENT_3D('',#1999,#1649,#1650);
#1329=AXIS2_PLACEMENT_3D('',#2001,#1652,#1653);
#1330=AXIS2_PLACEMENT_3D('',#2003,#1655,#1656);
#1331=DIRECTION('axis',(0.,0.,1.));
#1332=DIRECTION('refdir',(1.,0.,0.));
#1333=DIRECTION('center_axis',(0.,0.,1.));
#1334=DIRECTION('ref_axis',(0.707106781186547,0.707106781186547,0.));
#1335=DIRECTION('center_axis',(0.,0.,-1.));
#1336=DIRECTION('ref_axis',(0.707106781186547,0.707106781186547,0.));
#1337=DIRECTION('',(0.,0.,-1.));
#1338=DIRECTION('center_axis',(0.,0.,1.));
#1339=DIRECTION('ref_axis',(0.707106781186547,0.707106781186547,0.));
#1340=DIRECTION('',(0.,0.,1.));
#1341=DIRECTION('center_axis',(0.,1.,0.));
#1342=DIRECTION('ref_axis',(-1.,0.,0.));
#1343=DIRECTION('',(-1.,0.,0.));
#1344=DIRECTION('',(0.,0.,1.));
#1345=DIRECTION('',(-1.,0.,0.));
#1346=DIRECTION('center_axis',(0.,0.,1.));
#1347=DIRECTION('ref_axis',(1.,0.,0.));
#1348=DIRECTION('',(0.,1.,0.));
#1349=DIRECTION('center_axis',(0.,0.,1.));
#1350=DIRECTION('ref_axis',(0.707106781186547,-0.707106781186547,0.));
#1351=DIRECTION('',(1.,0.,0.));
#1352=DIRECTION('center_axis',(0.,0.,1.));
#1353=DIRECTION('ref_axis',(-0.707106781186547,-0.707106781186547,0.));
#1354=DIRECTION('',(0.,-1.,0.));
#1355=DIRECTION('center_axis',(0.,0.,1.));
#1356=DIRECTION('ref_axis',(-0.707106781186547,0.707106781186547,0.));
#1357=DIRECTION('',(-1.,0.,0.));
#1358=DIRECTION('',(0.,-1.,0.));
#1359=DIRECTION('',(1.,0.,0.));
#1360=DIRECTION('',(0.,1.,0.));
#1361=DIRECTION('',(0.,1.,0.));
#1362=DIRECTION('',(-1.,0.,0.));
#1363=DIRECTION('',(0.,-1.,0.));
#1364=DIRECTION('',(1.,0.,0.));
#1365=DIRECTION('',(0.,1.,0.));
#1366=DIRECTION('',(1.,0.,0.));
#1367=DIRECTION('',(0.,1.,0.));
#1368=DIRECTION('',(-1.,0.,0.));
#1369=DIRECTION('',(0.,-1.,0.));
#1370=DIRECTION('',(1.,0.,0.));
#1371=DIRECTION('',(0.,-1.,0.));
#1372=DIRECTION('',(1.,0.,0.));
#1373=DIRECTION('',(0.,1.,0.));
#1374=DIRECTION('',(1.,0.,0.));
#1375=DIRECTION('',(0.,1.,0.));
#1376=DIRECTION('',(-1.,0.,0.));
#1377=DIRECTION('',(0.,-1.,0.));
#1378=DIRECTION('',(1.,0.,0.));
#1379=DIRECTION('',(0.,-1.,0.));
#1380=DIRECTION('',(1.,0.,0.));
#1381=DIRECTION('',(0.,1.,0.));
#1382=DIRECTION('',(-1.,0.,0.));
#1383=DIRECTION('',(0.,-1.,0.));
#1384=DIRECTION('',(-1.,0.,0.));
#1385=DIRECTION('',(0.,-1.,0.));
#1386=DIRECTION('',(1.,0.,0.));
#1387=DIRECTION('',(0.,1.,0.));
#1388=DIRECTION('',(-1.,0.,0.));
#1389=DIRECTION('',(0.,1.,0.));
#1390=DIRECTION('',(-1.,0.,0.));
#1391=DIRECTION('',(0.,-1.,0.));
#1392=DIRECTION('',(-1.,0.,0.));
#1393=DIRECTION('',(0.,-1.,0.));
#1394=DIRECTION('',(1.,0.,0.));
#1395=DIRECTION('',(0.,1.,0.));
#1396=DIRECTION('',(-1.,0.,0.));
#1397=DIRECTION('center_axis',(0.,0.,-1.));
#1398=DIRECTION('ref_axis',(1.,0.,0.));
#1399=DIRECTION('center_axis',(0.,0.,-1.));
#1400=DIRECTION('ref_axis',(1.,0.,0.));
#1401=DIRECTION('center_axis',(0.,0.,-1.));
#1402=DIRECTION('ref_axis',(1.,0.,0.));
#1403=DIRECTION('center_axis',(0.,0.,-1.));
#1404=DIRECTION('ref_axis',(1.,0.,0.));
#1405=DIRECTION('center_axis',(0.,0.,-1.));
#1406=DIRECTION('ref_axis',(1.,0.,0.));
#1407=DIRECTION('center_axis',(0.,0.,-1.));
#1408=DIRECTION('ref_axis',(1.,0.,0.));
#1409=DIRECTION('center_axis',(0.,0.,-1.));
#1410=DIRECTION('ref_axis',(1.,0.,0.));
#1411=DIRECTION('center_axis',(0.,0.,-1.));
#1412=DIRECTION('ref_axis',(1.,0.,0.));
#1413=DIRECTION('center_axis',(0.,0.,1.));
#1414=DIRECTION('ref_axis',(0.707106781186547,-0.707106781186547,0.));
#1415=DIRECTION('center_axis',(0.,0.,-1.));
#1416=DIRECTION('ref_axis',(0.707106781186547,-0.707106781186547,0.));
#1417=DIRECTION('',(0.,0.,-1.));
#1418=DIRECTION('',(0.,0.,1.));
#1419=DIRECTION('center_axis',(0.,-1.,0.));
#1420=DIRECTION('ref_axis',(1.,0.,0.));
#1421=DIRECTION('',(1.,0.,0.));
#1422=DIRECTION('',(0.,0.,1.));
#1423=DIRECTION('center_axis',(0.,0.,1.));
#1424=DIRECTION('ref_axis',(-0.707106781186547,-0.707106781186547,0.));
#1425=DIRECTION('center_axis',(0.,0.,-1.));
#1426=DIRECTION('ref_axis',(-0.707106781186547,-0.707106781186547,0.));
#1427=DIRECTION('',(0.,0.,-1.));
#1428=DIRECTION('center_axis',(0.,0.,1.));
#1429=DIRECTION('ref_axis',(-0.707106781186547,0.707106781186547,0.));
#1430=DIRECTION('center_axis',(0.,0.,-1.));
#1431=DIRECTION('ref_axis',(-0.707106781186547,0.707106781186547,0.));
#1432=DIRECTION('',(0.,0.,-1.));
#1433=DIRECTION('',(0.,0.,1.));
#1434=DIRECTION('center_axis',(0.,1.,0.));
#1435=DIRECTION('ref_axis',(-1.,0.,0.));
#1436=DIRECTION('',(-1.,0.,0.));
#1437=DIRECTION('',(0.,0.,1.));
#1438=DIRECTION('center_axis',(0.,0.,1.));
#1439=DIRECTION('ref_axis',(1.,0.,0.));
#1440=DIRECTION('',(0.,0.,1.));
#1441=DIRECTION('center_axis',(0.,0.,-1.));
#1442=DIRECTION('ref_axis',(1.,0.,0.));
#1443=DIRECTION('center_axis',(0.,0.,1.));
#1444=DIRECTION('ref_axis',(1.,0.,0.));
#1445=DIRECTION('center_axis',(0.,0.,1.));
#1446=DIRECTION('ref_axis',(1.,0.,0.));
#1447=DIRECTION('',(0.,0.,1.));
#1448=DIRECTION('center_axis',(0.,0.,-1.));
#1449=DIRECTION('ref_axis',(1.,0.,0.));
#1450=DIRECTION('center_axis',(0.,0.,1.));
#1451=DIRECTION('ref_axis',(1.,0.,0.));
#1452=DIRECTION('center_axis',(0.,0.,1.));
#1453=DIRECTION('ref_axis',(1.,0.,0.));
#1454=DIRECTION('',(0.,0.,1.));
#1455=DIRECTION('center_axis',(0.,0.,-1.));
#1456=DIRECTION('ref_axis',(1.,0.,0.));
#1457=DIRECTION('center_axis',(0.,0.,1.));
#1458=DIRECTION('ref_axis',(1.,0.,0.));
#1459=DIRECTION('center_axis',(0.,0.,1.));
#1460=DIRECTION('ref_axis',(1.,0.,0.));
#1461=DIRECTION('',(0.,0.,1.));
#1462=DIRECTION('center_axis',(0.,0.,-1.));
#1463=DIRECTION('ref_axis',(1.,0.,0.));
#1464=DIRECTION('center_axis',(0.,0.,1.));
#1465=DIRECTION('ref_axis',(1.,0.,0.));
#1466=DIRECTION('center_axis',(0.,0.,1.));
#1467=DIRECTION('ref_axis',(1.,0.,0.));
#1468=DIRECTION('',(0.,0.,1.));
#1469=DIRECTION('center_axis',(0.,0.,-1.));
#1470=DIRECTION('ref_axis',(1.,0.,0.));
#1471=DIRECTION('center_axis',(0.,0.,1.));
#1472=DIRECTION('ref_axis',(1.,0.,0.));
#1473=DIRECTION('center_axis',(0.,0.,1.));
#1474=DIRECTION('ref_axis',(1.,0.,0.));
#1475=DIRECTION('',(0.,0.,1.));
#1476=DIRECTION('center_axis',(0.,0.,-1.));
#1477=DIRECTION('ref_axis',(1.,0.,0.));
#1478=DIRECTION('center_axis',(0.,0.,1.));
#1479=DIRECTION('ref_axis',(1.,0.,0.));
#1480=DIRECTION('center_axis',(0.,0.,1.));
#1481=DIRECTION('ref_axis',(1.,0.,0.));
#1482=DIRECTION('',(0.,0.,1.));
#1483=DIRECTION('center_axis',(0.,0.,-1.));
#1484=DIRECTION('ref_axis',(1.,0.,0.));
#1485=DIRECTION('center_axis',(0.,0.,1.));
#1486=DIRECTION('ref_axis',(1.,0.,0.));
#1487=DIRECTION('center_axis',(0.,0.,1.));
#1488=DIRECTION('ref_axis',(1.,0.,0.));
#1489=DIRECTION('',(0.,0.,1.));
#1490=DIRECTION('center_axis',(0.,0.,-1.));
#1491=DIRECTION('ref_axis',(1.,0.,0.));
#1492=DIRECTION('center_axis',(0.,0.,1.));
#1493=DIRECTION('ref_axis',(1.,0.,0.));
#1494=DIRECTION('center_axis',(1.,0.,0.));
#1495=DIRECTION('ref_axis',(0.,1.,0.));
#1496=DIRECTION('',(0.,0.,1.));
#1497=DIRECTION('',(0.,1.,0.));
#1498=DIRECTION('',(0.,0.,1.));
#1499=DIRECTION('center_axis',(0.,1.,0.));
#1500=DIRECTION('ref_axis',(-1.,0.,0.));
#1501=DIRECTION('',(0.,0.,1.));
#1502=DIRECTION('',(-1.,0.,0.));
#1503=DIRECTION('center_axis',(1.,0.,0.));
#1504=DIRECTION('ref_axis',(0.,1.,0.));
#1505=DIRECTION('',(0.,0.,1.));
#1506=DIRECTION('',(0.,1.,0.));
#1507=DIRECTION('center_axis',(0.,-1.,0.));
#1508=DIRECTION('ref_axis',(1.,0.,0.));
#1509=DIRECTION('',(0.,0.,1.));
#1510=DIRECTION('',(1.,0.,0.));
#1511=DIRECTION('center_axis',(-1.,0.,0.));
#1512=DIRECTION('ref_axis',(0.,-1.,0.));
#1513=DIRECTION('',(0.,0.,1.));
#1514=DIRECTION('',(0.,-1.,0.));
#1515=DIRECTION('center_axis',(0.,1.,0.));
#1516=DIRECTION('ref_axis',(-1.,0.,0.));
#1517=DIRECTION('',(0.,0.,1.));
#1518=DIRECTION('',(-1.,0.,0.));
#1519=DIRECTION('center_axis',(-1.,0.,0.));
#1520=DIRECTION('ref_axis',(0.,-1.,0.));
#1521=DIRECTION('',(0.,0.,-1.));
#1522=DIRECTION('',(0.,-1.,0.));
#1523=DIRECTION('center_axis',(0.,0.,1.));
#1524=DIRECTION('ref_axis',(1.,0.,0.));
#1525=DIRECTION('',(-1.,0.,0.));
#1526=DIRECTION('center_axis',(0.,-1.,0.));
#1527=DIRECTION('ref_axis',(1.,0.,0.));
#1528=DIRECTION('',(0.,0.,1.));
#1529=DIRECTION('',(1.,0.,0.));
#1530=DIRECTION('',(0.,0.,1.));
#1531=DIRECTION('center_axis',(-1.,0.,0.));
#1532=DIRECTION('ref_axis',(0.,-1.,0.));
#1533=DIRECTION('',(0.,0.,1.));
#1534=DIRECTION('',(0.,-1.,0.));
#1535=DIRECTION('center_axis',(0.,1.,0.));
#1536=DIRECTION('ref_axis',(-1.,0.,0.));
#1537=DIRECTION('',(0.,0.,1.));
#1538=DIRECTION('',(-1.,0.,0.));
#1539=DIRECTION('center_axis',(1.,0.,0.));
#1540=DIRECTION('ref_axis',(0.,1.,0.));
#1541=DIRECTION('',(0.,0.,1.));
#1542=DIRECTION('',(0.,1.,0.));
#1543=DIRECTION('center_axis',(0.,-1.,0.));
#1544=DIRECTION('ref_axis',(1.,0.,0.));
#1545=DIRECTION('',(0.,0.,1.));
#1546=DIRECTION('',(1.,0.,0.));
#1547=DIRECTION('center_axis',(1.,0.,0.));
#1548=DIRECTION('ref_axis',(0.,1.,0.));
#1549=DIRECTION('',(0.,0.,-1.));
#1550=DIRECTION('',(0.,1.,0.));
#1551=DIRECTION('center_axis',(-1.,0.,0.));
#1552=DIRECTION('ref_axis',(0.,-1.,0.));
#1553=DIRECTION('',(0.,-1.,0.));
#1554=DIRECTION('',(0.,0.,1.));
#1555=DIRECTION('center_axis',(0.,0.,1.));
#1556=DIRECTION('ref_axis',(1.,0.,0.));
#1557=DIRECTION('',(1.,0.,0.));
#1558=DIRECTION('center_axis',(0.,1.,0.));
#1559=DIRECTION('ref_axis',(-1.,0.,0.));
#1560=DIRECTION('',(0.,0.,1.));
#1561=DIRECTION('',(-1.,0.,0.));
#1562=DIRECTION('',(0.,0.,1.));
#1563=DIRECTION('center_axis',(1.,0.,0.));
#1564=DIRECTION('ref_axis',(0.,1.,0.));
#1565=DIRECTION('',(0.,0.,1.));
#1566=DIRECTION('',(0.,1.,0.));
#1567=DIRECTION('center_axis',(0.,-1.,0.));
#1568=DIRECTION('ref_axis',(1.,0.,0.));
#1569=DIRECTION('',(0.,0.,1.));
#1570=DIRECTION('',(1.,0.,0.));
#1571=DIRECTION('center_axis',(-1.,0.,0.));
#1572=DIRECTION('ref_axis',(0.,-1.,0.));
#1573=DIRECTION('',(0.,0.,1.));
#1574=DIRECTION('',(0.,-1.,0.));
#1575=DIRECTION('center_axis',(0.,1.,0.));
#1576=DIRECTION('ref_axis',(-1.,0.,0.));
#1577=DIRECTION('',(0.,0.,1.));
#1578=DIRECTION('',(-1.,0.,0.));
#1579=DIRECTION('center_axis',(-1.,0.,0.));
#1580=DIRECTION('ref_axis',(0.,-1.,0.));
#1581=DIRECTION('',(0.,0.,-1.));
#1582=DIRECTION('',(0.,-1.,0.));
#1583=DIRECTION('center_axis',(1.,0.,0.));
#1584=DIRECTION('ref_axis',(0.,1.,0.));
#1585=DIRECTION('',(0.,1.,0.));
#1586=DIRECTION('',(0.,0.,1.));
#1587=DIRECTION('center_axis',(0.,0.,1.));
#1588=DIRECTION('ref_axis',(1.,0.,0.));
#1589=DIRECTION('',(-1.,0.,0.));
#1590=DIRECTION('center_axis',(0.,-1.,0.));
#1591=DIRECTION('ref_axis',(1.,0.,0.));
#1592=DIRECTION('',(0.,0.,1.));
#1593=DIRECTION('',(1.,0.,0.));
#1594=DIRECTION('',(0.,0.,1.));
#1595=DIRECTION('center_axis',(-1.,0.,0.));
#1596=DIRECTION('ref_axis',(0.,-1.,0.));
#1597=DIRECTION('',(0.,0.,1.));
#1598=DIRECTION('',(0.,-1.,0.));
#1599=DIRECTION('center_axis',(0.,1.,0.));
#1600=DIRECTION('ref_axis',(-1.,0.,0.));
#1601=DIRECTION('',(0.,0.,1.));
#1602=DIRECTION('',(-1.,0.,0.));
#1603=DIRECTION('center_axis',(1.,0.,0.));
#1604=DIRECTION('ref_axis',(0.,1.,0.));
#1605=DIRECTION('',(0.,0.,1.));
#1606=DIRECTION('',(0.,1.,0.));
#1607=DIRECTION('center_axis',(0.,-1.,0.));
#1608=DIRECTION('ref_axis',(1.,0.,0.));
#1609=DIRECTION('',(0.,0.,1.));
#1610=DIRECTION('',(1.,0.,0.));
#1611=DIRECTION('center_axis',(1.,0.,0.));
#1612=DIRECTION('ref_axis',(0.,1.,0.));
#1613=DIRECTION('',(0.,0.,-1.));
#1614=DIRECTION('',(0.,1.,0.));
#1615=DIRECTION('center_axis',(-1.,0.,0.));
#1616=DIRECTION('ref_axis',(0.,-1.,0.));
#1617=DIRECTION('',(0.,-1.,0.));
#1618=DIRECTION('',(0.,0.,1.));
#1619=DIRECTION('center_axis',(0.,0.,1.));
#1620=DIRECTION('ref_axis',(1.,0.,0.));
#1621=DIRECTION('',(1.,0.,0.));
#1622=DIRECTION('center_axis',(0.,1.,0.));
#1623=DIRECTION('ref_axis',(-1.,0.,0.));
#1624=DIRECTION('',(0.,0.,1.));
#1625=DIRECTION('',(-1.,0.,0.));
#1626=DIRECTION('',(0.,0.,1.));
#1627=DIRECTION('center_axis',(0.,-1.,0.));
#1628=DIRECTION('ref_axis',(1.,0.,0.));
#1629=DIRECTION('',(0.,0.,1.));
#1630=DIRECTION('',(1.,0.,0.));
#1631=DIRECTION('',(0.,0.,1.));
#1632=DIRECTION('center_axis',(1.,0.,0.));
#1633=DIRECTION('ref_axis',(0.,1.,0.));
#1634=DIRECTION('',(0.,1.,0.));
#1635=DIRECTION('center_axis',(-1.,0.,0.));
#1636=DIRECTION('ref_axis',(0.,-1.,0.));
#1637=DIRECTION('',(0.,-1.,0.));
#1638=DIRECTION('center_axis',(1.,0.,0.));
#1639=DIRECTION('ref_axis',(0.,1.,0.));
#1640=DIRECTION('',(0.,1.,0.));
#1641=DIRECTION('',(0.,0.,1.));
#1642=DIRECTION('center_axis',(0.,1.,0.));
#1643=DIRECTION('ref_axis',(-1.,0.,0.));
#1644=DIRECTION('',(-1.,0.,0.));
#1645=DIRECTION('',(0.,0.,1.));
#1646=DIRECTION('center_axis',(-1.,0.,0.));
#1647=DIRECTION('ref_axis',(0.,-1.,0.));
#1648=DIRECTION('',(0.,-1.,0.));
#1649=DIRECTION('center_axis',(1.,0.,0.));
#1650=DIRECTION('ref_axis',(0.,1.,0.));
#1651=DIRECTION('',(0.,1.,0.));
#1652=DIRECTION('center_axis',(-1.,0.,0.));
#1653=DIRECTION('ref_axis',(0.,-1.,0.));
#1654=DIRECTION('',(0.,-1.,0.));
#1655=DIRECTION('center_axis',(0.,0.,1.));
#1656=DIRECTION('ref_axis',(1.,0.,0.));
#1657=CARTESIAN_POINT('',(0.,0.,0.));
#1658=CARTESIAN_POINT('Origin',(360.,150.,0.));
#1659=CARTESIAN_POINT('',(360.,155.,2.5));
#1660=CARTESIAN_POINT('',(365.,150.,2.5));
#1661=CARTESIAN_POINT('Origin',(360.,150.,2.5));
#1662=CARTESIAN_POINT('',(365.,150.,0.));
#1663=CARTESIAN_POINT('',(365.,150.,0.));
#1664=CARTESIAN_POINT('',(360.,155.,0.));
#1665=CARTESIAN_POINT('Origin',(360.,150.,0.));
#1666=CARTESIAN_POINT('',(360.,155.,0.));
#1667=CARTESIAN_POINT('Origin',(365.,155.,0.));
#1668=CARTESIAN_POINT('',(344.119,155.,0.));
#1669=CARTESIAN_POINT('',(365.,155.,0.));
#1670=CARTESIAN_POINT('',(344.119,155.,2.5));
#1671=CARTESIAN_POINT('',(344.119,155.,0.));
#1672=CARTESIAN_POINT('',(365.,155.,2.5));
#1673=CARTESIAN_POINT('Origin',(182.5,77.5,0.));
#1674=CARTESIAN_POINT('',(365.,5.,0.));
#1675=CARTESIAN_POINT('',(365.,0.,0.));
#1676=CARTESIAN_POINT('',(360.,0.,0.));
#1677=CARTESIAN_POINT('Origin',(360.,5.,0.));
#1678=CARTESIAN_POINT('',(5.,0.,0.));
#1679=CARTESIAN_POINT('',(0.,0.,0.));
#1680=CARTESIAN_POINT('',(0.,5.,0.));
#1681=CARTESIAN_POINT('Origin',(5.,5.,0.));
#1682=CARTESIAN_POINT('',(0.,150.,0.));
#1683=CARTESIAN_POINT('',(0.,155.,0.));
#1684=CARTESIAN_POINT('',(5.,155.,0.));
#1685=CARTESIAN_POINT('Origin',(5.,150.,0.));
#1686=CARTESIAN_POINT('',(328.119,155.,0.));
#1687=CARTESIAN_POINT('',(365.,155.,0.));
#1688=CARTESIAN_POINT('',(328.119,87.655,0.));
#1689=CARTESIAN_POINT('',(328.119,155.,0.));
#1690=CARTESIAN_POINT('',(344.119,87.655,0.));
#1691=CARTESIAN_POINT('',(328.119,87.655,0.));
#1692=CARTESIAN_POINT('',(344.119,87.655,0.));
#1693=CARTESIAN_POINT('',(304.506,12.815,0.));
#1694=CARTESIAN_POINT('',(304.506,17.815,0.));
#1695=CARTESIAN_POINT('',(304.506,45.1575,0.));
#1696=CARTESIAN_POINT('',(324.506,17.815,0.));
#1697=CARTESIAN_POINT('',(324.506,17.815,0.));
#1698=CARTESIAN_POINT('',(324.506,137.09,0.));
#1699=CARTESIAN_POINT('',(324.506,137.09,0.));
#1700=CARTESIAN_POINT('',(304.506,137.09,0.));
#1701=CARTESIAN_POINT('',(18.5060000000001,137.09,0.));
#1702=CARTESIAN_POINT('',(304.506,142.09,0.));
#1703=CARTESIAN_POINT('',(304.506,107.295,0.));
#1704=CARTESIAN_POINT('',(309.506,142.09,0.));
#1705=CARTESIAN_POINT('',(243.503,142.09,0.));
#1706=CARTESIAN_POINT('',(309.506,147.09,0.));
#1707=CARTESIAN_POINT('',(309.506,109.795,0.));
#1708=CARTESIAN_POINT('',(259.506,147.09,0.));
#1709=CARTESIAN_POINT('',(246.003,147.09,0.));
#1710=CARTESIAN_POINT('',(259.506,142.09,0.));
#1711=CARTESIAN_POINT('',(259.506,112.295,0.));
#1712=CARTESIAN_POINT('',(264.506,142.09,0.));
#1713=CARTESIAN_POINT('',(221.003,142.09,0.));
#1714=CARTESIAN_POINT('',(264.506,137.09,0.));
#1715=CARTESIAN_POINT('',(264.506,109.795,0.));
#1716=CARTESIAN_POINT('',(78.5060000000001,137.09,0.));
#1717=CARTESIAN_POINT('',(18.5060000000001,137.09,0.));
#1718=CARTESIAN_POINT('',(78.5060000000001,142.09,0.));
#1719=CARTESIAN_POINT('',(78.5060000000001,107.295,0.));
#1720=CARTESIAN_POINT('',(83.5060000000001,142.09,0.));
#1721=CARTESIAN_POINT('',(130.503,142.09,0.));
#1722=CARTESIAN_POINT('',(83.5060000000001,147.09,0.));
#1723=CARTESIAN_POINT('',(83.5060000000001,109.795,0.));
#1724=CARTESIAN_POINT('',(33.5060000000001,147.09,0.));
#1725=CARTESIAN_POINT('',(133.003,147.09,0.));
#1726=CARTESIAN_POINT('',(33.5060000000001,142.09,0.));
#1727=CARTESIAN_POINT('',(33.5060000000001,112.295,0.));
#1728=CARTESIAN_POINT('',(38.5060000000001,142.09,0.));
#1729=CARTESIAN_POINT('',(108.003,142.09,0.));
#1730=CARTESIAN_POINT('',(38.5060000000001,137.09,0.));
#1731=CARTESIAN_POINT('',(38.5060000000001,109.795,0.));
#1732=CARTESIAN_POINT('',(18.5060000000001,137.09,0.));
#1733=CARTESIAN_POINT('',(18.5060000000001,137.09,0.));
#1734=CARTESIAN_POINT('',(18.5060000000001,17.815,0.));
#1735=CARTESIAN_POINT('',(18.5060000000001,17.815,0.));
#1736=CARTESIAN_POINT('',(38.5060000000001,17.815,0.));
#1737=CARTESIAN_POINT('',(324.506,17.815,0.));
#1738=CARTESIAN_POINT('',(38.5060000000001,12.815,0.));
#1739=CARTESIAN_POINT('',(38.5060000000001,47.6575,0.));
#1740=CARTESIAN_POINT('',(33.5060000000001,12.815,0.));
#1741=CARTESIAN_POINT('',(110.503,12.815,0.));
#1742=CARTESIAN_POINT('',(33.5060000000001,7.81499999999997,0.));
#1743=CARTESIAN_POINT('',(33.5060000000001,45.1575,0.));
#1744=CARTESIAN_POINT('',(83.5060000000001,7.81499999999997,0.));
#1745=CARTESIAN_POINT('',(108.003,7.81499999999998,0.));
#1746=CARTESIAN_POINT('',(83.5060000000001,12.815,0.));
#1747=CARTESIAN_POINT('',(83.5060000000001,42.6575,0.));
#1748=CARTESIAN_POINT('',(78.5060000000001,12.815,0.));
#1749=CARTESIAN_POINT('',(133.003,12.815,0.));
#1750=CARTESIAN_POINT('',(78.5060000000001,17.815,0.));
#1751=CARTESIAN_POINT('',(78.5060000000001,45.1575,0.));
#1752=CARTESIAN_POINT('',(264.506,17.815,0.));
#1753=CARTESIAN_POINT('',(324.506,17.815,0.));
#1754=CARTESIAN_POINT('',(264.506,12.815,0.));
#1755=CARTESIAN_POINT('',(264.506,47.6575,0.));
#1756=CARTESIAN_POINT('',(259.506,12.815,0.));
#1757=CARTESIAN_POINT('',(223.503,12.815,0.));
#1758=CARTESIAN_POINT('',(259.506,7.81499999999997,0.));
#1759=CARTESIAN_POINT('',(259.506,45.1575,0.));
#1760=CARTESIAN_POINT('',(309.506,7.81499999999997,0.));
#1761=CARTESIAN_POINT('',(221.003,7.81499999999998,0.));
#1762=CARTESIAN_POINT('',(309.506,12.815,0.));
#1763=CARTESIAN_POINT('',(309.506,42.6575,0.));
#1764=CARTESIAN_POINT('',(246.003,12.815,0.));
#1765=CARTESIAN_POINT('',(99.1123014901161,2.295,0.));
#1766=CARTESIAN_POINT('Origin',(100.000001490116,2.295,0.));
#1767=CARTESIAN_POINT('',(99.1123014901161,152.77600230968,0.));
#1768=CARTESIAN_POINT('Origin',(100.000001490116,152.77600230968,0.));
#1769=CARTESIAN_POINT('',(2.1103,4.248,0.));
#1770=CARTESIAN_POINT('Origin',(2.998,4.248,0.));
#1771=CARTESIAN_POINT('',(361.114305438924,4.248,0.));
#1772=CARTESIAN_POINT('Origin',(362.002005438924,4.248,0.));
#1773=CARTESIAN_POINT('',(249.1123,2.295,0.));
#1774=CARTESIAN_POINT('Origin',(250.,2.295,0.));
#1775=CARTESIAN_POINT('',(251.11430543889,152.77600230968,0.));
#1776=CARTESIAN_POINT('Origin',(252.00200543889,152.77600230968,0.));
#1777=CARTESIAN_POINT('',(361.114305438924,150.75200230968,0.));
#1778=CARTESIAN_POINT('Origin',(362.002005438924,150.75200230968,0.));
#1779=CARTESIAN_POINT('',(2.1103,150.75200230968,0.));
#1780=CARTESIAN_POINT('Origin',(2.998,150.75200230968,0.));
#1781=CARTESIAN_POINT('Origin',(360.,5.,0.));
#1782=CARTESIAN_POINT('',(365.,5.,2.5));
#1783=CARTESIAN_POINT('',(360.,0.,2.5));
#1784=CARTESIAN_POINT('Origin',(360.,5.,2.5));
#1785=CARTESIAN_POINT('',(360.,0.,0.));
#1786=CARTESIAN_POINT('',(365.,5.,0.));
#1787=CARTESIAN_POINT('Origin',(0.,0.,0.));
#1788=CARTESIAN_POINT('',(5.,0.,2.5));
#1789=CARTESIAN_POINT('',(0.,0.,2.5));
#1790=CARTESIAN_POINT('',(5.,0.,0.));
#1791=CARTESIAN_POINT('Origin',(5.,5.,0.));
#1792=CARTESIAN_POINT('',(0.,5.,2.5));
#1793=CARTESIAN_POINT('Origin',(5.,5.,2.5));
#1794=CARTESIAN_POINT('',(0.,5.,0.));
#1795=CARTESIAN_POINT('Origin',(5.,150.,0.));
#1796=CARTESIAN_POINT('',(0.,150.,2.5));
#1797=CARTESIAN_POINT('',(5.,155.,2.5));
#1798=CARTESIAN_POINT('Origin',(5.,150.,2.5));
#1799=CARTESIAN_POINT('',(5.,155.,0.));
#1800=CARTESIAN_POINT('',(0.,150.,0.));
#1801=CARTESIAN_POINT('Origin',(328.119,155.,0.));
#1802=CARTESIAN_POINT('',(328.119,155.,2.5));
#1803=CARTESIAN_POINT('',(365.,155.,2.5));
#1804=CARTESIAN_POINT('',(328.119,155.,0.));
#1805=CARTESIAN_POINT('Origin',(2.998,150.75200230968,0.));
#1806=CARTESIAN_POINT('',(2.1103,150.75200230968,1.));
#1807=CARTESIAN_POINT('',(2.1103,150.75200230968,0.));
#1808=CARTESIAN_POINT('Origin',(2.998,150.75200230968,1.));
#1809=CARTESIAN_POINT('Origin',(2.998,150.75200230968,1.));
#1810=CARTESIAN_POINT('Origin',(362.002005438924,150.75200230968,0.));
#1811=CARTESIAN_POINT('',(361.114305438924,150.75200230968,1.));
#1812=CARTESIAN_POINT('',(361.114305438924,150.75200230968,0.));
#1813=CARTESIAN_POINT('Origin',(362.002005438924,150.75200230968,1.));
#1814=CARTESIAN_POINT('Origin',(362.002005438924,150.75200230968,1.));
#1815=CARTESIAN_POINT('Origin',(252.00200543889,152.77600230968,0.));
#1816=CARTESIAN_POINT('',(251.11430543889,152.77600230968,1.));
#1817=CARTESIAN_POINT('',(251.11430543889,152.77600230968,0.));
#1818=CARTESIAN_POINT('Origin',(252.00200543889,152.77600230968,1.));
#1819=CARTESIAN_POINT('Origin',(252.00200543889,152.77600230968,1.));
#1820=CARTESIAN_POINT('Origin',(250.,2.295,0.));
#1821=CARTESIAN_POINT('',(249.1123,2.295,1.));
#1822=CARTESIAN_POINT('',(249.1123,2.295,0.));
#1823=CARTESIAN_POINT('Origin',(250.,2.295,1.));
#1824=CARTESIAN_POINT('Origin',(250.,2.295,1.));
#1825=CARTESIAN_POINT('Origin',(362.002005438924,4.248,0.));
#1826=CARTESIAN_POINT('',(361.114305438924,4.248,1.));
#1827=CARTESIAN_POINT('',(361.114305438924,4.248,0.));
#1828=CARTESIAN_POINT('Origin',(362.002005438924,4.248,1.));
#1829=CARTESIAN_POINT('Origin',(362.002005438924,4.248,1.));
#1830=CARTESIAN_POINT('Origin',(2.998,4.248,0.));
#1831=CARTESIAN_POINT('',(2.1103,4.248,1.));
#1832=CARTESIAN_POINT('',(2.1103,4.248,0.));
#1833=CARTESIAN_POINT('Origin',(2.998,4.248,1.));
#1834=CARTESIAN_POINT('Origin',(2.998,4.248,1.));
#1835=CARTESIAN_POINT('Origin',(100.000001490116,152.77600230968,0.));
#1836=CARTESIAN_POINT('',(99.1123014901161,152.77600230968,1.));
#1837=CARTESIAN_POINT('',(99.1123014901161,152.77600230968,0.));
#1838=CARTESIAN_POINT('Origin',(100.000001490116,152.77600230968,1.));
#1839=CARTESIAN_POINT('Origin',(100.000001490116,152.77600230968,1.));
#1840=CARTESIAN_POINT('Origin',(100.000001490116,2.295,0.));
#1841=CARTESIAN_POINT('',(99.1123014901161,2.295,1.));
#1842=CARTESIAN_POINT('',(99.1123014901161,2.295,0.));
#1843=CARTESIAN_POINT('Origin',(100.000001490116,2.295,1.));
#1844=CARTESIAN_POINT('Origin',(100.000001490116,2.295,1.));
#1845=CARTESIAN_POINT('Origin',(304.506,12.815,0.));
#1846=CARTESIAN_POINT('',(304.506,12.815,0.8));
#1847=CARTESIAN_POINT('',(304.506,12.815,0.));
#1848=CARTESIAN_POINT('',(304.506,17.815,0.8));
#1849=CARTESIAN_POINT('',(304.506,17.815,0.8));
#1850=CARTESIAN_POINT('',(304.506,17.815,0.));
#1851=CARTESIAN_POINT('Origin',(309.506,12.815,0.));
#1852=CARTESIAN_POINT('',(309.506,12.815,0.8));
#1853=CARTESIAN_POINT('',(309.506,12.815,0.));
#1854=CARTESIAN_POINT('',(304.506,12.815,0.8));
#1855=CARTESIAN_POINT('Origin',(309.506,7.81499999999997,0.));
#1856=CARTESIAN_POINT('',(309.506,7.81499999999997,0.8));
#1857=CARTESIAN_POINT('',(309.506,7.81499999999997,0.));
#1858=CARTESIAN_POINT('',(309.506,12.815,0.8));
#1859=CARTESIAN_POINT('Origin',(259.506,7.81499999999997,0.));
#1860=CARTESIAN_POINT('',(259.506,7.81499999999997,0.8));
#1861=CARTESIAN_POINT('',(259.506,7.81499999999997,0.));
#1862=CARTESIAN_POINT('',(309.506,7.81499999999997,0.8));
#1863=CARTESIAN_POINT('Origin',(259.506,12.815,0.));
#1864=CARTESIAN_POINT('',(259.506,12.815,0.8));
#1865=CARTESIAN_POINT('',(259.506,12.815,0.));
#1866=CARTESIAN_POINT('',(259.506,7.81499999999997,0.8));
#1867=CARTESIAN_POINT('Origin',(264.506,12.815,0.));
#1868=CARTESIAN_POINT('',(264.506,12.815,0.8));
#1869=CARTESIAN_POINT('',(264.506,12.815,0.));
#1870=CARTESIAN_POINT('',(259.506,12.815,0.8));
#1871=CARTESIAN_POINT('Origin',(264.506,17.815,0.));
#1872=CARTESIAN_POINT('',(264.506,17.815,0.8));
#1873=CARTESIAN_POINT('',(264.506,17.815,0.));
#1874=CARTESIAN_POINT('',(264.506,12.815,0.8));
#1875=CARTESIAN_POINT('Origin',(284.506,12.815,0.8));
#1876=CARTESIAN_POINT('',(304.506,17.815,0.8));
#1877=CARTESIAN_POINT('Origin',(33.5060000000001,142.09,0.));
#1878=CARTESIAN_POINT('',(33.5060000000001,142.09,0.8));
#1879=CARTESIAN_POINT('',(33.5060000000001,142.09,0.));
#1880=CARTESIAN_POINT('',(38.5060000000001,142.09,0.8));
#1881=CARTESIAN_POINT('',(38.5060000000001,142.09,0.8));
#1882=CARTESIAN_POINT('',(38.5060000000001,142.09,0.));
#1883=CARTESIAN_POINT('Origin',(33.5060000000001,147.09,0.));
#1884=CARTESIAN_POINT('',(33.5060000000001,147.09,0.8));
#1885=CARTESIAN_POINT('',(33.5060000000001,147.09,0.));
#1886=CARTESIAN_POINT('',(33.5060000000001,142.09,0.8));
#1887=CARTESIAN_POINT('Origin',(83.5060000000001,147.09,0.));
#1888=CARTESIAN_POINT('',(83.5060000000001,147.09,0.8));
#1889=CARTESIAN_POINT('',(83.5060000000001,147.09,0.));
#1890=CARTESIAN_POINT('',(33.5060000000001,147.09,0.8));
#1891=CARTESIAN_POINT('Origin',(83.5060000000001,142.09,0.));
#1892=CARTESIAN_POINT('',(83.5060000000001,142.09,0.8));
#1893=CARTESIAN_POINT('',(83.5060000000001,142.09,0.));
#1894=CARTESIAN_POINT('',(83.5060000000001,147.09,0.8));
#1895=CARTESIAN_POINT('Origin',(78.5060000000001,142.09,0.));
#1896=CARTESIAN_POINT('',(78.5060000000001,142.09,0.8));
#1897=CARTESIAN_POINT('',(78.5060000000001,142.09,0.));
#1898=CARTESIAN_POINT('',(83.5060000000001,142.09,0.8));
#1899=CARTESIAN_POINT('Origin',(78.5060000000001,137.09,0.));
#1900=CARTESIAN_POINT('',(78.5060000000001,137.09,0.8));
#1901=CARTESIAN_POINT('',(78.5060000000001,137.09,0.));
#1902=CARTESIAN_POINT('',(78.5060000000001,142.09,0.8));
#1903=CARTESIAN_POINT('Origin',(38.5060000000001,142.09,0.));
#1904=CARTESIAN_POINT('',(38.5060000000001,137.09,0.8));
#1905=CARTESIAN_POINT('',(38.5060000000001,137.09,0.8));
#1906=CARTESIAN_POINT('',(38.5060000000001,137.09,0.));
#1907=CARTESIAN_POINT('Origin',(58.5060000000001,142.09,0.8));
#1908=CARTESIAN_POINT('',(38.5060000000001,137.09,0.8));
#1909=CARTESIAN_POINT('Origin',(83.5060000000001,12.815,0.));
#1910=CARTESIAN_POINT('',(83.5060000000001,12.815,0.8));
#1911=CARTESIAN_POINT('',(83.5060000000001,12.815,0.));
#1912=CARTESIAN_POINT('',(78.5060000000001,12.815,0.8));
#1913=CARTESIAN_POINT('',(83.5060000000001,12.815,0.8));
#1914=CARTESIAN_POINT('',(78.5060000000001,12.815,0.));
#1915=CARTESIAN_POINT('Origin',(83.5060000000001,7.81499999999997,0.));
#1916=CARTESIAN_POINT('',(83.5060000000001,7.81499999999997,0.8));
#1917=CARTESIAN_POINT('',(83.5060000000001,7.81499999999997,0.));
#1918=CARTESIAN_POINT('',(83.5060000000001,7.81499999999997,0.8));
#1919=CARTESIAN_POINT('Origin',(33.5060000000001,7.81499999999997,0.));
#1920=CARTESIAN_POINT('',(33.5060000000001,7.81499999999997,0.8));
#1921=CARTESIAN_POINT('',(33.5060000000001,7.81499999999997,0.));
#1922=CARTESIAN_POINT('',(33.5060000000001,7.81499999999997,0.8));
#1923=CARTESIAN_POINT('Origin',(33.5060000000001,12.815,0.));
#1924=CARTESIAN_POINT('',(33.5060000000001,12.815,0.8));
#1925=CARTESIAN_POINT('',(33.5060000000001,12.815,0.));
#1926=CARTESIAN_POINT('',(33.5060000000001,12.815,0.8));
#1927=CARTESIAN_POINT('Origin',(38.5060000000001,12.815,0.));
#1928=CARTESIAN_POINT('',(38.5060000000001,12.815,0.8));
#1929=CARTESIAN_POINT('',(38.5060000000001,12.815,0.));
#1930=CARTESIAN_POINT('',(38.5060000000001,12.815,0.8));
#1931=CARTESIAN_POINT('Origin',(38.5060000000001,17.815,0.));
#1932=CARTESIAN_POINT('',(38.5060000000001,17.815,0.8));
#1933=CARTESIAN_POINT('',(38.5060000000001,17.815,0.));
#1934=CARTESIAN_POINT('',(38.5060000000001,17.815,0.8));
#1935=CARTESIAN_POINT('Origin',(78.5060000000001,12.815,0.));
#1936=CARTESIAN_POINT('',(78.5060000000001,17.815,0.8));
#1937=CARTESIAN_POINT('',(78.5060000000001,12.815,0.8));
#1938=CARTESIAN_POINT('',(78.5060000000001,17.815,0.));
#1939=CARTESIAN_POINT('Origin',(58.5060000000001,12.815,0.8));
#1940=CARTESIAN_POINT('',(191.506,17.815,0.8));
#1941=CARTESIAN_POINT('Origin',(259.506,142.09,0.));
#1942=CARTESIAN_POINT('',(259.506,142.09,0.8));
#1943=CARTESIAN_POINT('',(259.506,142.09,0.));
#1944=CARTESIAN_POINT('',(264.506,142.09,0.8));
#1945=CARTESIAN_POINT('',(259.506,142.09,0.8));
#1946=CARTESIAN_POINT('',(264.506,142.09,0.));
#1947=CARTESIAN_POINT('Origin',(259.506,147.09,0.));
#1948=CARTESIAN_POINT('',(259.506,147.09,0.8));
#1949=CARTESIAN_POINT('',(259.506,147.09,0.));
#1950=CARTESIAN_POINT('',(259.506,147.09,0.8));
#1951=CARTESIAN_POINT('Origin',(309.506,147.09,0.));
#1952=CARTESIAN_POINT('',(309.506,147.09,0.8));
#1953=CARTESIAN_POINT('',(309.506,147.09,0.));
#1954=CARTESIAN_POINT('',(309.506,147.09,0.8));
#1955=CARTESIAN_POINT('Origin',(309.506,142.09,0.));
#1956=CARTESIAN_POINT('',(309.506,142.09,0.8));
#1957=CARTESIAN_POINT('',(309.506,142.09,0.));
#1958=CARTESIAN_POINT('',(309.506,142.09,0.8));
#1959=CARTESIAN_POINT('Origin',(304.506,142.09,0.));
#1960=CARTESIAN_POINT('',(304.506,142.09,0.8));
#1961=CARTESIAN_POINT('',(304.506,142.09,0.));
#1962=CARTESIAN_POINT('',(304.506,142.09,0.8));
#1963=CARTESIAN_POINT('Origin',(304.506,137.09,0.));
#1964=CARTESIAN_POINT('',(304.506,137.09,0.8));
#1965=CARTESIAN_POINT('',(304.506,137.09,0.));
#1966=CARTESIAN_POINT('',(304.506,137.09,0.8));
#1967=CARTESIAN_POINT('Origin',(264.506,142.09,0.));
#1968=CARTESIAN_POINT('',(264.506,137.09,0.8));
#1969=CARTESIAN_POINT('',(264.506,142.09,0.8));
#1970=CARTESIAN_POINT('',(264.506,137.09,0.));
#1971=CARTESIAN_POINT('Origin',(284.506,142.09,0.8));
#1972=CARTESIAN_POINT('',(151.506,137.09,0.8));
#1973=CARTESIAN_POINT('Origin',(324.506,17.815,0.));
#1974=CARTESIAN_POINT('',(18.5060000000001,17.815,2.5));
#1975=CARTESIAN_POINT('',(18.5060000000001,17.815,0.));
#1976=CARTESIAN_POINT('',(324.506,17.815,2.5));
#1977=CARTESIAN_POINT('',(324.506,17.815,2.5));
#1978=CARTESIAN_POINT('',(324.506,17.815,0.));
#1979=CARTESIAN_POINT('Origin',(18.5060000000001,137.09,0.));
#1980=CARTESIAN_POINT('',(324.506,137.09,2.5));
#1981=CARTESIAN_POINT('',(324.506,137.09,0.));
#1982=CARTESIAN_POINT('',(18.5060000000001,137.09,2.5));
#1983=CARTESIAN_POINT('',(18.5060000000001,137.09,2.5));
#1984=CARTESIAN_POINT('',(18.5060000000001,137.09,0.));
#1985=CARTESIAN_POINT('Origin',(18.5060000000001,17.815,0.));
#1986=CARTESIAN_POINT('',(18.5060000000001,17.815,2.5));
#1987=CARTESIAN_POINT('Origin',(324.506,137.09,0.));
#1988=CARTESIAN_POINT('',(324.506,137.09,2.5));
#1989=CARTESIAN_POINT('Origin',(328.119,87.655,0.));
#1990=CARTESIAN_POINT('',(328.119,87.655,2.5));
#1991=CARTESIAN_POINT('',(328.119,155.,2.5));
#1992=CARTESIAN_POINT('',(328.119,87.655,0.));
#1993=CARTESIAN_POINT('Origin',(344.119,87.655,0.));
#1994=CARTESIAN_POINT('',(344.119,87.655,2.5));
#1995=CARTESIAN_POINT('',(328.119,87.655,2.5));
#1996=CARTESIAN_POINT('',(344.119,87.655,0.));
#1997=CARTESIAN_POINT('Origin',(344.119,155.,0.));
#1998=CARTESIAN_POINT('',(344.119,87.655,2.5));
#1999=CARTESIAN_POINT('Origin',(365.,0.,0.));
#2000=CARTESIAN_POINT('',(365.,0.,2.5));
#2001=CARTESIAN_POINT('Origin',(0.,155.,0.));
#2002=CARTESIAN_POINT('',(0.,155.,2.5));
#2003=CARTESIAN_POINT('Origin',(182.5,77.5,2.5));
#2004=UNCERTAINTY_MEASURE_WITH_UNIT(LENGTH_MEASURE(0.01),#2008,
'DISTANCE_ACCURACY_VALUE',
'Maximum model space distance between geometric entities at asserted c
onnectivities');
#2005=UNCERTAINTY_MEASURE_WITH_UNIT(LENGTH_MEASURE(0.01),#2008,
'DISTANCE_ACCURACY_VALUE',
'Maximum model space distance between geometric entities at asserted c
onnectivities');
#2006=(
GEOMETRIC_REPRESENTATION_CONTEXT(3)
GLOBAL_UNCERTAINTY_ASSIGNED_CONTEXT((#2004))
GLOBAL_UNIT_ASSIGNED_CONTEXT((#2008,#2010,#2011))
REPRESENTATION_CONTEXT('','3D')
);
#2007=(
GEOMETRIC_REPRESENTATION_CONTEXT(3)
GLOBAL_UNCERTAINTY_ASSIGNED_CONTEXT((#2005))
GLOBAL_UNIT_ASSIGNED_CONTEXT((#2008,#2010,#2011))
REPRESENTATION_CONTEXT('','3D')
);
#2008=(
LENGTH_UNIT()
NAMED_UNIT(*)
SI_UNIT(.MILLI.,.METRE.)
);
#2009=(
LENGTH_UNIT()
NAMED_UNIT(*)
SI_UNIT($,.METRE.)
);
#2010=(
NAMED_UNIT(*)
PLANE_ANGLE_UNIT()
SI_UNIT($,.RADIAN.)
);
#2011=(
NAMED_UNIT(*)
SI_UNIT($,.STERADIAN.)
SOLID_ANGLE_UNIT()
);
#2012=SHAPE_DEFINITION_REPRESENTATION(#2013,#2014);
#2013=PRODUCT_DEFINITION_SHAPE('',$,#2016);
#2014=SHAPE_REPRESENTATION('',(#1240),#2006);
#2015=PRODUCT_DEFINITION_CONTEXT('part definition',#2020,'design');
#2016=PRODUCT_DEFINITION('Top','Top v37',#2017,#2015);
#2017=PRODUCT_DEFINITION_FORMATION('',$,#2022);
#2018=PRODUCT_RELATED_PRODUCT_CATEGORY('Top v37','Top v37',(#2022));
#2019=APPLICATION_PROTOCOL_DEFINITION('international standard',
'automotive_design',2009,#2020);
#2020=APPLICATION_CONTEXT(
'Core Data for Automotive Mechanical Design Process');
#2021=PRODUCT_CONTEXT('part definition',#2020,'mechanical');
#2022=PRODUCT('Top','Top v37',$,(#2021));
#2023=PRESENTATION_STYLE_ASSIGNMENT((#2024));
#2024=SURFACE_STYLE_USAGE(.BOTH.,#2025);
#2025=SURFACE_SIDE_STYLE('',(#2026));
#2026=SURFACE_STYLE_FILL_AREA(#2027);
#2027=FILL_AREA_STYLE(
'PA 11 - Nylon- HP 11-30 (with EOS P 396 3D Printer)',(#2028));
#2028=FILL_AREA_STYLE_COLOUR(
'PA 11 - Nylon- HP 11-30 (with EOS P 396 3D Printer)',#2029);
#2029=COLOUR_RGB('PA 11 - Nylon- HP 11-30 (with EOS P 396 3D Printer)',
0.247058823529412,0.247058823529412,0.247058823529412);
ENDSEC;
END-ISO-10303-21;
